<?xml version="1.0" encoding="UTF-8"?>
<!DOCTYPE svg PUBLIC "-//W3C//DTD SVG 1.1//EN" "http://www.w3.org/Graphics/SVG/1.1/DTD/svg11.dtd">
<!-- Creator: CorelDRAW 2020 (64 Bit) -->
<svg xmlns="http://www.w3.org/2000/svg" xml:space="preserve" width="267px" height="247px" version="1.1" style="shape-rendering:geometricPrecision; text-rendering:geometricPrecision; image-rendering:optimizeQuality; fill-rule:evenodd; clip-rule:evenodd"
viewBox="0 0 115 106.21"
 xmlns:xlink="http://www.w3.org/1999/xlink"
 xmlns:xodm="http://www.corel.com/coreldraw/odm/2003">
 <defs>
  <style type="text/css">
   <![CDATA[
    .str1 {stroke:#C8C5E2;stroke-width:1.02;stroke-miterlimit:22.9256}
    .str0 {stroke:#2D4C7D;stroke-width:1.02;stroke-miterlimit:22.9256}
    .fil18 {fill:#BDBFC1}
    .fil11 {fill:#A9ABAE}
    .fil37 {fill:#96989A}
    .fil23 {fill:#848688}
    .fil35 {fill:#5CC6D0}
    .fil15 {fill:#5CC6D0}
    .fil12 {fill:#51A8B1}
    .fil20 {fill:#51A8B1}
    .fil10 {fill:#00AFEF}
    .fil38 {fill:#0098DA}
    .fil24 {fill:#0098DA}
    .fil45 {fill:#0D0303}
    .fil2 {fill:#2D4C7D}
    .fil1 {fill:#3695CE}
    .fil0 {fill:#3A94CC}
    .fil42 {fill:#4A0908}
    .fil43 {fill:#5C5C5C}
    .fil39 {fill:#626262}
    .fil41 {fill:#727172}
    .fil25 {fill:#7A7A7A}
    .fil26 {fill:#828282}
    .fil30 {fill:#898989}
    .fil32 {fill:#928F90}
    .fil27 {fill:#959293}
    .fil33 {fill:#969596}
    .fil13 {fill:#AAA6A6}
    .fil36 {fill:#ADAAAB}
    .fil29 {fill:#B1B1B1}
    .fil9 {fill:#B5B5B5}
    .fil16 {fill:#BBBBBB}
    .fil44 {fill:#C1BFC0}
    .fil8 {fill:#C7C7C7}
    .fil3 {fill:#CFCFCF}
    .fil21 {fill:lightgrey}
    .fil6 {fill:#D7D7D7}
    .fil22 {fill:#D8D8D8}
    .fil34 {fill:#DBDBDB}
    .fil7 {fill:#DDDDDD}
    .fil5 {fill:#DEDEDE}
    .fil28 {fill:#E7E7E7}
    .fil14 {fill:#E8E8E8}
    .fil4 {fill:#EBEBEB}
    .fil19 {fill:#EFEFEF}
    .fil40 {fill:#F7F7F7}
    .fil31 {fill:#FDFDFD}
    .fil17 {fill:#FEFEFE}
   ]]>
  </style>
 </defs>
 <g id="Camada_x0020_1">
  <metadata id="CorelCorpID_0Corel-Layer"/>
  <g id="_2915417125168">
   <g>
    <path class="fil0" d="M38.83 5.83l1 3.46c6.79,-1.27 13.52,-6.02 27.94,-2.27 3.3,0.86 5.47,2.33 8.76,2.38 -1.4,-1.16 -0.77,-1.69 -0.06,-3.78l-0.16 -1.63c-5.96,-2.28 -11.22,-3.92 -18.32,-3.99 -8.55,-0.08 -12.16,1.74 -19.06,3.76l-0.1 2.07z"/>
    <path class="fil1" d="M103.08 67.38c1.73,0.23 1.09,1.27 0.99,3.19 0.84,-3.07 -0.04,-3.52 2.17,-4.58l3.7 -0.67 1 -2.18 0 -11.89c-1,-2.75 -1.31,-2.61 -4.52,-2.53l-0.38 -1.01c-1.04,-0.49 -1.66,-0.87 -3.33,-0.75l-0.49 -2.15c0.11,4.06 -0.96,2.03 -1.37,5.01 -0.22,1.59 -0.02,4.93 -0.02,6.71 0,6.65 -1,9.47 2.25,10.85z"/>
    <path class="fil1" d="M4.01 51.27l0.01 11.85c1.27,3.29 1.63,1.91 3.95,2.63 0.12,0.04 0.25,0.08 0.36,0.13 0.31,0.13 5.72,4.61 5.85,-2.54l-0.03 -13.1c-0.16,-2.02 -0.57,-1.65 -1.02,-3.2 -1.71,-0.17 -2.82,0.15 -3.56,-0.15 -1.7,3.01 0,1.28 -2.89,1.89 -1.74,0.37 -2.04,0.78 -2.67,2.49z"/>
    <path class="fil2 str0" d="M76.53 9.4c8.48,4.57 11.77,7.25 16.87,13.65 4.36,5.45 7.97,13.07 8.82,21.76l0.49 2.15c1.67,-0.12 2.29,0.26 3.33,0.75 -0.89,-10.88 -4.32,-19.3 -9.46,-26.4 -3.88,-5.34 -11.71,-12.6 -20.11,-15.69 -0.71,2.09 -1.34,2.62 0.06,3.78z"/>
    <path class="fil2 str0" d="M9.57 46.89c0.74,0.3 1.85,-0.02 3.56,0.15 -0.57,-8.59 4.72,-18.42 8.44,-23.51 2.93,-4.01 11.79,-12.84 18.26,-14.24l-1 -3.46c-3.24,0.74 -9.24,4.76 -11.13,6.37 -4.14,3.55 -5.17,4.41 -8.6,8.84 -4.2,5.43 -9.82,16.56 -9.53,25.85z"/>
    <path class="fil2 str0" d="M104.07 70.57c0.1,-1.92 0.74,-2.96 -0.99,-3.19 -0.84,5.59 -0.76,8.16 -3.14,13.18 -2.1,4.45 -4.07,6.67 -7.12,9.85 -4.53,4.72 -14.08,10.78 -22.74,10.84 -2.49,-2.44 -4.66,-3.94 -9.24,-2.61 -6.93,2.01 -2.13,8.84 5.7,6.62 2.83,-0.8 2.24,-1.97 4.1,-2.65 3.04,-1.11 6.69,-1.35 10.3,-2.78 10.94,-4.31 21.85,-14.93 23.13,-29.26z"/>
    <path class="fil2 str0" d="M110.94 63.14c4.5,-2.3 4.96,-9.01 0,-11.89l0 11.89z"/>
    <path class="fil2 str0" d="M4.02 63.12l-0.01 -11.85c-4.9,2.91 -4.44,9.56 0.01,11.85z"/>
   </g>
   <g>
    <path class="fil3" d="M56.89 40.17c-0.27,0.1 -0.12,0.11 -0.51,0.15 -1.39,0.15 -2.12,0.25 -3.62,0.35 -0.3,0.02 -3.88,0.33 -4.19,0.24 -0.01,0 -0.03,0 -0.04,-0.02 -0.01,-0.01 -0.03,-0.01 -0.04,-0.02 -1.92,0.17 -3.39,1.7 -4.37,3.23 -1.03,1.61 -1.54,3.36 -2.26,5.33 -0.34,0.9 -0.64,1.9 -1.04,2.73 -0.63,1.35 -1.82,3.61 -2.56,5.03 -0.37,0.71 -1.18,1.77 -1,2.7l0.16 0.07c0.06,-0.14 -0.02,-0.16 0.34,0.08l0.92 0.3c0.46,0.03 0.77,0.04 1.04,-0.19l0.5 -0.39c0.12,-0.08 0.08,0 0.14,-0.18 0.04,-0.13 0.04,-0.37 0.04,-0.57l0.19 -0.31c0.13,-0.23 0.02,-0.14 0.21,-0.52l0.24 -0.58c0.13,-0.42 0.11,-0.04 0.3,-0.59 0.15,-0.44 0.09,-0.44 0.15,-0.63 0.09,-0.25 0.01,-0.03 0.1,-0.17 0.07,-0.11 0.05,-0.06 0.11,-0.17 0.13,-0.26 0.03,-0.34 0.16,-0.51l0.14 -0.14c0.17,-0.25 0.28,-0.63 0.36,-0.91 0.06,-0.22 0,-0.02 0.09,-0.19l0.27 -0.56c0.09,-0.09 0.19,-0.09 0.26,-0.29 0.05,-0.16 0.03,-0.36 0.03,-0.52 0.09,-0.23 0.16,0.21 0.28,-0.73l0.21 -0.62c0.23,-0.46 0.19,-0.56 0.37,-0.85l0.22 -0.38c0.13,-0.26 -0.02,-0.2 0.19,-0.44l1.03 -2.28c0.06,-0.18 0.08,-0.25 0.12,-0.43 0.06,-0.29 0.06,-0.21 0.18,-0.44 0.09,0.16 0.05,0.06 0.14,0.13 -0.06,-0.64 -0.77,-2.02 -0.42,-3 0,-0.01 0.08,-0.17 0.08,-0.17 0.09,-0.1 0.31,-0.05 0.58,-0.29 0.07,-0.06 0.24,-0.24 0.28,-0.27 0.01,-0.01 0.03,-0.01 0.04,-0.02 0.34,-0.19 0.39,-0.11 0.83,-0.54l0.14 -0.09c0.46,-0.26 0.92,-0.79 1.53,-0.85l-0.21 -0.07c0.47,-0.05 -0.11,-0.1 1.28,-0.14 0.28,-0.01 0.34,-0.05 0.61,-0.05 0.77,-0.02 1.88,-0.01 2.62,-0.15 0.18,-0.04 0.51,-0.05 0.65,-0.07l2.66 -0.12c0.34,0 1.53,0.44 2.27,0.55 0.4,0.06 1.03,0.28 1.36,0.53 0.34,0.26 0.44,0.63 0.56,0.99 0.32,0.94 -0.88,0.43 -1.7,1.7l-1.06 1.71c-0.19,0.27 -0.3,0.7 -0.7,0.74 0.1,0.19 -0.04,0.3 -0.13,0.47l-0.67 1.55 -0.35 1.37c0,0.01 0,0.03 0,0.04 -0.01,0.01 -0.01,0.02 -0.01,0.03l-0.14 0.89c-0.01,0.07 -0.04,1.79 0.03,2.11 0,0.01 0.01,0.03 0.01,0.04 0.01,0.02 0.01,0.03 0.02,0.04 0.14,0.45 0.02,1.34 -0.09,1.82 -0.07,0.29 -0.04,0.09 -0.27,0.52 -0.07,0.13 -0.03,0.17 -0.27,0.23l-0.34 0.05c-0.21,0.04 -0.18,0.09 -0.33,0.16 -0.63,0.28 -4.18,0.14 -4.76,0.23 -0.33,0.05 -1.08,0.13 -1.41,0.09 -0.21,-0.03 -0.17,-0.08 -0.4,-0.11l-0.06 -4.56c0.11,-2.12 -0.02,-0.56 -0.22,-2.71 -0.02,-0.23 -0.04,-0.46 -0.08,-0.7 0,-0.05 -0.06,-0.24 -0.08,-0.29l-0.11 -0.17c-0.01,-0.01 -0.02,-0.03 -0.02,-0.04l-0.19 -0.25c-0.04,-0.06 -0.01,-0.02 -0.06,-0.11l-0.82 -0.94c-0.04,-0.02 -0.58,-0.1 -0.69,-0.12 0.04,0.35 0.18,0.74 0.24,1.15 0.06,0.41 0.12,0.91 0.1,1.32 0.11,0.25 0.38,3.54 0.42,4.08 0.04,0.67 -0.05,1.45 -0.18,2.07 -0.09,0.46 -0.45,1.55 -0.31,1.95l0 -0.22c0.3,-0.01 0.5,-0.07 0.79,-0.08 0.28,0 0.56,0.01 0.84,0 0.96,-0.02 2.17,-0.23 2.99,-0.24 1.29,-0.02 3.71,0 4.91,-0.11 0.9,-0.08 2.16,0.17 2.91,-0.43 0.01,-0.3 0.03,-0.63 -0.02,-0.92l-0.48 -2.25c-0.09,0.1 0,-0.03 -0.08,0.14 -0.1,0.2 0.03,0.03 -0.01,0.04 -0.02,-0.7 -0.09,-2.13 0,-2.76 0.03,-0.21 0.11,-0.28 0.15,-0.57 0.06,-0.5 0.09,-0.06 0.16,-0.5 0.14,-0.83 0.33,-0.84 0.45,-1.03 0.31,-0.48 0.54,-1.45 0.55,-2.02l0.06 -0.32c0,-0.01 0.01,-0.02 0.02,-0.03 0.31,-0.48 0.34,-0.63 0.46,-0.82 0,0 0.15,-0.17 0.15,-0.18 0.4,-0.4 0.21,-0.38 0.92,0.07l0.24 0.15c0.23,0.17 0.7,1.06 0.92,1.35 0.49,0.63 0.11,0.34 0.61,0.83 0.16,0.15 0.29,0.43 0.41,0.63l0.54 0.92c0.2,0.34 0.18,0.23 0.35,0.47 0.24,0.32 0.42,0.64 0.69,0.97 0.58,0.7 0.19,0.53 0.81,1.08 0.36,0.31 0.81,0.24 1.26,0.22l0.23 -0.38c0.1,-0.12 -0.02,-0.01 0.12,-0.11 -0.1,0.33 -0.58,1.06 -0.78,1.39 -0.19,0.3 -0.5,1.13 -0.84,1.26 -0.04,0.17 -1,1.67 -1.19,1.98l-1.77 3c-0.17,0.34 -0.38,0.63 -0.57,0.98 -0.2,0.37 -0.27,0.8 -0.4,1.2 -0.15,0.43 -0.3,0.67 -0.45,1.06l1.19 -1.85c1.34,-2.16 3.1,-4.73 4.34,-6.86 0.16,-0.28 0.69,-1 0.74,-1.26 -0.21,0.05 -0.04,-0.05 -0.22,0.17 -0.08,0.11 -0.07,0.13 -0.21,0.19 0.08,-0.24 1.52,-2.43 1.82,-2.91 0.32,-0.5 0.09,-0.27 0.26,-0.57 0.32,-0.56 0.32,-0.85 0.38,-0.95l0.45 -0.72c0.06,-0.12 0.03,-0.07 0.06,-0.18l1.4 -2.34c0.23,-0.29 0.18,-0.25 0.36,-0.6 0.19,-0.36 0.96,-1.37 1.19,-1.56 0.33,-0.29 0.24,-0.11 0.36,-0.61 0.14,-0.54 0.32,-0.8 0.6,-1.28 0.89,-1.5 2.08,-3.38 2.34,-5.19 0.05,-0.36 0.09,-0.08 0.06,-0.35 -0.01,-0.18 -0.07,-0.19 -0.03,-0.34 0.04,-0.18 0.22,-0.51 0.23,-0.86l0.09 -0.22c0.1,-0.15 0.04,-0.21 0.16,-0.42 0.13,-0.24 -0.05,-0.07 0.25,-0.21 0.06,-0.19 -0.12,0.2 -0.01,-0.16 0.28,-0.13 0.2,0.05 0.28,-0.17l0.32 0.53c0.25,0.55 0.34,0.53 0.56,0.84 0.23,0.34 -0.13,0.05 0.23,0.37 0.12,0.11 0.23,0.3 0.52,0.53 0.51,0.4 0.1,0.12 0.43,0.41 0.33,0.28 -0.02,0.12 0.37,0.28 0.34,0.14 0.23,0.17 0.39,0.23l0.45 0.16c0.78,0.3 0.26,0.26 0.79,0.37 0.28,0.06 0.52,0.11 0.77,0.23 0.14,0.06 0.1,0.08 0.28,0.09 0.23,0.03 0.48,-0.03 0.71,0.02 0.76,0.16 0.3,0.08 0.89,-0.07 0.11,-0.03 0.15,-0.04 0.28,-0.05l0 -0.09c0,-0.09 -0.04,0.04 0,-0.06 1.52,-0.31 3.24,-1.13 4.29,-1.98 0.8,-0.64 0.85,-0.75 1.19,-1.96l0.5 -1.82c0.03,-0.1 0.05,-0.21 0.08,-0.31 0.07,-0.26 0.11,-0.2 0.12,-0.26 0,-0.03 0.02,-0.04 0.03,-0.05 0.03,-0.28 0.85,-3 1,-3.54 0.25,-0.93 0.27,-0.68 0.44,-1 0.02,0.09 0.16,0.31 0.2,0.48l0.45 1.82c0.12,0.16 0.11,0.32 0.15,0.53 0.25,1.19 0.08,3.1 -0.26,4.16l-0.29 1.03c0,0.01 -0.01,0.03 -0.02,0.04l-0.06 0.1c-0.01,0.01 -0.01,0.03 -0.02,0.04 -0.01,0.01 -0.02,0.02 -0.02,0.03l-0.73 1.08c-0.01,0.01 -0.08,0.07 -0.09,0.08 -0.38,0.36 -0.75,0.87 -1.45,1.49 -0.22,0.19 -0.46,0.44 -0.72,0.6 -0.16,0.09 -0.28,0.15 -0.42,0.25l-1.23 0.75c-1.32,0.37 -1.13,0.68 -1.78,0.91 -0.15,0.05 -0.4,0.08 -0.53,0.13 -0.12,0.05 -0.27,0.18 -0.42,0.24 -0.45,0.21 -0.75,0.21 -0.9,0.42 0.38,-0.07 2.71,-0.89 2.95,-1.03l1.02 -0.53c0.18,-0.09 0.38,-0.16 0.52,-0.25 0.11,-0.08 0.11,-0.1 0.23,-0.16 0.51,-0.29 0.75,-0.59 1.22,-0.95l0.74 -0.59 1.42 -1.73c0.11,-0.18 0.21,-0.32 0.28,-0.49 0.36,-0.85 0.57,-1.51 0.73,-2.38 0.04,-0.2 0.03,-0.5 0.06,-0.72 0.18,-1.4 0.11,-2.75 -0.42,-3.91 -0.01,-0.02 -0.02,-0.02 -0.05,-0.11 -0.07,-0.18 -0.28,-1.32 -0.44,-1.5l-0.24 -0.22c-0.01,0.01 -0.02,0.03 -0.03,0.04l-2.18 7.69c-0.15,0.51 -0.21,0.49 -0.53,0.76 -0.12,0.11 -0.17,0.2 -0.31,0.31 -0.7,0.56 -1.6,1.05 -2.43,1.42l-1.25 0.47c-1.27,0.33 -1.98,0.29 -3.13,-0.07l-1.26 -0.61c-0.13,-0.08 -0.24,-0.15 -0.36,-0.24 -0.26,-0.19 -0.47,-0.3 -0.69,-0.53 -0.22,-0.22 -0.44,-0.41 -0.62,-0.64 -0.11,-0.14 -0.17,-0.21 -0.27,-0.34l-0.69 -1.13c-0.4,-0.79 -0.43,-1.12 -0.23,-1.92l0.71 -2.95c0.15,-0.65 0.34,-1.37 0.47,-2.03 0.04,-0.18 0.08,-0.31 0.13,-0.48l0.31 -1.25c-0.04,-0.38 0.1,-0.14 -0.15,-0.27 -0.28,0.49 -0.59,0.95 -0.92,1.48l-1.29 2.25c-0.13,0.27 -0.24,0.55 -0.39,0.84 -0.13,0.25 -0.23,0.52 -0.34,0.83 -0.35,0.99 -0.62,1.86 -0.6,3.02 0.01,0.74 0.16,1.52 0.16,2.21 -0.01,1.71 -0.06,2.45 -0.82,3.92 -0.54,1.05 -1.13,2.04 -1.75,3.01l-5.47 8.81c-0.09,-0.05 -3.36,-5.74 -3.86,-6.45 -0.68,-0.96 -1.55,-1.87 -2.6,-2.55 -0.44,-0.28 -1.3,-0.57 -1.92,-0.7 -0.78,-0.16 -2.25,-0.14 -2.34,-0.21z"/>
    <path class="fil4" d="M45.75 46.88l-0.04 0.03c0.11,0.02 0.65,0.1 0.69,0.12l0.82 0.94c0.05,0.09 0.02,0.05 0.06,0.11l0.19 0.25c0,0.01 0.01,0.03 0.02,0.04l0.11 0.17c0.02,0.05 0.08,0.24 0.08,0.29 0.04,0.24 0.06,0.47 0.08,0.7 0.2,2.15 0.33,0.59 0.22,2.71l0.06 4.56c0.23,0.03 0.19,0.08 0.4,0.11 0.33,0.04 1.08,-0.04 1.41,-0.09 0.58,-0.09 4.13,0.05 4.76,-0.23 0.15,-0.07 0.12,-0.12 0.33,-0.16l0.34 -0.05c0.24,-0.06 0.2,-0.1 0.27,-0.23 0.23,-0.43 0.2,-0.23 0.27,-0.52 0.11,-0.48 0.23,-1.37 0.09,-1.82 -0.01,-0.01 -0.01,-0.02 -0.02,-0.04 0,-0.01 -0.01,-0.03 -0.01,-0.04 -0.07,-0.32 -0.04,-2.04 -0.03,-2.11l0.14 -0.89c0,-0.01 0,-0.02 0.01,-0.03 0,-0.01 0,-0.03 0,-0.04l0.35 -1.37 0.67 -1.55c0.09,-0.17 0.23,-0.28 0.13,-0.47 0.4,-0.04 0.51,-0.47 0.7,-0.74l1.06 -1.71c0.82,-1.27 2.02,-0.76 1.7,-1.7 -0.12,-0.36 -0.22,-0.73 -0.56,-0.99 -0.33,-0.25 -0.96,-0.47 -1.36,-0.53 -0.74,-0.11 -1.93,-0.55 -2.27,-0.55l-2.66 0.12c-0.14,0.02 -0.47,0.03 -0.65,0.07 -0.74,0.14 -1.85,0.13 -2.62,0.15 -0.27,0 -0.33,0.04 -0.61,0.05 -1.39,0.04 -0.81,0.09 -1.28,0.14l0.21 0.07c-0.61,0.06 -1.07,0.59 -1.53,0.85l-0.14 0.09c-0.44,0.43 -0.49,0.35 -0.83,0.54 -0.01,0.01 -0.03,0.01 -0.04,0.02 -0.04,0.03 -0.21,0.21 -0.28,0.27 -0.27,0.24 -0.49,0.19 -0.58,0.29 0,0 -0.08,0.16 -0.08,0.17 -0.35,0.98 0.36,2.36 0.42,3z"/>
    <path class="fil5" d="M47.25 58.68c-0.24,0.04 -0.15,0.01 -0.22,0.08l-0.19 -0.02c0.04,0.31 0.14,0.51 0.17,0.74l0.09 0.3c0.07,0.14 0.13,0.18 0.26,0.26l0.14 0.12c0.24,0.28 0.37,0.51 0.82,0.52l-0.36 0.14c-0.01,0 -0.02,0.01 -0.03,0.01l0.43 0.13 -0.6 0.35c-0.22,0.11 -0.41,0.26 -0.62,0.39 0,0.64 0.52,0.61 0.56,1.3 0.01,0.13 0,0.28 -0.04,0.4 -0.05,0.14 -0.07,0.15 -0.21,0.21 -0.26,0.1 -0.48,0.15 -0.8,0.15 -0.08,0.35 -0.27,0.35 -0.34,0.77 -0.1,0.68 0,0.49 -0.25,0.74 0,0.31 -0.02,0.38 -0.15,0.63l-0.08 0.15c-0.23,0 -0.13,-0.02 -0.33,-0.04 -0.16,0.25 -0.1,0.19 -0.18,0.51 -0.05,0.24 -0.05,0.51 -0.09,0.76 -0.07,0.51 -0.08,1.04 -0.13,1.53 -0.03,0.32 -0.01,0.1 -0.09,0.28 -0.11,0.23 -0.08,0.48 -0.16,0.74 -0.01,0.01 -0.01,0.02 -0.02,0.04l-0.17 0.99c-0.04,0.47 -0.28,1.09 -0.42,1.58 -0.05,0.13 -0.05,0.23 -0.09,0.35l-0.26 0.62c-0.01,0.01 -0.02,0.03 -0.02,0.04 -0.02,0.03 -0.06,0.09 -0.08,0.14 -0.16,0.34 -0.23,0.71 0.21,0.84 0.45,0.14 -0.01,0.21 1.18,0.36 0.24,0.03 0.67,0.09 0.76,-0.11 0.21,-0.08 0.07,0 0.15,-0.58l0.32 -1.84c0.04,-0.19 0.06,-0.39 0.1,-0.51l0.18 -0.86c0.01,-0.12 -0.01,-0.02 0.02,-0.15l0.16 -0.83c0.24,-0.69 0.86,-2.79 0.57,-3.37 -0.22,-0.45 -0.28,-0.38 -0.28,-0.94l0.99 -0.46c0.26,-0.09 0.42,-0.2 0.62,-0.37l2.84 -1.76c0.73,-0.33 1.94,-0.37 2.76,-0.34 0.52,0.01 0.7,0.21 1.24,0.24 0.12,0.19 -0.25,0.02 0.1,0.18 0.19,0.07 0.28,0.05 0.43,0.18l0.07 0.05c0.53,0.37 0.2,-0.04 0.37,0.35 0.27,0.02 0.42,0.09 0.57,0.25 0.06,0.06 0.02,0.03 0.08,0.09l0.22 0.16c0,0.84 -0.37,0.55 -0.27,1.82 0.03,0.28 0.12,0.62 0.15,0.95 0.08,0.91 0.06,3.47 -0.03,4.37 -0.03,0.32 -0.07,0.75 -0.08,1.03l-0.04 -0.31c-0.04,0.42 -0.17,0.98 -0.06,1.35 0.07,0.25 0.12,0.65 0.03,0.93l-0.41 1.75c-0.03,0.12 -0.05,0.15 -0.09,0.29 -0.03,0.09 -0.05,0.19 -0.09,0.31 -0.22,0.71 -0.21,1.24 -0.3,1.85 -0.06,0.38 -0.03,0.01 -0.09,0.29 -0.1,0.47 -0.2,1.9 -0.06,2.3l0.24 0.91c0.16,-0.04 0.45,0.13 0.63,0.19 0.53,0.18 3.26,0.33 3.65,0.03l0.26 -0.25c0.46,-0.35 0.17,-1.29 0.04,-1.84 -0.14,-0.54 -0.24,-1.07 -0.41,-1.59 -0.61,-1.84 -0.28,-2.03 -0.6,-3.38 -0.04,-0.17 -0.08,-0.57 -0.08,-0.82 -0.02,-0.69 0.31,-0.75 0.05,-2.79 -0.08,-0.63 -0.07,-1.62 -0.18,-2.11 -0.29,-1.26 -0.35,-2.6 -0.35,-3.91 0,-0.22 0.01,-0.28 -0.05,-0.45 -0.2,-0.63 0.3,-0.61 0.05,-2.1 -0.1,-0.58 -0.16,-1.13 -0.34,-1.65 -0.09,-0.27 -0.06,-0.58 -0.17,-0.83 -0.14,-0.28 -0.43,-0.21 -0.66,-0.34 0.26,-0.33 0.62,-0.02 0.62,-0.83 -0.01,-0.46 -0.17,-0.72 -0.06,-1.23 -1.56,-0.15 -4.08,0.21 -5.82,0.23 -1.03,0.02 -1.99,0.05 -3,0.05 -0.53,0.01 -2.18,0.16 -2.68,0.29z"/>
    <path class="fil6" d="M58.36 84.44c0.25,0 0.17,-0.04 0.26,-0.06l0.5 -0.04c0.84,-0.07 1.73,0.09 2.34,0.09 1.59,0 3.55,-0.07 4.93,0.67 0.39,0.22 1.08,0.67 0.73,1.18 -0.2,0.3 -1.19,0.39 -1.67,0.44 0.11,0.07 0.02,0.01 0.15,0.06 0.05,0.01 0.09,0.02 0.11,0.03 -0.53,0.12 -1.78,0.13 -2.37,0.13l-1.3 -0.06c-0.94,-0.12 -1.58,-0.12 -2.49,-0.58 -0.44,-0.22 -1.09,-0.38 -1.68,-0.6l-0.63 -0.26c-0.24,-0.13 -0.08,0 -0.16,-0.16 -0.38,0 -0.35,-0.05 -0.64,-0.15 -0.23,-0.08 -0.22,-0.02 -0.5,-0.09 -0.43,-0.12 -0.32,-0.03 -0.52,-0.16 -0.15,-0.1 -0.03,-0.07 -0.28,-0.1 -0.06,-0.01 -0.08,0 -0.15,-0.02 -0.15,-0.03 -0.05,0.01 -0.13,-0.04 0.06,-0.05 0,-0.04 0.14,-0.08l0.59 -0.05c0.39,0 1.49,0.06 1.78,-0.03 0.29,-0.1 0,-0.09 0.37,-0.12l0.62 0zm2.21 -0.82c-0.11,0.12 0.04,0.09 -0.49,0.12 -1.18,0.06 -2.04,0.39 -3,0.52 -0.66,0.08 -1.23,0.07 -1.85,0.2l-1.81 0.25c-0.01,0.47 0.01,0.96 0.01,1.4 0.01,0.11 -0.03,0.44 0,0.65 0.02,0.21 0.05,0.33 0.04,0.62l0.03 0.86c0.06,0.2 0.33,0.41 0.56,0.48 0.12,0.04 0.42,0.18 0.17,0.24 -0.35,0.1 -0.6,-0.1 -1.15,-0.09 0.01,0.25 0.05,0.2 0.07,0.45 0,0 0.01,-0.01 0.02,-0.01l0.03 0c0.01,0 0.02,0 0.02,0l0.45 0.55c0.04,0.07 0.16,0.06 0.45,0.21 0.27,0.14 0.39,0.29 0.6,0.34 0.56,0.12 0.47,-0.13 0.64,0.24l0.77 0.13c0.12,0.02 0.08,0 0.17,0.05 0.22,0.12 0.09,0.15 0.09,0.16 -0.06,0.13 -0.07,-0.1 -0.03,0.04 0.49,0.01 0.52,0.07 0.92,0.14 0.78,0.12 0.52,0.03 0.58,0.2l1.4 0.21c1.16,0.36 4.25,0.17 5.58,0.13 0.73,-0.02 1.6,-0.21 2.22,-0.24 0.1,-0.35 -0.15,0.19 -0.06,-0.1 0.51,-0.12 0.64,-0.36 0.94,-0.39 0.02,0.86 0.15,0.45 -0.09,1.18 -0.17,0.53 -2.15,0.75 -2.68,0.85 -1.28,0.21 -3.45,0.25 -4.82,0.18 -1.66,-0.1 -2.82,-0.43 -4.17,-0.86 -0.95,-0.3 -3.12,-0.85 -3.75,-1.29l0.03 -0.84c0.04,-1.34 0.4,-1.52 0.09,-2.27 -0.14,0.03 -0.12,0.05 -0.13,0.05 -0.66,0.28 -1.2,-0.13 -1.88,-0.13 -0.47,-0.01 -0.61,-0.11 -0.99,-0.17 -0.68,-0.12 -0.74,0.12 -0.74,-0.41 -0.1,0.24 -0.06,0.3 -0.09,0.51 -0.06,0.42 -0.13,0.59 0.37,1.16 0.2,0.22 0.13,0.16 0.17,0.38 0.07,0.45 0.29,0.11 0.16,0.54 -0.17,0.54 -0.2,0.11 -0.24,0.59 -0.22,0.02 -0.27,0.1 -0.43,0.17l-0.66 0.32c-0.14,0.08 -0.3,0.08 -0.5,0.09 -0.03,0.08 -0.01,0.11 -0.01,0.11 0.02,0.14 0.02,0.03 0.03,0.02 -0.23,0.05 -0.44,0.07 -0.65,0.16 -0.51,0.23 -0.67,0.07 -1.38,0.45 -0.1,0.05 -0.1,0.05 -0.24,0.07 -0.84,0.15 -1.64,0.24 -2.55,0.35 -2.2,0.25 -6.09,0.18 -8.29,-0.3 -0.69,-0.15 -0.74,-0.34 -1.41,-0.75 -0.33,-0.21 -0.75,-0.26 -0.95,-0.38 -0.14,-0.08 -0.02,0 -0.12,-0.1 -0.02,-0.01 -0.05,-0.04 -0.06,-0.05 -0.13,-0.1 -0.13,-0.07 -0.19,-0.2 -0.19,-0.4 0.34,-0.66 0.53,-0.77 0.23,-0.14 0.26,-0.09 0.55,-0.16 0.71,-0.16 0.78,-0.82 1.26,-0.87l0 -0.69 -0.34 0.09c-0.78,0.31 -1.65,0.23 -2.8,0.58 -0.94,0.27 -0.15,-0.16 -1.92,0.57l-1.19 0.64c-0.63,0.51 -0.47,0.78 -0.47,1.11 0.32,0.03 0.1,0.06 0.37,0.24l0.5 0.27c0.01,0.01 0.03,0.01 0.04,0.02 0.27,0.1 0.11,0.12 0.41,0.19 0.14,0.03 0.12,0.02 0.23,0.06 0.19,0.05 -0.06,0.01 0.17,0.04 0.14,0.03 0.33,0.01 0.48,0.02l2.07 0.31c0.01,0.01 0.03,0.01 0.05,0.01 0.59,0.12 1.8,0.26 2.12,0.37 0.63,0.21 1.23,0.13 1.74,0.16 0.19,0.01 0.47,0.12 0.84,0.09 0.41,-0.04 0.04,-0.06 0.34,-0.15 0.14,-0.04 0.34,-0.01 0.47,0.02 0.31,0.09 0.09,0.07 0.41,0.03l3.44 0.04c0.07,-0.3 -0.21,0.24 -0.11,-0.1 0.96,0 1.97,0.03 2.87,-0.07 0.87,-0.1 1.8,-0.11 2.78,-0.11 0.04,-0.13 0.1,0.1 -0.06,-0.03 -0.13,-0.11 -0.1,0.06 -0.05,-0.08 0.43,0 1.02,0.04 1.28,0.02 0.13,-0.01 0.26,-0.02 0.38,-0.02 0.05,0 0.11,0 0.16,0.01 0.24,0.04 0.02,0.01 0.13,0.04 0.35,0.12 0.13,0.06 0.55,0.05 0.17,-0.01 0.67,0.11 1.21,0.12l1.11 0.22c0.63,0.07 0.31,0.08 0.61,0.11 0.26,0.03 0.38,0.02 0.61,0.06 0.42,0.08 0.79,0.04 1.27,0.06 0.29,0.01 0.31,0.04 0.62,0.04 0.11,0 1.2,0.21 2.02,0.17 0.44,-0.03 1.5,0.17 2.07,0.17l2.66 0.06c0.91,-0.01 1.81,-0.05 2.66,-0.06 0.87,0 1.69,-0.16 2.52,-0.19 -0.3,0.03 -0.2,-0.03 -0.26,-0.08 0.4,-0.01 0.63,-0.07 1.07,-0.08l0 -0.1c0.25,-0.01 0.23,-0.06 0.49,-0.11 0.25,-0.05 0.31,-0.02 0.42,-0.12 0.18,0.01 -0.03,0.09 -0.06,-0.06 0,-0.02 -0.03,-0.02 -0.04,-0.03 0.26,-0.03 0.23,-0.09 0.32,-0.27 -0.07,-0.17 -0.16,-0.06 -0.19,-0.33 -0.02,-0.12 0.05,-0.82 -0.06,-1.54 -0.04,-0.24 -0.22,-0.68 -0.2,-0.83 0.03,-0.26 0.16,-0.5 0.18,-0.88 0.03,-0.66 0.03,-1.39 0.04,-2.07 0.02,-0.7 -0.09,-1.23 -0.53,-1.59 -0.61,-0.49 -1.97,-1.07 -2.95,-1.28 -1.71,-0.36 -2.71,-0.05 -4.02,-0.11z"/>
    <path class="fil7" d="M53.37 26.2c-0.68,0 -0.59,-0.15 -1.11,0.16 -0.29,0.16 -1.38,0.11 -1.75,0.2l-1.39 0.43c-0.02,0 -0.03,0.01 -0.04,0.01l-0.29 0.11c-0.01,0 -0.03,0.01 -0.04,0.01 -0.32,0.15 -0.36,0.1 -0.64,0.36 -0.14,0.12 -0.84,0.3 -1.1,0.47 -0.28,0.19 -0.12,0.16 -0.12,0.17 -0.22,0.02 -0.26,0.06 -0.43,0.14l-0.27 0.18c-0.01,0.01 -0.04,0.05 -0.05,0.06l-0.26 0.12c-0.01,0.01 -0.02,0.02 -0.04,0.02 -0.01,0.01 -0.05,0.04 -0.06,0.05l-0.39 0.51c-0.21,0.28 -0.39,0.41 -0.4,0.82l0.09 1.75c0.04,0.32 0.03,0.69 0.03,1.03 0.45,0.33 0.43,0.7 1.01,1.26 0.55,0.53 0.42,0.45 1.07,0.87 0.32,0.21 0.5,0.36 0.98,0.35 0.52,0 1.23,0.16 1.77,0.22l3.48 0.07c0.74,0 1.23,-0.14 1.95,-0.11l1.22 -0.16c1.16,-0.24 0.75,-0.06 1.83,-0.55 0.13,-0.06 0.14,-0.07 0.23,-0.11 0.24,-0.09 0.47,-0.21 0.64,-0.41 0.14,-0.17 0.28,-0.16 0.48,-0.36l0.73 -0.59c0.17,-0.16 0.17,-0.24 0.24,-0.44 0.1,-0.27 0.2,-0.13 0.13,-0.41 0.34,-0.02 0.35,-0.25 0.5,-0.51 0.11,-0.19 0.11,-0.37 0.22,-0.61l0.15 -0.45c0,-0.02 0,-0.07 0,-0.08l0.01 -0.65c-0.02,-0.1 -0.03,-0.13 -0.04,-0.18 -0.14,-0.51 -0.17,-0.56 -0.55,-0.9 -0.01,-0.01 -0.02,-0.02 -0.03,-0.03 -0.01,-0.01 -0.05,-0.04 -0.06,-0.05l-0.99 -0.84c0,-0.01 -0.02,-0.02 -0.03,-0.03 -0.05,-0.03 -0.2,-0.11 -0.28,-0.16l-1.91 -0.96c-0.23,-0.09 -0.44,-0.18 -0.7,-0.25 -0.28,-0.08 -0.46,-0.11 -0.77,-0.18 -0.94,-0.18 -0.97,-0.22 -1.97,-0.3l-1.05 -0.05z"/>
    <path class="fil8" d="M47.33 58.04c-0.04,0.16 -0.06,0.46 -0.08,0.64 0.5,-0.13 2.15,-0.28 2.68,-0.29 1.01,0 1.97,-0.03 3,-0.05 1.74,-0.02 4.26,-0.38 5.82,-0.23 -0.11,0.51 0.05,0.77 0.06,1.23 0,0.81 -0.36,0.5 -0.62,0.83 0.23,0.13 0.52,0.06 0.66,0.34 0.11,0.25 0.08,0.56 0.17,0.83 0.18,0.52 0.24,1.07 0.34,1.65 0.25,1.49 -0.25,1.47 -0.05,2.1 0.06,0.17 0.05,0.23 0.05,0.45 0,1.31 0.06,2.65 0.35,3.91 0.11,0.49 0.1,1.48 0.18,2.11 0.26,2.04 -0.07,2.1 -0.05,2.79 0,0.25 0.04,0.65 0.08,0.82 0.32,1.35 -0.01,1.54 0.6,3.38 0.17,0.52 0.27,1.05 0.41,1.59 0.13,0.55 0.42,1.49 -0.04,1.84l-0.26 0.25c-0.39,0.3 -3.12,0.15 -3.65,-0.03 -0.18,-0.06 -0.47,-0.23 -0.63,-0.19l-0.24 -0.91c-0.14,-0.4 -0.04,-1.83 0.06,-2.3 0.06,-0.28 0.03,0.09 0.09,-0.29 0.09,-0.61 0.08,-1.14 0.3,-1.85 0.04,-0.12 0.06,-0.22 0.09,-0.31 0.04,-0.14 0.06,-0.17 0.09,-0.29l0.41 -1.75c0.09,-0.28 0.04,-0.68 -0.03,-0.93 -0.11,-0.37 0.02,-0.93 0.06,-1.35l0.04 0.31c0.01,-0.28 0.05,-0.71 0.08,-1.03 0.09,-0.9 0.11,-3.46 0.03,-4.37 -0.03,-0.33 -0.12,-0.67 -0.15,-0.95 -0.1,-1.27 0.27,-0.98 0.27,-1.82l-0.22 -0.16c-0.06,-0.06 -0.02,-0.03 -0.08,-0.09 -0.15,-0.16 -0.3,-0.23 -0.57,-0.25 -0.17,-0.39 0.16,0.02 -0.37,-0.35l-0.07 -0.05c-0.15,-0.13 -0.24,-0.11 -0.43,-0.18 -0.35,-0.16 0.02,0.01 -0.1,-0.18 -0.54,-0.03 -0.72,-0.23 -1.24,-0.24 -0.82,-0.03 -2.03,0.01 -2.76,0.34l-2.84 1.76c-0.2,0.17 -0.36,0.28 -0.62,0.37l-0.99 0.46c0,0.56 0.06,0.49 0.28,0.94 0.29,0.58 -0.33,2.68 -0.57,3.37l-0.16 0.83c-0.03,0.13 -0.01,0.03 -0.02,0.15l-0.18 0.86c-0.04,0.12 -0.06,0.32 -0.1,0.51l-0.32 1.84c-0.08,0.58 0.06,0.5 -0.15,0.58 -0.09,0.2 -0.52,0.14 -0.76,0.11 -1.19,-0.15 -0.73,-0.22 -1.18,-0.36 -0.44,-0.13 -0.37,-0.5 -0.21,-0.84 0.02,-0.05 0.06,-0.11 0.08,-0.14 0,-0.01 0.01,-0.03 0.02,-0.04l0.26 -0.62c0.04,-0.12 0.04,-0.22 0.09,-0.35 0.14,-0.49 0.38,-1.11 0.42,-1.58l0.17 -0.99c0.01,-0.02 0.01,-0.03 0.02,-0.04 0.08,-0.26 0.05,-0.51 0.16,-0.74 0.08,-0.18 0.06,0.04 0.09,-0.28 0.05,-0.49 0.06,-1.02 0.13,-1.53 0.04,-0.25 0.04,-0.52 0.09,-0.76 0.08,-0.32 0.02,-0.26 0.18,-0.51 0.2,0.02 0.1,0.04 0.33,0.04l0.08 -0.15c0.13,-0.25 0.15,-0.32 0.15,-0.63 0.25,-0.25 0.15,-0.06 0.25,-0.74 0.07,-0.42 0.26,-0.42 0.34,-0.77 0.32,0 0.54,-0.05 0.8,-0.15 0.14,-0.06 0.16,-0.07 0.21,-0.21 0.04,-0.12 0.05,-0.27 0.04,-0.4 -0.04,-0.69 -0.56,-0.66 -0.56,-1.3 0.21,-0.13 0.4,-0.28 0.62,-0.39l0.6 -0.35 -0.43 -0.13c0.01,0 0.02,-0.01 0.03,-0.01l0.36 -0.14c-0.45,-0.01 -0.58,-0.24 -0.82,-0.52l-0.14 -0.12c-0.13,-0.08 -0.19,-0.12 -0.26,-0.26l-0.09 -0.3c-0.03,-0.23 -0.13,-0.43 -0.17,-0.74l0.19 0.02c-0.41,-0.03 -1.11,0.11 -1.41,0.31 -0.1,0.3 0.01,1.48 0.03,1.87 0.04,0.53 -0.11,1.23 -0.17,1.76 -0.08,0.58 -0.16,1.16 -0.2,1.74l-0.08 1.42c0,0.05 -0.01,0.15 -0.02,0.19 -0.07,0.32 0.09,-0.28 -0.03,0.1 0,0.01 -0.01,0.05 -0.02,0.04 0,0 -0.01,0.04 -0.02,0.05 -0.5,0.02 -1.36,-0.04 -1.86,-0.09 -1.47,-0.16 -1.08,0.13 -1.32,-0.59l-0.39 -0.05c0.03,0.05 0.1,0.21 0.14,0.26l0.19 0.14c0,-0.01 0.03,0.01 0.04,0.02l-0.15 0.09c-0.01,0.01 -0.03,0.02 -0.03,0.02 -0.07,0.05 -0.05,0.02 -0.07,0.07l0.68 0.1c0.18,0.08 0.05,0.01 0.12,0.11 0.07,0.09 -0.13,0.13 0.32,0.15l2.3 0.13 -0.18 1.08c-0.13,1.01 -0.33,1.95 -0.55,2.93 0.02,-0.33 -0.04,-0.14 -0.07,-0.13 -0.01,0.31 -0.04,0.52 -0.09,0.81 -0.12,0.63 -0.26,0.75 -0.33,1.04 -0.13,0.53 -0.1,0.53 -0.32,1.12 -0.29,0.73 0.01,1.12 -0.35,1.87l-0.27 0.66c-0.3,0.7 -0.48,1.44 -0.73,2.16l-0.05 0.12c-0.03,0.09 -0.03,0.14 -0.05,0.23 -0.03,0.12 -0.07,0.18 -0.12,0.32 -0.52,1.46 -0.41,2.29 -0.53,2.8 -0.03,0.12 -0.04,0.23 -0.07,0.37 -0.07,0.25 -0.07,0.01 -0.04,0.36 1.02,0.24 2.24,0.31 3.45,0.28 0.04,-0.06 0.03,-0.02 0.05,-0.1 0.01,-0.01 0.01,-0.02 0,-0.04 1.02,-0.04 0.88,-0.32 1.24,-1.13 0.06,-0.13 0.07,-0.12 0.12,-0.28 0.15,-0.56 0.14,-1.68 0.2,-2.4 0.08,-0.78 0.01,-1.89 0.01,-2.71 -0.01,-1.85 0.28,-0.32 0.35,-2.44 0.13,-0.01 -0.13,0.14 0.13,0 0.01,-0.25 0.15,-1.3 0.25,-1.43 0.13,-0.17 -0.01,0.12 0.1,-0.11 0.11,-0.24 -0.02,-0.53 0.26,-1.24 0.15,-0.37 0.17,-1.16 0.32,-1.45 0.4,-0.81 0.46,-2.86 0.6,-3.28 0.15,-0.44 0.52,-0.51 0.73,-0.82 0.3,-0.45 1.09,-0.71 1.48,-1.06 0.21,-0.19 0.07,-0.05 0.32,-0.17 0.2,-0.1 0.16,-0.15 0.34,-0.22l0.35 -0.15c0.17,-0.1 0.18,-0.06 0.37,-0.12l0.2 -0.09c0.01,0 0.02,-0.01 0.03,-0.02 0.56,-0.3 1.86,-0.23 2.52,-0.21l-0.01 0.03c0,0 0,0.02 0,0.02 0.01,0.01 0.01,0.02 0.01,0.04 0.08,0 0.07,0 0.14,0.02l0.47 0.18c0.38,0.11 0.35,0.05 0.65,0.25l0.52 0.36c0.42,0.35 0.01,1.65 0.2,2.34 0.34,1.26 0.14,3.79 0.12,5.08 -0.01,0.31 -0.05,0.5 -0.06,0.84 0,0.32 -0.08,0.44 -0.13,0.74 -0.1,0.54 -0.01,1.39 -0.15,1.79l-0.16 0.72c-0.08,0.26 0.01,0.02 -0.05,0.11 -0.06,0.08 -0.05,0.07 -0.1,0.29 -0.09,0.43 -0.06,-0.07 -0.18,0.71 -0.05,0.32 -0.19,0.35 -0.2,0.68 -0.03,0.49 -0.2,1.06 -0.28,1.5l-0.15 0.74c-0.07,0.3 -0.08,1.15 0.01,1.49 0.05,0.2 0.09,0.46 0.2,0.63 0.36,0.55 0.59,0.56 1.26,0.66 0.55,0.09 1.11,0.1 1.66,0.12 0.46,0.01 1.41,-0.12 1.79,0.01 0.31,0.09 0.73,0 1.02,0 0.3,0 0.34,0.15 0.71,0.04l0.08 -0.04c0.04,-0.21 -0.05,-0.33 -0.12,-0.53 -0.5,-1.49 -1.43,-6.75 -1.54,-7.98l-0.21 -3.22 0.01 -1.42 -0.07 -0.26c-0.09,-1.02 -0.17,-2.27 -0.03,-3.29 0.1,-0.71 -0.04,-2.88 -0.04,-3.75 0,-2.13 0.11,-1.03 0.26,-1.68 0.07,-0.31 -0.04,-0.31 0.33,-0.32l-0.14 -1.5c-0.09,-0.95 -1.09,-0.38 -1.78,-0.56 -0.14,0.07 -0.25,0.03 -0.43,0.04l-0.25 0c-0.08,-0.09 -0.14,-0.25 -0.35,-0.42 -0.11,-0.07 -0.42,-0.2 -0.54,-0.22l-3.07 -0.15c-0.31,-0.01 -0.47,0.01 -0.72,0.07 -0.4,0.08 -1.09,0.05 -1.45,0.05 -0.18,0 -0.08,0.06 -0.31,0.02 -0.13,-0.01 -0.13,-0.05 -0.3,-0.08 -0.37,-0.05 -1.21,-0.02 -1.6,0.01 -1.44,0.08 -1.5,0.13 -2.44,0.73z"/>
    <path class="fil9" d="M53.37 26.2l1.05 0.05c1,0.08 1.03,0.12 1.97,0.3 0.31,0.07 0.49,0.1 0.77,0.18 0.26,0.07 0.47,0.16 0.7,0.25l1.91 0.96c0.08,0.05 0.23,0.13 0.28,0.16 0.01,0.01 0.03,0.02 0.03,0.03l0.99 0.84c0.01,0.01 0.05,0.04 0.06,0.05 0.01,0.01 0.02,0.02 0.03,0.03 0.38,0.34 0.41,0.39 0.55,0.9 0.01,0.05 0.02,0.08 0.04,0.18l-0.01 0.65c0,0.01 0,0.06 0,0.08l-0.15 0.45c-0.11,0.24 -0.11,0.42 -0.22,0.61 -0.15,0.26 -0.16,0.49 -0.5,0.51 0.07,0.28 -0.03,0.14 -0.13,0.41 -0.07,0.2 -0.07,0.28 -0.24,0.44l-0.73 0.59c-0.2,0.2 -0.34,0.19 -0.48,0.36 -0.17,0.2 -0.4,0.32 -0.64,0.41 -0.09,0.04 -0.1,0.05 -0.23,0.11 -1.08,0.49 -0.67,0.31 -1.83,0.55l-1.22 0.16c-0.72,-0.03 -1.21,0.11 -1.95,0.11l-3.48 -0.07c-0.54,-0.06 -1.25,-0.22 -1.77,-0.22 -0.48,0.01 -0.66,-0.14 -0.98,-0.35 -0.65,-0.42 -0.52,-0.34 -1.07,-0.87 -0.58,-0.56 -0.56,-0.93 -1.01,-1.26 0,-0.34 0.01,-0.71 -0.03,-1.03l-0.09 -1.75c0.01,-0.41 0.19,-0.54 0.4,-0.82l0.39 -0.51c0.01,-0.01 0.05,-0.04 0.06,-0.05 0.02,0 0.03,-0.01 0.04,-0.02l0.26 -0.12c0.01,-0.01 0.04,-0.05 0.05,-0.06l0.27 -0.18c0.17,-0.08 0.21,-0.12 0.43,-0.14 0,-0.01 -0.16,0.02 0.12,-0.17 0.26,-0.17 0.96,-0.35 1.1,-0.47 0.28,-0.26 0.32,-0.21 0.64,-0.36 0.01,0 0.03,-0.01 0.04,-0.01l0.29 -0.11c0.01,0 0.02,-0.01 0.04,-0.01l1.39 -0.43c0.37,-0.09 1.46,-0.04 1.75,-0.2 0.52,-0.31 0.43,-0.16 1.11,-0.16zm-9.04 3.42c0.12,0.39 -0.31,1.94 0.28,4.23 0.19,0.72 1.06,2.95 1.59,3.2 0.05,-0.14 0.06,-0.03 0.1,-0.01l0.12 0.08c0.02,0.01 0.03,0.02 0.04,0.02 0.5,0.26 0.24,0.17 0.42,0.31 0.1,0.08 0.42,0.13 0.62,0.22l1.25 0.51c0.12,0.06 0.04,0.02 0.07,0.08 0.61,0.02 1.95,0.44 3.55,0.45l2.5 0c0.27,-0.01 0.06,-0.04 0.28,-0.09 0.22,-0.05 0.21,0.02 0.48,-0.08l0.08 -0.03c0.01,-0.01 0.03,-0.01 0.04,-0.02 0.49,-0.17 0.55,-0.03 1.29,-0.36 0.29,-0.13 0.25,-0.03 0.48,-0.14 0.54,-0.26 0.43,-0.16 0.86,-0.35l0.19 -0.09c0.01,0 0.03,-0.01 0.04,-0.02l0.06 -0.04c0.01,-0.01 0.03,-0.02 0.04,-0.02l1.07 -0.81c0.48,-0.39 0.46,-0.25 0.89,-0.5 0.21,-0.11 0.05,-0.09 0.34,-0.17 0.15,-0.04 0.29,-0.09 0.43,0.02 0.46,-0.34 1.01,-2.61 1.1,-3.13 0.3,-1.9 -0.06,-2.96 -0.02,-3.34 0.02,-0.21 0.1,-0.26 -0.03,-0.44l-0.01 0.25c0.01,-0.65 -0.47,-1.36 -0.8,-1.62 -0.54,-0.43 -1.28,-0.79 -1.93,-1.15 -2.33,-1.29 -4.73,-1.89 -7.55,-1.42 -1.91,0.33 -3.04,0.93 -4.68,1.46 -0.81,0.26 -1.5,0.56 -2.08,1.02 -1.12,0.89 -0.81,1.62 -1.11,1.98z"/>
    <path class="fil10" d="M20.09 78.98c0.05,0.23 -0.03,0.37 -0.02,0.63 0.19,-0.17 0.43,-0.1 0.85,-0.02 0.83,0.15 2.01,0.49 2.75,0.5 1.43,0.02 2.43,0.22 4.12,0.23 0.37,0.01 1.9,-0.11 2.15,-0.24 0.23,-0.1 0.56,-0.36 0.61,-0.61 0.18,-0.86 0.76,-5.35 0.5,-5.61 -0.01,-0.01 -0.03,-0.02 -0.03,-0.01l-0.3 -0.08c-0.07,-0.06 0.05,-0.05 -0.28,-0.18l0.54 0.04c-0.08,-0.1 -6.91,-1.44 -7.4,-1.54l-1.84 -0.37c-0.22,-0.04 -0.42,-0.04 -0.59,-0.2 -0.32,0.04 -0.26,0.19 -0.33,0.78 -0.15,1.25 -0.78,6.21 -0.73,6.68z"/>
    <path class="fil11 str1" d="M68.17 58.16l-0.65 -0.74c0.24,0.34 1,0.79 1.5,1.01 0.4,0.18 1.79,0.41 1.97,0.52 -0.04,0.41 -0.5,0.35 -0.94,0.33 -0.38,-0.01 -0.68,-0.19 -0.94,-0.32 -0.44,-0.21 -1.27,-0.72 -1.51,-1.01 0.24,0.01 0.37,0.11 0.57,0.21zm1.46 -1.97c0.03,-0.23 -0.33,-0.34 -0.53,-0.74 0.18,0.09 0.17,0.13 0.31,0.25l0.69 0.43c1.02,0.64 1.04,0.38 1.93,0.67l0 0.27 -0.33 0.15c-0.02,0 -0.06,0.02 -0.08,0.03 -0.17,0.05 -0.37,0.01 -0.51,-0.03 -0.3,-0.11 -0.53,-0.25 -0.82,-0.39 -0.11,-0.05 -1.41,-0.82 -1.44,-0.96 -0.01,-0.02 -0.02,-0.02 -0.03,-0.05l0.81 0.37zm-0.05 -6.59c0.08,-0.43 2.23,-3.78 2.65,-4.43 0.22,-0.36 0.46,-0.72 0.69,-1.09 0.55,-0.85 1.5,-2.61 2.12,-3.14 0.03,0.06 0.01,-0.01 0.01,0.08 0,0 -0.02,0.15 -0.03,0.15 0.13,-0.06 0.12,-0.08 0.25,-0.06 0.64,0.08 0.51,-0.16 1.24,0.35 0.6,0.42 1.66,1.04 1.33,1.9 -0.2,0.52 -0.72,1.23 -1.05,1.71 -0.2,0.3 -0.34,0.53 -0.55,0.84 -0.18,0.29 -0.36,0.53 -0.52,0.81 -0.31,0.52 -0.76,1.15 -1.12,1.65l-1.26 1.84c-0.15,0.25 -0.29,0.28 -0.44,0.55 -0.2,0.34 -0.43,0.6 -0.61,0.96 -0.03,0.06 -0.02,0.05 -0.05,0.11 -0.13,0.22 -0.04,0.05 -0.15,0.19l-0.13 0.2c-0.03,0.04 -0.04,0.06 -0.07,0.09 -0.04,0.05 -0.07,0.09 -0.07,0.09l-0.24 0.27c-0.19,0.14 -0.12,0.32 -0.32,0.5 -0.14,0.13 -0.43,0.05 -0.56,0.18l-0.04 0.07c-0.28,-0.07 -0.2,-0.09 -0.46,0.03 -0.13,0.06 -0.15,0.1 -0.32,0.09l-0.15 -0.02c-0.37,0.02 -0.24,0.15 -0.25,-0.49 -0.25,0.22 -0.25,0.07 -0.27,0.06 -0.02,-0.1 -0.01,0.01 0.02,-0.08l-0.02 -0.22c0.24,-0.01 0.26,0.02 0.27,-0.21 -0.05,-0.16 0.02,-0.03 -0.08,-0.08 -0.01,0 -0.06,-0.01 -0.06,-0.02 -0.01,0 -0.04,0.01 -0.04,0 -0.01,-0.02 -0.03,-0.01 -0.04,-0.01l0.05 -0.38c0,0 0.01,-0.02 0.01,-0.03 0,0 0,-0.02 0,-0.03l0.46 -1.26c0.09,-0.35 0.21,-0.41 0.25,-0.59 0.05,-0.19 0,-0.12 0.08,-0.32l0.03 -0.08c0,-0.01 0.01,-0.02 0.01,-0.03 0.04,-0.08 0.01,-0.03 0.05,-0.12 0.04,-0.08 0.09,-0.14 0.16,-0.18 0.11,-0.07 0.12,-0.04 0.23,-0.07 -0.01,-0.01 -0.01,-0.03 -0.01,-0.03 0,-0.01 0,-0.03 0,-0.04 0,-0.01 -0.01,-0.06 -0.01,-0.08 0,0 0.02,-0.14 0.02,-0.14 0.08,-0.52 0.31,-0.28 0.47,-0.7 0.05,-0.12 0.05,-0.18 0.09,-0.3 0.01,-0.01 0.01,-0.03 0.02,-0.04 0.06,-0.16 0.1,-0.33 0.23,-0.45l0.33 -0.49c0.04,-0.08 0.06,-0.18 0.1,-0.29l0.28 -0.5c0.04,-0.09 0.07,-0.22 0.1,-0.29 0.11,-0.21 0.05,-0.04 0.19,-0.19 0.12,-0.13 0.03,0.01 0.07,-0.22 0.02,-0.08 0.06,-0.15 0.02,-0.2 -0.29,-0.28 -0.31,0.43 -0.45,0.56 -0.69,0.7 -1.13,1.67 -1.7,2.51l-0.76 1.11zm-2.38 2.68l0.62 -0.87c1.25,-1.88 2.72,-4.26 3.92,-6.18 0.74,-1.2 1.5,-2.37 2.22,-3.54 1.32,-2.16 1.56,-1.78 3.23,-0.52 1.8,1.36 1.12,1.94 0.04,3.62l-6.67 10.28c-0.18,0.22 0.05,0.11 -0.25,0.13 0.1,-0.33 0.53,-0.84 0.75,-1.17 0.27,-0.4 0.48,-0.73 0.75,-1.13l5.18 -7.9c0.25,-0.38 0.5,-0.73 0.74,-1.14 0.22,-0.37 0.54,-0.88 0.28,-1.37 -0.18,-0.36 -0.54,-0.63 -0.89,-0.92 -1.87,-1.55 -2,-1.16 -3.08,0.53 -2.21,3.46 -4.28,6.87 -6.43,10.36 -0.63,1.02 -5.67,8.67 -5.73,9.28l0.27 -0.16c0.1,-0.06 0.14,-0.09 0.23,-0.11 0.2,0.3 0.46,1.44 0.5,1.86 0.04,0.46 0.05,1.67 0.52,1.83l1.75 -2.25c0.18,-0.26 0.33,-0.48 0.51,-0.76 0.36,-0.55 0.7,-1.05 1.06,-1.58 0.33,-0.48 0.7,-1.14 1.04,-1.55 -0.14,-0.09 -0.39,-0.28 -0.46,-0.44 0.57,0.43 1.61,0.97 2.38,1.21 0.52,0.17 0.72,0.02 0.82,0.02 0.31,0.02 0.13,-0.09 0.25,0.12 0.44,-0.17 1.05,-0.55 1.44,-0.89 0.31,-0.27 0.89,-1 1.08,-1.31 0.47,-0.8 0.29,-1.02 0.49,-1.9 0.12,-0.52 0,-0.58 -0.11,-1.03 -0.13,-0.51 -0.01,-0.71 -0.08,-0.95 -0.04,-0.12 -0.04,-0.1 -0.07,-0.14 -0.05,0.09 -0.1,0.14 -0.14,0.22 -0.11,0.23 -0.02,0.15 -0.27,0.48l-0.05 0.09c0.42,-0.06 0.19,-0.21 0.39,-0.26 0.01,0.09 -0.01,0.16 0.01,0.27 0.04,0.28 0.02,0.07 0.08,0.29 0.15,0.54 -0.03,0.81 -0.06,1.21 -0.03,0.47 -0.01,0.52 -0.2,0.57l-0.16 0.03c-0.36,0.05 -0.96,-0.05 -1.33,-0.1 -0.79,-0.09 -1.52,-0.5 -2.12,-0.98 -0.19,-0.15 -0.7,-0.56 -0.77,-0.79 0.27,-0.53 0.7,-0.02 0.97,0.21 0.11,0.09 0.76,0.55 0.97,0.6 -0.05,-0.38 -0.24,-0.4 0,-0.71 0.19,0.07 0.17,0.08 0.28,0.26 0.11,-0.02 0.18,-0.05 0.28,-0.1l0.12 -0.05c0.01,0 0.03,-0.01 0.04,-0.01 0.13,-0.07 0.08,-0.04 0.24,-0.29l4.16 -6.27c0.1,-0.13 0.21,-0.32 0.32,-0.45 0.41,-0.51 0.52,-0.71 0.89,-1.26l0.74 -1.09c0,0 0.05,-0.09 0.06,-0.11l1.09 -1.63c0.37,-0.59 0.89,-1.37 1.37,-1.85 0.13,-0.14 0.25,-0.23 0.36,-0.38 -0.23,0.05 -0.2,0.09 -0.37,0.26 -0.11,0.1 -0.09,0.07 -0.18,0.15 -0.6,0.52 -0.76,0.87 -1.19,1.48l-1.43 2.11c-0.12,0.19 -0.09,0.23 -0.22,0.39l-2.18 3.14c-0.5,0.67 -1.23,1.89 -1.9,2.81 -0.31,0.43 -0.28,0.57 -0.58,0.67 0.07,-0.35 0.85,-1.41 1.09,-1.76 0.29,-0.42 1.69,-2.49 1.74,-2.71l0 -0.07c-0.02,-0.38 0.09,-0.14 0.2,-0.53 0.07,-0.25 0.09,-0.37 0.26,-0.49 0.47,-0.36 0.22,-0.2 0.24,-0.33 0.03,-0.2 0.15,-0.49 0.3,-0.67 0.44,-0.54 0.34,-0.45 0.69,-1.02 0.17,-0.27 0.37,-0.61 0.55,-0.84 0.34,-0.43 0.12,-0.18 0.35,-0.54 0.01,-0.01 0.07,-0.1 0.07,-0.1 0.22,-0.36 0.36,-0.78 0.47,-1.18 0.05,-0.17 0.01,-0.44 -0.14,-0.62 -0.01,-0.01 -0.05,-0.04 -0.06,-0.06 0,0 -0.02,-0.02 -0.02,-0.02 -0.16,-0.15 -0.16,-0.07 -0.27,-0.25 -0.19,-0.29 -0.31,-0.36 -0.57,-0.58 -0.26,-0.21 -0.09,-0.25 -0.23,-0.39 -0.12,-0.11 -0.06,-0.02 -0.24,-0.13l-0.07 -0.04c-0.09,-0.04 -0.64,-0.15 -0.85,-0.57l-0.11 0.14c-0.01,-0.03 -0.01,-0.15 -0.16,-0.19 -0.03,-0.01 -0.13,0.02 -0.26,0.01 -0.31,-0.01 -0.3,-0.18 -0.57,0.14 -0.12,0.14 -0.23,0.21 -0.31,0.39l-1.21 1.85c-0.72,1.12 -1.42,2.28 -2.14,3.41 -0.23,0.36 -4.23,6.58 -4.27,6.81z"/>
    <path class="fil12" d="M33.23 74.7c-0.25,-0.26 -0.22,-0.36 -0.16,-0.79 0.05,-0.32 0.07,-0.64 0.1,-0.95 0.08,-0.76 -0.06,-1.27 0.78,-1.24l0.02 0.07c0.1,0.42 0.09,0.33 0.28,0.35 0.25,0.03 0.46,-0.03 0.66,-0.08 -0.08,0.17 -0.11,0.21 -0.15,0.35l-0.23 2.22 0.25 0.06c-0.26,0.27 -0.22,0.04 -0.2,0.03l-0.01 -0.43c-0.3,-0.07 -0.51,-0.05 -0.82,0.01 -0.08,0.79 0.07,0.57 0.77,0.56 -0.02,0.22 -0.11,0.35 -0.28,0.43 -0.23,0.12 -0.37,0.01 -0.43,0.29 0.21,-0.22 0.03,-0.15 -0.14,-0.19 -0.1,-0.02 -0.23,-0.02 -0.31,0 -0.03,-0.05 -0.13,-0.24 -0.17,-0.32 -0.18,-0.32 -0.05,-0.32 0.04,-0.37zm-1.53 -1.4c-0.38,0.05 -0.9,-0.1 -1.3,-0.18l-9.01 -1.81 -0.1 0.21 -0.14 0c0.17,0.16 0.37,0.16 0.59,0.2l1.84 0.37c0.49,0.1 7.32,1.44 7.4,1.54l1.7 0.14c-0.07,0.17 0.02,0.01 -0.2,0.13 0.09,0.15 -0.11,0.78 -0.19,1.15 -0.09,0.42 -0.12,0.84 -0.21,1.23l-0.36 -0.11c-0.05,0.27 -0.13,0.5 -0.16,0.75 -0.05,0.27 -0.04,0.62 -0.07,0.83 -0.13,0.8 -0.14,0.48 -0.24,1.59 -0.08,0.86 -0.35,2.51 -0.36,3.3l-0.17 0.12c-0.07,0.07 0.03,0.05 -0.08,0.1l0.27 0.01c0.35,0.05 1.37,-0.11 1.76,-0.17l-0.4 0c0.23,-0.22 0.86,-0.18 1.15,-0.25 0.44,-0.09 1.01,-0.07 1.43,-0.29 0.23,-0.12 0.47,-0.14 0.65,-0.35 0.3,-0.32 0.74,-0.05 0.92,-0.31 -0.22,0 -0.3,0 -0.48,-0.08 -0.11,-0.05 -0.14,-0.04 -0.18,-0.13 0.14,-0.06 0.14,-0.25 0.37,-0.39 0.53,0.21 0.34,0.4 1.18,0.4 0.01,-0.41 0.12,-0.14 0.36,-0.31l0.21 -0.29c0.01,-0.01 0.02,-0.02 0.02,-0.03l0.19 -0.38c0.02,-0.16 0.08,-0.22 0.18,-0.37l0.26 -0.91c0.02,-0.2 -0.04,-0.07 0.08,-0.19 0.08,-0.09 0.02,-0.04 0.14,-0.08l-0.04 -0.08c-0.01,-0.01 -0.02,-0.03 -0.02,-0.04 -0.05,-0.11 -0.02,0.08 -0.04,-0.12 -0.03,-0.25 0.02,-0.16 0.06,-0.24 0,-0.01 0.01,-0.03 0.02,-0.04l0.12 -0.32c0.05,-0.29 -0.05,-0.6 0.08,-0.86 0.29,-0.59 0.23,-0.9 0.43,-1.52l0.04 -0.12c0.09,-0.4 0.16,-0.47 0.28,-0.83 0,-0.02 0.01,-0.03 0.01,-0.04l0.04 -0.13c0.06,-0.23 0.12,-0.38 0.35,-0.46l0.19 -0.11c0.2,-0.23 0.47,-0.16 0.75,-0.23 0.34,-0.08 0.7,-0.07 0.96,-0.14 -0.59,0.02 -1.21,0.01 -1.8,0.01 -0.54,-0.01 -1.11,0.05 -1.72,0.05 -1.21,0 -2.26,0.06 -3.49,0.06 0.03,-0.31 0.13,-0.42 0.17,-0.77l0.01 0.36c0.92,0.05 3.99,0.01 4.54,-0.25 0.14,-0.31 -0.07,-0.58 0.19,-0.8 0.21,-0.18 0.04,0.11 0.19,-0.2l0.47 -0.92c0.24,-0.36 0.27,-0.12 0.53,-0.39 0.22,0.06 0.03,0.08 0.33,0.1 0.34,0.03 0.44,-0.09 0.73,-0.14 0.11,-0.03 0.28,-0.02 0.41,-0.03 -0.16,-0.07 -0.34,-0.05 -0.53,-0.05 -0.17,0 -0.33,-0.01 -0.5,-0.02 -0.02,-0.12 0.09,-0.17 -0.16,-0.28 -0.31,-0.14 -4.81,-0.32 -5.39,-0.35 -0.52,-0.03 -1.55,-0.1 -2.03,-0.03l-0.88 0.14c0.56,0.01 4.59,-0.05 5.03,0.08 0.64,0.19 0.44,0.06 1.09,0.17 0.01,0 0.03,0 0.04,0 0.01,0.01 0.02,0.01 0.03,0.01l0.52 0.13c-0.09,0.09 -0.01,0.03 -0.12,0.1 -0.06,0.04 -0.03,0.02 -0.11,0.06 -0.18,0.07 -0.07,-0.01 -0.17,0.07 -0.19,0.14 0.07,0.02 -0.17,0.12 -0.22,0.09 -0.71,0.05 -0.88,0.09 -0.12,0.02 -0.13,0.04 -0.2,0.12l-0.19 0.49c0,0.01 -0.01,0.02 -0.01,0.03l-0.64 1.35c-1.37,0.04 -0.49,0.11 -1.26,0.17 0,-0.5 0.4,-0.96 0.4,-1.26 0,-0.03 -0.19,-0.52 -0.21,-0.58 -0.08,-0.22 -0.15,-0.27 -0.45,-0.29 0.18,-0.22 -0.08,-0.09 0.31,-0.19l0.75 -0.09c-0.53,-0.2 -1.46,-0.19 -2.06,-0.18 -0.13,0.01 -0.27,0.01 -0.39,0.01 -0.4,0.01 -0.28,-0.04 -0.3,-0.05 0.18,0.01 0.35,0.01 0.53,0.01 0.43,0.01 0.38,0.07 0.49,0.21l-0.69 0.07c-0.08,0.01 -0.2,0.03 -0.36,0.04 -0.58,0.04 -0.13,0.33 -0.47,0.7 -0.09,0.1 -0.12,0.11 -0.21,0.23 -0.05,0.07 -0.04,0.06 -0.11,0.12 -0.64,0.64 -0.15,0.94 -0.5,1.5l-1.04 0.11z"/>
    <path class="fil13" d="M44.9 67.68c-0.04,0.06 -0.02,0.01 -0.07,0.13 -0.01,0.02 -0.03,0.07 -0.03,0.09 -0.02,0.04 -0.04,0.13 -0.05,0.17 -0.14,0.55 -0.53,2.11 -0.68,2.44l-0.92 3.04c-0.18,0.47 -0.36,1.03 -0.48,1.47 -0.31,1.09 -1.68,4.37 -2.21,5.54 -0.11,0.25 -0.2,0.43 -0.32,0.68 -0.16,0.33 -0.19,0.52 -0.4,0.62l0 0.36c0.63,0.13 1.15,0.25 1.85,0.31 -0.09,0.45 -0.31,0.7 -0.6,0.88 -0.41,0.25 -0.59,0.12 -1.25,0.1 -1.69,-0.07 -3.33,0.16 -4.78,0.98 -0.78,0.44 -0.94,1.39 -0.75,2.03 0.07,0.16 0,0.04 0.06,-0.11l0.08 -0.16c0,-0.01 0.01,-0.02 0.02,-0.02l0.1 -0.68c0.07,-0.55 0.29,-0.47 1,-0.83l0.96 -0.44c0.01,0 0.02,-0.01 0.03,-0.02l0.99 -0.33c0.01,0 0.04,-0.02 0.05,-0.03 0.01,0 0.02,-0.01 0.03,-0.02 0.22,-0.11 0.73,-0.18 1.04,-0.19 0.49,-0.02 1,-0.1 1.5,-0.11 0.98,-0.01 1.99,0.06 2.92,0.24 1.53,0.3 0.99,0.29 2.73,0.41 0.95,0.06 1.97,0.13 2.77,0.38 0,0.32 0.08,0.66 0.17,0.9l0.18 0.32c-0.01,-0.38 0.03,-1.12 -0.08,-1.43 -0.11,-0.35 -0.46,-0.47 -0.87,-0.59 -1.74,-0.5 -1.86,-0.13 -1.96,-1 0.2,0.01 0.42,0.03 0.56,-0.05 -0.51,-0.14 -0.85,0.31 -1.38,0.09 -0.2,-0.08 0.02,0.08 -0.15,-0.11 1.22,0 1.69,-0.02 1.87,-0.96 0.09,-0.52 0.33,-0.8 0.24,-1.7l-0.1 -4.73c-0.01,-2.26 0.09,-1.31 0.44,-2.76 0.21,-0.9 0.34,-1.09 0.59,-1.89 0.06,-0.2 0.11,-0.43 0.16,-0.61 0.14,-0.43 0.27,-0.77 0.41,-1.2 0.46,-1.41 0.32,-2.48 0.42,-2.81 0.04,-0.16 0.55,-0.74 0.71,-0.88 0.66,-0.59 1.19,-0.62 1.54,-0.9 0.2,-0.17 0.24,-0.14 0.56,-0.21 0.21,-0.05 0.43,-0.15 0.63,-0.2 0.65,-0.18 1.47,-0.28 2.16,-0.23 2.01,0.15 1.55,1 1.6,1.6 0.04,0.45 0.17,0.98 0.2,1.39 0.05,0.54 0.07,0.99 0.08,1.55 0.01,1.09 0.07,2.07 0.06,3.16 -0.01,1.96 -0.01,1.19 -0.3,2.56 -0.02,0.13 -0.02,0.23 -0.05,0.34 -0.06,0.22 -0.13,0.32 -0.19,0.63 -0.02,0.14 -0.05,0.59 -0.09,0.7 -0.07,0.23 -0.04,0 -0.15,0.26l-0.38 1.63c-0.06,0.27 -0.06,0.39 -0.09,0.69 -0.21,1.88 -0.32,0.81 -0.29,2.95 0.01,0.52 -0.09,0.8 0.59,1.05l-0.09 0.03 0.15 0.12c-0.13,0.55 -0.2,0.61 0.05,0.97 -0.17,0.19 -0.23,0.33 -0.46,0.46 -0.23,0.13 -1.71,0.21 -2.32,0.61 -0.45,0.29 -0.39,0.96 -0.39,1.58 0,0.68 -0.01,1.31 0.03,1.99 0.31,0.75 -0.05,0.93 -0.09,2.27l-0.03 0.84c0.63,0.44 2.8,0.99 3.75,1.29 1.35,0.43 2.51,0.76 4.17,0.86 1.37,0.07 3.54,0.03 4.82,-0.18 0.53,-0.1 2.51,-0.32 2.68,-0.85 0.24,-0.73 0.11,-0.32 0.09,-1.18 -0.3,0.03 -0.43,0.27 -0.94,0.39 -0.09,0.29 0.16,-0.25 0.06,0.1 -0.62,0.03 -1.49,0.22 -2.22,0.24 -1.33,0.04 -4.42,0.23 -5.58,-0.13l-1.4 -0.21c-0.06,-0.17 0.2,-0.08 -0.58,-0.2 -0.4,-0.07 -0.43,-0.13 -0.92,-0.14 -0.04,-0.14 -0.03,0.09 0.03,-0.04 0,-0.01 0.13,-0.04 -0.09,-0.16 -0.09,-0.05 -0.05,-0.03 -0.17,-0.05l-0.77 -0.13c-0.17,-0.37 -0.08,-0.12 -0.64,-0.24 -0.21,-0.05 -0.33,-0.2 -0.6,-0.34 -0.29,-0.15 -0.41,-0.14 -0.45,-0.21l-0.45 -0.55c0,0 -0.01,0 -0.02,0l-0.03 0c-0.01,0 -0.02,0.01 -0.02,0.01 -0.02,-0.25 -0.06,-0.2 -0.07,-0.45 0.55,-0.01 0.8,0.19 1.15,0.09 0.25,-0.06 -0.05,-0.2 -0.17,-0.24 -0.23,-0.07 -0.5,-0.28 -0.56,-0.48l-0.03 -0.86c0.01,-0.29 -0.02,-0.41 -0.04,-0.62 -0.03,-0.21 0.01,-0.54 0,-0.65 0,-0.44 -0.02,-0.93 -0.01,-1.4l1.81 -0.25c0.62,-0.13 1.19,-0.12 1.85,-0.2 0.96,-0.13 1.82,-0.46 3,-0.52 0.53,-0.03 0.38,0 0.49,-0.12 -0.26,-0.23 -0.46,-0.6 -0.26,-1.12 -0.38,-0.13 -1.33,0 -1.79,-0.01 -0.55,-0.02 -1.11,-0.03 -1.66,-0.12 -0.67,-0.1 -0.9,-0.11 -1.26,-0.66 -0.11,-0.17 -0.15,-0.43 -0.2,-0.63 -0.09,-0.34 -0.08,-1.19 -0.01,-1.49l0.15 -0.74c0.08,-0.44 0.25,-1.01 0.28,-1.5 0.01,-0.33 0.15,-0.36 0.2,-0.68 0.12,-0.78 0.09,-0.28 0.18,-0.71 0.05,-0.22 0.04,-0.21 0.1,-0.29 0.06,-0.09 -0.03,0.15 0.05,-0.11l0.16 -0.72c0.14,-0.4 0.05,-1.25 0.15,-1.79 0.05,-0.3 0.13,-0.42 0.13,-0.74 0.01,-0.34 0.05,-0.53 0.06,-0.84 0.02,-1.29 0.22,-3.82 -0.12,-5.08 -0.19,-0.69 0.22,-1.99 -0.2,-2.34l-0.52 -0.36c-0.3,-0.2 -0.27,-0.14 -0.65,-0.25l-0.47 -0.18c-0.07,-0.02 -0.06,-0.02 -0.14,-0.02 0,-0.02 0,-0.03 -0.01,-0.04 0,0 0,-0.02 0,-0.02l0.01 -0.03c-0.66,-0.02 -1.96,-0.09 -2.52,0.21 -0.01,0.01 -0.02,0.02 -0.03,0.02l-0.2 0.09c-0.19,0.06 -0.2,0.02 -0.37,0.12l-0.35 0.15c-0.18,0.07 -0.14,0.12 -0.34,0.22 -0.25,0.12 -0.11,-0.02 -0.32,0.17 -0.39,0.35 -1.18,0.61 -1.48,1.06 -0.21,0.31 -0.58,0.38 -0.73,0.82 -0.14,0.42 -0.2,2.47 -0.6,3.28 -0.15,0.29 -0.17,1.08 -0.32,1.45 -0.28,0.71 -0.15,1 -0.26,1.24 -0.11,0.23 0.03,-0.06 -0.1,0.11 -0.1,0.13 -0.24,1.18 -0.25,1.43 -0.26,0.14 0,-0.01 -0.13,0 -0.07,2.12 -0.36,0.59 -0.35,2.44 0,0.82 0.07,1.93 -0.01,2.71 -0.06,0.72 -0.05,1.84 -0.2,2.4 -0.05,0.16 -0.06,0.15 -0.12,0.28 -0.36,0.81 -0.22,1.09 -1.24,1.13 0.01,0.02 0.01,0.03 0,0.04 -0.02,0.08 -0.01,0.04 -0.05,0.1 -1.21,0.03 -2.43,-0.04 -3.45,-0.28 -0.03,-0.35 -0.03,-0.11 0.04,-0.36 0.03,-0.14 0.04,-0.25 0.07,-0.37 0.12,-0.51 0.01,-1.34 0.53,-2.8 0.05,-0.14 0.09,-0.2 0.12,-0.32 0.02,-0.09 0.02,-0.14 0.05,-0.23l0.05 -0.12c0.25,-0.72 0.43,-1.46 0.73,-2.16l0.27 -0.66c0.36,-0.75 0.06,-1.14 0.35,-1.87 0.22,-0.59 0.19,-0.59 0.32,-1.12 0.07,-0.29 0.21,-0.41 0.33,-1.04 0.05,-0.29 0.08,-0.5 0.09,-0.81 0.03,-0.01 0.09,-0.2 0.07,0.13 0.22,-0.98 0.42,-1.92 0.55,-2.93z"/>
    <path class="fil14" d="M90.22 30.41c-0.01,0.01 -0.03,0.02 -0.03,0.05 -0.01,0.06 -0.05,0 -0.12,0.26 -0.03,0.1 -0.05,0.21 -0.08,0.31l-0.5 1.82c-0.34,1.21 -0.39,1.32 -1.19,1.96 -1.05,0.85 -2.77,1.67 -4.29,1.98 -0.04,0.1 0,-0.03 0,0.06l0 0.09c-0.13,0.01 -0.17,0.02 -0.28,0.05 -0.59,0.15 -0.13,0.23 -0.89,0.07 -0.23,-0.05 -0.48,0.01 -0.71,-0.02 -0.18,-0.01 -0.14,-0.03 -0.28,-0.09 -0.25,-0.12 -0.49,-0.17 -0.77,-0.23 -0.53,-0.11 -0.01,-0.07 -0.79,-0.37l-0.45 -0.16c-0.16,-0.06 -0.05,-0.09 -0.39,-0.23 -0.39,-0.16 -0.04,0 -0.37,-0.28 -0.33,-0.29 0.08,-0.01 -0.43,-0.41 -0.29,-0.23 -0.4,-0.42 -0.52,-0.53 -0.36,-0.32 0,-0.03 -0.23,-0.37 -0.22,-0.31 -0.31,-0.29 -0.56,-0.84l-0.32 -0.53c-0.08,0.22 0,0.04 -0.28,0.17 -0.11,0.36 0.07,-0.03 0.01,0.16 -0.3,0.14 -0.12,-0.03 -0.25,0.21 -0.12,0.21 -0.06,0.27 -0.16,0.42l-0.09 0.22c-0.01,0.35 -0.19,0.68 -0.23,0.86 -0.04,0.15 0.02,0.16 0.03,0.34 0.03,0.27 -0.01,-0.01 -0.06,0.35 -0.26,1.81 -1.45,3.69 -2.34,5.19 -0.28,0.48 -0.46,0.74 -0.6,1.28 -0.12,0.5 -0.03,0.32 -0.36,0.61 -0.23,0.19 -1,1.2 -1.19,1.56 -0.18,0.35 -0.13,0.31 -0.36,0.6l-1.4 2.34c-0.03,0.11 0,0.06 -0.06,0.18l-0.45 0.72c-0.06,0.1 -0.06,0.39 -0.38,0.95 -0.17,0.3 0.06,0.07 -0.26,0.57 -0.3,0.48 -1.74,2.67 -1.82,2.91 0.14,-0.06 0.13,-0.08 0.21,-0.19 0.18,-0.22 0.01,-0.12 0.22,-0.17 0.04,-0.23 4.04,-6.45 4.27,-6.81 0.72,-1.13 1.42,-2.29 2.14,-3.41l1.21 -1.85c0.08,-0.18 0.19,-0.25 0.31,-0.39 0.27,-0.32 0.26,-0.15 0.57,-0.14 0.13,0.01 0.23,-0.02 0.26,-0.01 0.15,0.04 0.15,0.16 0.16,0.19l0.11 -0.14c0.21,0.42 0.76,0.53 0.85,0.57l0.07 0.04c0.18,0.11 0.12,0.02 0.24,0.13 0.14,0.14 -0.03,0.18 0.23,0.39 0.26,0.22 0.38,0.29 0.57,0.58 0.11,0.18 0.11,0.1 0.27,0.25 0,0 0.02,0.02 0.02,0.02 0.01,0.02 0.05,0.05 0.06,0.06 0.15,0.18 0.19,0.45 0.14,0.62 -0.11,0.4 -0.25,0.82 -0.47,1.18 0,0 -0.06,0.09 -0.07,0.1 -0.23,0.36 -0.01,0.11 -0.35,0.54 -0.18,0.23 -0.38,0.57 -0.55,0.84 -0.35,0.57 -0.25,0.48 -0.69,1.02 -0.15,0.18 -0.27,0.47 -0.3,0.67 -0.02,0.13 0.23,-0.03 -0.24,0.33 -0.17,0.12 -0.19,0.24 -0.26,0.49 -0.11,0.39 -0.22,0.15 -0.2,0.53l0 0.07c-0.05,0.22 -1.45,2.29 -1.74,2.71 -0.24,0.35 -1.02,1.41 -1.09,1.76 0.3,-0.1 0.27,-0.24 0.58,-0.67 0.67,-0.92 1.4,-2.14 1.9,-2.81l2.18 -3.14c0.13,-0.16 0.1,-0.2 0.22,-0.39l1.43 -2.11c0.43,-0.61 0.59,-0.96 1.19,-1.48 0.09,-0.08 0.07,-0.05 0.18,-0.15 0.17,-0.17 0.14,-0.21 0.37,-0.26 0.19,-0.15 0.36,-0.3 0.57,-0.47l1.41 -0.8c0.25,-0.1 0.52,-0.22 0.77,-0.29 0.15,-0.21 0.45,-0.21 0.9,-0.42 0.15,-0.06 0.3,-0.19 0.42,-0.24 0.13,-0.05 0.38,-0.08 0.53,-0.13 0.65,-0.23 0.46,-0.54 1.78,-0.91l1.23 -0.75c0.14,-0.1 0.26,-0.16 0.42,-0.25 0.26,-0.16 0.5,-0.41 0.72,-0.6 0.7,-0.62 1.07,-1.13 1.45,-1.49 0.01,-0.01 0.08,-0.07 0.09,-0.08l0.73 -1.08c0,-0.01 0.01,-0.02 0.02,-0.03 0.01,-0.01 0.01,-0.03 0.02,-0.04l0.06 -0.1c0.01,-0.01 0.02,-0.03 0.02,-0.04l0.29 -1.03c0.34,-1.06 0.51,-2.97 0.26,-4.16 -0.04,-0.21 -0.03,-0.37 -0.15,-0.53 0.07,0.84 0.25,1.53 0.15,2.45 -0.06,0.61 -0.17,1.56 -0.4,2.13 -0.14,0.35 -0.39,1.06 -0.64,1.3 -0.14,0.13 -0.16,0.17 -0.27,0.33 -0.55,0.81 -0.91,0.98 -1.19,1.37l-0.57 0.02 -0.06 0.22c-0.18,-0.03 -0.21,-0.01 -0.28,-0.12l-0.04 -0.07c0,-0.01 -0.01,-0.02 -0.01,-0.03l-0.04 -0.1c-0.03,-0.35 0.04,0.05 0.34,-0.46 -0.27,0.02 -0.55,0.04 -0.37,-0.26 0.09,-0.14 0.22,-0.13 0.32,-0.37l0.11 -0.24c0.07,-0.25 -0.01,0.07 -0.02,-0.17 -0.01,-0.2 0,-0.21 0.17,-0.27 -0.12,-0.08 -0.07,0 -0.08,-0.16 -0.01,-0.1 0.01,-0.11 0.04,-0.23 0.17,-0.81 0.73,-2.76 0.75,-3.1z"/>
    <path class="fil15" d="M21.29 71.52l0.1 -0.21 9.01 1.81c0.4,0.08 0.92,0.23 1.3,0.18 1.3,-0.18 0.87,-0.41 1.16,-2.6 0.32,-0.05 0.51,-0.08 0.71,-0.3l-1.31 -0.09c-0.05,-0.22 0.06,0.19 0.02,-0.12 -0.01,-0.07 0.04,0 -0.06,-0.13 -0.2,-0.27 -0.31,-0.04 -0.54,-0.44 -0.07,-0.12 -0.09,-0.16 -0.17,-0.28 -0.13,-0.21 -0.23,-0.39 -0.35,-0.59 -0.14,-0.24 -0.22,-0.37 -0.35,-0.59l-1.04 -1.78c-0.01,-0.03 -0.14,-0.32 -0.14,-0.32l-0.03 -0.19 0.35 -0.04c-0.02,-0.01 -0.03,-0.01 -0.05,-0.02 -0.23,-0.09 -0.49,-0.08 -0.74,-0.11l-2.25 -0.3c-3.66,-0.49 -2.84,-0.6 -3.56,0.33l-1.51 1.87c-0.44,0.54 -0.56,0.7 -0.66,1.6 -0.07,0.57 -0.23,1.51 -0.21,2.05l0.33 0.12 -0.01 0.15z"/>
    <path class="fil16" d="M34.85 89.54c0,-0.42 0.23,-0.31 0.85,-0.24 1.92,0.22 6.17,0.36 7.93,0.34 -0.13,0.21 -0.01,0.04 -0.2,0.16 -0.11,0.08 -0.11,0.09 -0.21,0.17 -0.02,0.02 -0.09,0.07 -0.1,0.08 -0.72,0.53 -0.34,0.34 -0.66,0.61l-0.32 0.24c-0.88,0.57 -2.03,0.54 -3.07,0.54l-1.47 -0.09c-0.35,-0.05 -0.39,0 -0.65,-0.13l-0.51 -0.29c-0.01,0 -0.02,-0.01 -0.03,-0.01 0,0 -0.01,-0.01 -0.02,-0.01l-0.44 -0.3c-0.04,-0.04 -0.04,-0.05 -0.11,-0.12 -0.04,-0.04 -0.15,-0.12 -0.21,-0.17 -0.47,-0.38 -0.45,-0.17 -0.64,-0.53 -0.03,-0.06 -0.14,-0.24 -0.14,-0.25zm2.04 -4.87c0.07,-0.11 0.22,-0.14 0.36,-0.17l0.88 -0.22c0.32,-0.14 0.92,-0.04 1.28,-0.17 0.54,-0.21 0.36,-0.03 0.79,-0.15 0.14,-0.04 -0.07,-0.01 0.11,-0.04l1.92 0.03c0.35,0.04 0.29,0.15 1.25,0.15 0.52,0 0.82,0.29 1.85,0.29 0.47,0 0.98,-0.02 1.35,0.09 -0.05,0.14 0.02,0.08 -0.29,0.2 -0.13,0.05 -0.16,0.07 -0.27,0.16l-0.93 0.62c-0.01,0 -0.03,0.01 -0.04,0.01l-0.11 0.02c-0.24,0.04 -0.36,0.14 -0.59,0.24 -0.05,0.13 0.2,0.05 -0.11,0.26 -0.12,0.08 -0.66,0.37 -0.89,0.42 -0.01,0.01 -0.03,0.01 -0.03,0.01 -0.21,0.05 -0.25,0.05 -0.29,0.47 -0.01,0.18 0.01,0.36 -0.02,0.53 -0.03,0.2 -0.25,1.13 -0.38,1.34l-0.05 0.06c-0.09,0.11 -0.1,0.08 -0.17,0.11l-0.17 0.11c-0.04,0.02 -0.01,0.03 -0.12,0.06 -0.39,0.12 -1.39,0.05 -1.61,0.07 -0.32,0.01 -0.78,0.02 -1.1,0 -0.69,-0.06 -1.31,-0.1 -2.1,-0.12 -0.39,0 -1.11,-0.16 -1.4,-0.28l-0.15 -0.07c-0.34,-0.12 -0.49,-0.16 -0.69,-0.52 -0.01,-0.01 -0.02,-0.03 -0.02,-0.04 -0.01,-0.01 -0.02,-0.03 -0.02,-0.04 -0.01,-0.01 -0.02,-0.02 -0.02,-0.03l-0.04 -0.08c0,-0.01 -0.01,-0.02 -0.02,-0.03 -0.14,-0.27 -0.21,-0.54 -0.11,-0.93 0.03,-0.08 -0.01,0.01 0.04,-0.09 0.01,-0.01 0.03,-0.05 0.04,-0.06 0.28,-0.51 0.04,-0.66 0.05,-1.28 0.01,0 0.03,-0.02 0.04,-0.02l0.06 -0.05c0.16,-0.14 0.14,-0.22 0.28,-0.28 0.15,-0.08 0.13,0.01 0.85,-0.36 0.18,-0.1 0.3,-0.11 0.56,-0.12l0.03 -0.1zm-2.68 1.85c-0.01,0.02 -0.01,0.04 -0.02,0.05l-0.04 0.14c0,0.02 -0.01,0.14 -0.01,0.17l-0.03 1.04 0 0.69c-0.48,0.05 -0.55,0.71 -1.26,0.87 -0.29,0.07 -0.32,0.02 -0.55,0.16 -0.19,0.11 -0.72,0.37 -0.53,0.77 0.06,0.13 0.06,0.1 0.19,0.2 0.01,0.01 0.04,0.04 0.06,0.05 0.1,0.1 -0.02,0.02 0.12,0.1 0.2,0.12 0.62,0.17 0.95,0.38 0.67,0.41 0.72,0.6 1.41,0.75 2.2,0.48 6.09,0.55 8.29,0.3 0.91,-0.11 1.71,-0.2 2.55,-0.35 0.14,-0.02 0.14,-0.02 0.24,-0.07 0.71,-0.38 0.87,-0.22 1.38,-0.45 0.21,-0.09 0.42,-0.11 0.65,-0.16 -0.01,0.01 -0.01,0.12 -0.03,-0.02 0,0 -0.02,-0.03 0.01,-0.11 0.2,-0.01 0.36,-0.01 0.5,-0.09l0.66 -0.32c0.16,-0.07 0.21,-0.15 0.43,-0.17 0.04,-0.48 0.07,-0.05 0.24,-0.59 0.13,-0.43 -0.09,-0.09 -0.16,-0.54 -0.04,-0.22 0.03,-0.16 -0.17,-0.38 -0.5,-0.57 -0.43,-0.74 -0.37,-1.16 0.03,-0.21 -0.01,-0.27 0.09,-0.51l0.03 -1.44 -0.18 -0.32c-0.09,-0.24 -0.17,-0.58 -0.17,-0.9 -0.8,-0.25 -1.82,-0.32 -2.77,-0.38 -1.74,-0.12 -1.2,-0.11 -2.73,-0.41 -0.93,-0.18 -1.94,-0.25 -2.92,-0.24 -0.5,0.01 -1.01,0.09 -1.5,0.11 -0.31,0.01 -0.82,0.08 -1.04,0.19 -0.01,0.01 -0.02,0.02 -0.03,0.02 -0.01,0.01 -0.04,0.03 -0.05,0.03l-0.99 0.33c-0.01,0.01 -0.02,0.02 -0.03,0.02l-0.96 0.44c-0.71,0.36 -0.93,0.28 -1,0.83l-0.1 0.68c-0.01,0 -0.02,0.01 -0.02,0.02l-0.08 0.16c-0.06,0.15 0.01,0.27 -0.06,0.11z"/>
    <path class="fil17" d="M39.35 61.42c0.14,0.34 0.05,0.99 0.05,1.41 0.1,0.13 -0.07,0.04 0.22,0.1 0.11,0.01 0.15,0.02 0.22,0.01l0.28 0.03c0.14,0.31 0.25,0.11 0.32,0.47l0.14 1.43c0.04,0.54 0.05,0.46 0.21,0.56 0.27,0 0.57,0.05 0.75,0.08l0.39 0.05c0.24,0.72 -0.15,0.43 1.32,0.59 0.5,0.05 1.36,0.11 1.86,0.09 0.01,-0.01 0.02,-0.05 0.02,-0.05 0.01,0.01 0.02,-0.03 0.02,-0.04 0.12,-0.38 -0.04,0.22 0.03,-0.1 0.01,-0.04 0.02,-0.14 0.02,-0.19l0.08 -1.42c0.04,-0.58 0.12,-1.16 0.2,-1.74 0.06,-0.53 0.21,-1.23 0.17,-1.76 -0.02,-0.39 -0.13,-1.57 -0.03,-1.87 0.3,-0.2 1,-0.34 1.41,-0.31 0.07,-0.07 -0.02,-0.04 0.22,-0.08 0.02,-0.18 0.04,-0.48 0.08,-0.64 -0.28,-0.06 -0.56,-0.07 -0.81,-0.14 -0.12,-0.04 -0.25,-0.08 -0.36,-0.15 -0.21,-0.13 -0.11,0.02 -0.18,-0.27 -0.14,-0.4 0.22,-1.49 0.31,-1.95 0.13,-0.62 0.22,-1.4 0.18,-2.07 -0.04,-0.54 -0.31,-3.83 -0.42,-4.08 -0.22,1.39 -0.68,3.21 -1.6,4.2 -0.58,0.62 -2.4,4.44 -2.85,5.29 -0.27,0.51 -0.45,1.1 -0.75,1.58 -0.4,0.66 -0.51,0.89 -1.49,0.63l-0.01 0.34z"/>
    <path class="fil17" d="M52.18 77.89c0.05,0.3 -0.14,2.24 -0.25,2.45 -0.31,0.12 -3.87,0.57 -4.26,0.54 -0.04,0.38 0.12,1.23 -0.02,1.5 -0.15,0.32 -0.78,0.46 -1.16,0.38 -0.14,0.08 -0.36,0.06 -0.56,0.05 0.1,0.87 0.22,0.5 1.96,1 0.41,0.12 0.76,0.24 0.87,0.59 0.11,0.31 0.07,1.05 0.08,1.43l-0.03 1.44c0,0.53 0.06,0.29 0.74,0.41 0.38,0.06 0.52,0.16 0.99,0.17 0.68,0 1.22,0.41 1.88,0.13 0.01,0 -0.01,-0.02 0.13,-0.05 -0.04,-0.68 -0.03,-1.31 -0.03,-1.99 0,-0.62 -0.06,-1.29 0.39,-1.58 0.61,-0.4 2.09,-0.48 2.32,-0.61 0.23,-0.13 0.29,-0.27 0.46,-0.46 -0.25,-0.36 -0.18,-0.42 -0.05,-0.97l-0.15 -0.12c-0.24,0.01 -0.4,-0.04 -0.64,-0.12 -0.28,-0.1 -0.41,-0.13 -0.5,-0.31 -0.11,-0.27 0.46,-2.45 0.56,-2.89 0.14,-0.61 0.63,-2.41 0.62,-2.91 -0.13,-0.06 -0.07,-0.06 -0.17,-0.17 -0.09,-0.09 -0.09,-0.09 -0.16,-0.17 -0.13,-0.15 -0.24,-0.26 -0.32,-0.43 -0.27,-0.11 -0.49,-0.4 -0.82,-0.59 -0.32,-0.18 -0.55,-0.27 -0.97,-0.37 -0.32,0 -0.28,-0.03 -0.34,0.33l-0.43 2.34c-0.03,0.24 -0.01,0.8 -0.14,0.98z"/>
    <path class="fil18" d="M62.72 67.99c0.07,-0.32 0.32,-0.58 0.49,-1.24 0.13,-0.54 0.93,-1.66 1.27,-2.23 0.22,-0.39 0.4,-0.76 0.65,-1.13l2.76 -4.27c0.18,0.07 0.33,0.18 0.52,0.26l-1.49 2.54c-0.31,0.38 -1.47,2.25 -1.86,2.79l-1.57 2.21c-0.2,0.3 -0.5,0.87 -0.77,1.07zm4.48 -15.71c-0.05,0.26 -0.58,0.98 -0.74,1.26 -1.24,2.13 -3,4.7 -4.34,6.86l-1.19 1.85c0.15,-0.39 0.3,-0.63 0.45,-1.06 0.13,-0.4 0.2,-0.83 0.4,-1.2 0.19,-0.35 0.4,-0.64 0.57,-0.98l1.77 -3c0.19,-0.31 1.15,-1.81 1.19,-1.98 0.06,-0.29 0.35,-0.71 0.56,-1.01 -0.07,0.14 -0.13,0.2 -0.25,0.28l-0.21 -0.19c-0.47,-0.39 -0.5,-0.85 -1.17,-1.48l-0.72 -0.56c-0.32,-0.28 -0.71,-0.99 -0.83,-1.39 -0.1,-0.31 -0.07,-0.08 -0.21,-0.34 -0.23,-0.44 -0.19,-0.6 -0.35,-0.87 -0.11,-0.18 -0.08,-0.19 -0.11,-0.44 -0.23,-0.09 -0.01,0.05 -0.3,-0.26 -0.29,-0.3 -0.22,-0.31 -0.39,-0.49l-0.74 -0.76c-0.12,-0.13 0.1,-0.13 -0.27,-0.12 -0.05,0.74 0.26,0.19 0.58,0.63 0.02,0.06 0.39,0.69 0.48,0.86 0.16,0.34 0.28,0.61 0.44,0.95 0.31,0.65 0.56,1.28 0.89,1.93 0.95,1.86 1.22,1.67 2.29,2.64 0.14,0.13 0.25,0.23 0.4,0.33 -0.11,0.28 -3.17,5.15 -3.47,5.63l-1.18 1.83 -0.04 -1.15c-0.37,0.01 -0.26,0.01 -0.33,0.32 -0.15,0.65 -0.26,-0.45 -0.26,1.68 0,0.87 0.14,3.04 0.04,3.75 -0.14,1.02 -0.06,2.27 0.03,3.29l0.07 0.26c0.15,-0.55 -0.12,-2.21 0.03,-3.1l0.38 -2.32c0.09,-0.24 0.03,-0.14 0.25,-0.23 0.12,0.56 0.01,0.97 0,1.51 0,0.22 0.03,0.6 0.02,0.79 -0.02,0.14 0,-0.02 -0.03,0.1 -0.01,0.05 -0.02,0.01 -0.03,0.17 -0.02,0.12 -0.01,0.29 -0.01,0.41 0.02,-0.07 0.01,-0.22 0.11,-0.32l0.08 0.93c0.06,0.23 0.03,-0.16 0.07,0.36l0.03 0.17c0.01,0.01 0.02,0.1 0.02,0.11 0.18,0.7 0.47,0.18 0.6,0.04l1.11 -1.54c0.18,-0.19 -0.01,-0.05 0.23,-0.16 -0.08,0.28 -0.6,1.04 -0.77,1.32 -0.28,0.46 -0.99,1.49 -1.12,1.92 -0.04,0.16 -0.03,0.29 -0.05,0.45 -0.13,0.74 -0.32,0.91 -0.35,1.07 -0.02,0.07 -0.16,0.68 -0.37,0.52 -0.01,-0.01 -0.21,0.03 0.06,-0.4 0.09,-0.12 0.16,-0.19 0.21,-0.34 -0.13,0.08 -0.25,0.32 -0.3,0.42 -0.09,-0.11 -0.1,-0.38 -0.18,-0.46l0.21 3.22c0.31,-1.44 1.28,-2.72 1.98,-3.75l6.94 -10.36c1.28,0.43 0.64,0.16 1.37,0.05 -0.12,-0.21 0.06,-0.1 -0.25,-0.12 -0.1,0 -0.3,0.15 -0.82,-0.02 -0.77,-0.24 -1.81,-0.78 -2.38,-1.21 0.07,0.16 0.32,0.35 0.46,0.44 -0.34,0.41 -0.71,1.07 -1.04,1.55 -0.36,0.53 -0.7,1.03 -1.06,1.58 -0.18,0.28 -0.33,0.5 -0.51,0.76l-1.75 2.25c-0.47,-0.16 -0.48,-1.37 -0.52,-1.83 -0.04,-0.42 -0.3,-1.56 -0.5,-1.86 -0.09,0.02 -0.13,0.05 -0.23,0.11l-0.27 0.16c0.06,-0.61 5.1,-8.26 5.73,-9.28 2.15,-3.49 4.22,-6.9 6.43,-10.36 1.08,-1.69 1.21,-2.08 3.08,-0.53 0.35,0.29 0.71,0.56 0.89,0.92 0.26,0.49 -0.06,1 -0.28,1.37 -0.24,0.41 -0.49,0.76 -0.74,1.14l-5.18 7.9c-0.27,0.4 -0.48,0.73 -0.75,1.13 -0.22,0.33 -0.65,0.84 -0.75,1.17 0.3,-0.02 0.07,0.09 0.25,-0.13l6.67 -10.28c1.08,-1.68 1.76,-2.26 -0.04,-3.62 -1.67,-1.26 -1.91,-1.64 -3.23,0.52 -0.72,1.17 -1.48,2.34 -2.22,3.54 -1.2,1.92 -2.67,4.3 -3.92,6.18l-0.62 0.87z"/>
    <path class="fil19" d="M79.31 23.23c-0.36,0.22 0.13,-0.22 -0.12,0.1 -0.02,0.02 -0.03,0.03 -0.07,0.12 -0.03,0.07 -0.04,0.17 -0.09,0.26 0.25,0.13 0.11,-0.11 0.15,0.27l-0.31 1.25c-0.05,0.17 -0.09,0.3 -0.13,0.48 -0.13,0.66 -0.32,1.38 -0.47,2.03l-0.71 2.95c-0.2,0.8 -0.17,1.13 0.23,1.92l0.69 1.13c0.1,0.13 0.16,0.2 0.27,0.34 0.18,0.23 0.4,0.42 0.62,0.64 0.22,0.23 0.43,0.34 0.69,0.53 0.12,0.09 0.23,0.16 0.36,0.24l1.26 0.61c1.15,0.36 1.86,0.4 3.13,0.07l1.25 -0.47c0.83,-0.37 1.73,-0.86 2.43,-1.42 0.14,-0.11 0.19,-0.2 0.31,-0.31 0.32,-0.27 0.38,-0.25 0.53,-0.76l2.18 -7.69c0.01,-0.01 0.02,-0.03 0.03,-0.04l0.18 -0.53 -1.56 0c-0.29,0.04 -0.17,0.05 -0.31,0.16 -0.25,0.14 -0.23,0.34 -0.34,0.74 -0.08,0.26 -0.15,0.53 -0.22,0.77l-1.3 4.86c-0.23,0.94 -0.35,1.2 -1.19,1.76 -0.1,0.06 -0.19,0.13 -0.3,0.2l-0.68 0.38c-0.5,0.29 -1.33,0.58 -1.92,0.59 -0.58,0.01 -0.42,-0.21 -0.83,-0.2 -0.1,0.11 0.05,0.06 -0.2,0.07l-0.34 0.06c0.11,0.05 0.05,0.02 0.11,0.06 -0.96,-0.13 -2.21,-1.09 -2.6,-1.56 -0.31,-0.37 -0.59,-0.79 -0.79,-1.32 -0.3,-0.77 -0.24,-0.85 -0.05,-1.66l1.7 -6.7c-0.51,0.05 -1.25,-0.16 -1.59,0.07z"/>
    <path class="fil20" d="M32.53 65.92c0.2,0.27 0.52,-0.01 0.78,0.21l1.05 -0.03c-0.79,0.07 -2.92,-0.04 -3.49,0.2 0.67,0.06 1.53,0.03 2.14,0.2 0.3,0.08 0.57,0.2 0.89,0.28 0.51,0.14 0.81,0.49 0.46,0.98 -0.62,0.84 -0.53,0.47 -0.86,0.86 -0.19,0.21 -0.05,0.18 -0.29,0.32 -0.09,0.04 -0.29,0.12 -0.4,0.15 -0.27,0.09 -0.65,0.17 -0.94,0.19l0.12 0.17c0.6,0.3 1.7,0.22 1.94,0.36 0.48,-0.07 1.51,0 2.03,0.03 0.58,0.03 5.08,0.21 5.39,0.35 0.25,0.11 0.14,0.16 0.16,0.28 0.17,0.01 0.33,0.02 0.5,0.02 0.19,0 0.37,-0.02 0.53,0.05l1.53 -0.03c0.15,-0.33 0.54,-1.89 0.68,-2.44 0.01,-0.04 0.03,-0.13 0.05,-0.17 0,-0.02 0.02,-0.07 0.03,-0.09 0.05,-0.12 0.03,-0.07 0.07,-0.13l0.18 -1.08 -2.3 -0.13c-0.45,-0.02 -0.25,-0.06 -0.32,-0.15 -0.07,-0.1 0.06,-0.03 -0.12,-0.11l-0.68 -0.1c0.02,-0.05 0,-0.02 0.07,-0.07 0,0 0.02,-0.01 0.03,-0.02l0.15 -0.09c-0.01,-0.01 -0.04,-0.03 -0.04,-0.02l-0.19 -0.14c-0.04,-0.05 -0.11,-0.21 -0.14,-0.26 -0.18,-0.03 -0.48,-0.08 -0.75,-0.08l-0.1 0.06c0.04,0.3 0.05,0.09 0.13,0.27l-0.31 0.09c-0.4,-0.29 -0.17,-0.34 -0.36,-0.28l0.01 0.21c-0.27,0.01 -0.26,0.05 -0.44,0.08 -0.23,0.04 -0.24,-0.07 -0.4,0.07 0,0.44 0.19,-0.04 0.49,0.36l-3.4 -0.19 -0.37 -0.26 -0.61 -0.05 0.1 -0.24c0,-0.55 -0.5,-0.47 -0.6,-0.53 -0.23,0.04 -0.43,-0.04 -0.58,0.01 -0.15,0.05 -0.21,0.17 -0.39,0.29 -0.13,0.09 -0.03,0.04 -0.22,0.11 -0.57,0.23 -0.67,-0.15 -0.7,0.28 0.08,0.06 0.66,0.2 0.77,0.27l-1.28 -0.06z"/>
    <path class="fil21" d="M69.58 49.6l0.76 -1.11c0.57,-0.84 1.01,-1.81 1.7,-2.51 0.14,-0.13 0.16,-0.84 0.45,-0.56 0.04,0.05 0,0.12 -0.02,0.2 -0.04,0.23 0.05,0.09 -0.07,0.22 -0.14,0.15 -0.08,-0.02 -0.19,0.19 -0.03,0.07 -0.06,0.2 -0.1,0.29l-0.28 0.5c-0.04,0.11 -0.06,0.21 -0.1,0.29l-0.33 0.49c-0.13,0.12 -0.17,0.29 -0.23,0.45 -0.01,0.01 -0.01,0.03 -0.02,0.04 -0.04,0.12 -0.04,0.18 -0.09,0.3 -0.16,0.42 -0.39,0.18 -0.47,0.7 0,0 -0.02,0.14 -0.02,0.14 0,0.02 0.01,0.07 0.01,0.08 0,0.01 0,0.03 0,0.04 0,0 0,0.02 0.01,0.03 -0.11,0.03 -0.12,0 -0.23,0.07 -0.07,0.04 -0.12,0.1 -0.16,0.18 -0.04,0.09 -0.01,0.04 -0.05,0.12 0,0.01 -0.01,0.02 -0.01,0.03l-0.03 0.08c-0.08,0.2 -0.03,0.13 -0.08,0.32 -0.04,0.18 -0.16,0.24 -0.25,0.59l-0.46 1.26c0,0.01 0,0.03 0,0.03 0,0.01 -0.01,0.03 -0.01,0.03l-0.05 0.38c0.01,0 0.03,-0.01 0.04,0.01 0,0.01 0.03,0 0.04,0 0,0.01 0.05,0.02 0.06,0.02 0.1,0.05 0.03,-0.08 0.08,0.08 -0.01,0.23 -0.03,0.2 -0.27,0.21l0.02 0.22c-0.03,0.09 -0.04,-0.02 -0.02,0.08 0.02,0.01 0.02,0.16 0.27,-0.06 0.01,0.64 -0.12,0.51 0.25,0.49l0.15 0.02c0.17,0.01 0.19,-0.03 0.32,-0.09 0.26,-0.12 0.18,-0.1 0.46,-0.03l0.04 -0.07c0.13,-0.13 0.42,-0.05 0.56,-0.18 0.2,-0.18 0.13,-0.36 0.32,-0.5l0.24 -0.27c0,0 0.03,-0.04 0.07,-0.09 0.03,-0.03 0.04,-0.05 0.07,-0.09l0.13 -0.2c0.11,-0.14 0.02,0.03 0.15,-0.19 0.03,-0.06 0.02,-0.05 0.05,-0.11 0.18,-0.36 0.41,-0.62 0.61,-0.96 0.15,-0.27 0.29,-0.3 0.44,-0.55l1.26 -1.84c0.36,-0.5 0.81,-1.13 1.12,-1.65 0.16,-0.28 0.34,-0.52 0.52,-0.81 0.21,-0.31 0.35,-0.54 0.55,-0.84 0.33,-0.48 0.85,-1.19 1.05,-1.71 0.33,-0.86 -0.73,-1.48 -1.33,-1.9 -0.73,-0.51 -0.6,-0.27 -1.24,-0.35 -0.13,-0.02 -0.12,0 -0.25,0.06 0.01,0 0.03,-0.15 0.03,-0.15 0,-0.09 0.02,-0.02 -0.01,-0.08 -0.62,0.53 -1.57,2.29 -2.12,3.14 -0.23,0.37 -0.47,0.73 -0.69,1.09 -0.42,0.65 -2.57,4 -2.65,4.43z"/>
    <path class="fil17" d="M58.79 57.99c0.69,0.18 1.69,-0.39 1.78,0.56l0.14 1.5 0.04 1.15 1.18 -1.83c0.3,-0.48 3.36,-5.35 3.47,-5.63 -0.15,-0.1 -0.26,-0.2 -0.4,-0.33 -1.07,-0.97 -1.34,-0.78 -2.29,-2.64 -0.33,-0.65 -0.58,-1.28 -0.89,-1.93 -0.16,-0.34 -0.28,-0.61 -0.44,-0.95 -0.09,-0.17 -0.46,-0.8 -0.48,-0.86 -0.17,0.09 -0.05,-0.02 -0.18,0.16 -0.31,0.42 -0.81,2.01 -0.9,2.47 -0.21,1.03 -0.48,2.06 -0.55,3.12 -0.19,2.52 1.63,3.76 0.15,4.19 -0.66,0.2 -0.83,0.2 -0.63,1.02z"/>
    <path class="fil22" d="M36.86 84.77c-0.26,0.01 -0.38,0.02 -0.56,0.12 -0.72,0.37 -0.7,0.28 -0.85,0.36 -0.14,0.06 -0.12,0.14 -0.28,0.28l-0.06 0.05c-0.01,0 -0.03,0.02 -0.04,0.02 -0.01,0.62 0.23,0.77 -0.05,1.28 -0.01,0.01 -0.03,0.05 -0.04,0.06 -0.05,0.1 -0.01,0.01 -0.04,0.09 -0.1,0.39 -0.03,0.66 0.11,0.93 0.01,0.01 0.02,0.02 0.02,0.03l0.04 0.08c0,0.01 0.01,0.02 0.02,0.03 0,0.01 0.01,0.03 0.02,0.04 0,0.01 0.01,0.03 0.02,0.04 0.2,0.36 0.35,0.4 0.69,0.52l0.15 0.07c0.29,0.12 1.01,0.28 1.4,0.28 0.79,0.02 1.41,0.06 2.1,0.12 0.32,0.02 0.78,0.01 1.1,0 0.22,-0.02 1.22,0.05 1.61,-0.07 0.11,-0.03 0.08,-0.04 0.12,-0.06l0.17 -0.11c0.07,-0.03 0.08,0 0.17,-0.11l0.05 -0.06c0.13,-0.21 0.35,-1.14 0.38,-1.34 0.03,-0.17 0.01,-0.35 0.02,-0.53 0.04,-0.42 0.08,-0.42 0.29,-0.47 0,0 0.02,0 0.03,-0.01 0.23,-0.05 0.77,-0.34 0.89,-0.42 0.31,-0.21 0.06,-0.13 0.11,-0.26 0.23,-0.1 0.35,-0.2 0.59,-0.24l0.11 -0.02c0.01,0 0.03,-0.01 0.04,-0.01l0.93 -0.62c0.11,-0.09 0.14,-0.11 0.27,-0.16 0.31,-0.12 0.24,-0.06 0.29,-0.2 -0.37,-0.11 -0.88,-0.09 -1.35,-0.09 -1.03,0 -1.33,-0.29 -1.85,-0.29 -0.96,0 -0.9,-0.11 -1.25,-0.15l-1.92 -0.03c-0.18,0.03 0.03,0 -0.11,0.04 -0.43,0.12 -0.25,-0.06 -0.79,0.15 -0.36,0.13 -0.96,0.03 -1.28,0.17l-0.88 0.22c-0.14,0.03 -0.29,0.06 -0.36,0.17l-0.03 0.1z"/>
    <path class="fil23" d="M44.29 27.96c-0.02,0.29 -0.04,0.56 -0.06,0.84 -0.05,0.51 0.02,0.43 0.1,0.82 0.3,-0.36 -0.01,-1.09 1.11,-1.98 0.58,-0.46 1.27,-0.76 2.08,-1.02 1.64,-0.53 2.77,-1.13 4.68,-1.46 2.82,-0.47 5.22,0.13 7.55,1.42 0.65,0.36 1.39,0.72 1.93,1.15l0.33 0.03c-0.05,-0.35 -0.26,-0.53 -0.62,-0.73 -0.31,-0.17 -1,-0.44 -1.68,-0.81l-0.62 -0.34c-0.16,-0.07 -0.02,-0.13 -0.18,-0.02l0.3 0.06c0.55,0.21 0.02,-0.08 0.71,0.28 0.24,0.13 0.56,0.21 0.86,0.21 -0.09,-0.31 -0.08,-0.26 -0.06,-0.51 0.04,0.15 0.03,0 0.27,0.16 0.05,-0.14 0.05,-0.08 0.05,-0.28 0.01,0 0.11,0.01 0.11,0.01 0.01,0 0.03,0 0.04,0 0.32,-0.03 0.07,0 0.38,0.05 -0.47,-0.9 -1.17,-1.16 -1.81,-1.53 -0.72,-0.41 -1.31,-0.91 -2.12,-1.27 -3.13,-1.39 -4.88,-1.02 -8.03,0.35 -1.01,0.44 -1.63,0.47 -2.48,0.9 -1.06,0.55 -1.19,0.67 -1.79,1.57 -0.2,0.3 -0.42,0.71 -0.59,1.08 -0.29,0.64 -0.27,0.91 -0.41,1.31 0,0 0.15,0.01 -0.05,-0.29z"/>
    <path class="fil24" d="M32.67 82.7l7.07 -0.84c0.21,-0.1 0.24,-0.29 0.4,-0.62 0.12,-0.25 0.21,-0.43 0.32,-0.68 0.53,-1.17 1.9,-4.45 2.21,-5.54 0.12,-0.44 0.3,-1 0.48,-1.47l0.92 -3.04 -1.53 0.03c-0.13,0.01 -0.3,0 -0.41,0.03 -0.29,0.05 -0.39,0.17 -0.73,0.14 -0.3,-0.02 -0.11,-0.04 -0.33,-0.1 -0.26,0.27 -0.29,0.03 -0.53,0.39l-0.47 0.92c-0.15,0.31 0.02,0.02 -0.19,0.2 -0.26,0.22 -0.05,0.49 -0.19,0.8 -0.55,0.26 -3.62,0.3 -4.54,0.25l-0.01 -0.36c-0.04,0.35 -0.14,0.46 -0.17,0.77 1.23,0 2.28,-0.06 3.49,-0.06 0.61,0 1.18,-0.06 1.72,-0.05 0.59,0 1.21,0.01 1.8,-0.01 -0.26,0.07 -0.62,0.06 -0.96,0.14 -0.28,0.07 -0.55,0 -0.75,0.23l-0.19 0.11c-0.23,0.08 -0.29,0.23 -0.35,0.46l-0.04 0.13c0,0.01 -0.01,0.02 -0.01,0.04 -0.12,0.36 -0.19,0.43 -0.28,0.83l-0.04 0.12c-0.2,0.62 -0.14,0.93 -0.43,1.52 -0.13,0.26 -0.03,0.57 -0.08,0.86l-0.12 0.32c-0.01,0.01 -0.02,0.03 -0.02,0.04 -0.04,0.08 -0.09,-0.01 -0.06,0.24 0.02,0.2 -0.01,0.01 0.04,0.12 0,0.01 0.01,0.03 0.02,0.04l0.04 0.08c-0.12,0.04 -0.06,-0.01 -0.14,0.08 -0.12,0.12 -0.06,-0.01 -0.08,0.19l-0.26 0.91c-0.1,0.15 -0.16,0.21 -0.18,0.37l-0.19 0.38c0,0.01 -0.01,0.02 -0.02,0.03l-0.21 0.29c-0.24,0.17 -0.35,-0.1 -0.36,0.31 -0.84,0 -0.65,-0.19 -1.18,-0.4 -0.23,0.14 -0.23,0.33 -0.37,0.39 0.04,0.09 0.07,0.08 0.18,0.13 0.18,0.08 0.26,0.08 0.48,0.08 -0.18,0.26 -0.62,-0.01 -0.92,0.31 -0.18,0.21 -0.42,0.23 -0.65,0.35 -0.42,0.22 -0.99,0.2 -1.43,0.29 -0.29,0.07 -0.92,0.03 -1.15,0.25l0.4 0z"/>
    <path class="fil25" d="M89.85 25.11c0.14,-0.11 0.02,-0.12 0.31,-0.16l1.56 0 -0.18 0.53 0.24 0.22c0.16,0.18 0.37,1.32 0.44,1.5 0.03,0.09 0.04,0.09 0.05,0.11 0.53,1.16 0.6,2.51 0.42,3.91 -0.03,0.22 -0.02,0.52 -0.06,0.72 -0.16,0.87 -0.37,1.53 -0.73,2.38 -0.07,0.17 -0.17,0.31 -0.28,0.49l-1.42 1.73 -0.74 0.59c-0.47,0.36 -0.71,0.66 -1.22,0.95 -0.12,0.06 -0.12,0.08 -0.23,0.16 -0.14,0.09 -0.34,0.16 -0.52,0.25l-1.02 0.53c-0.24,0.14 -2.57,0.96 -2.95,1.03 -0.25,0.07 -0.52,0.19 -0.77,0.29l-1.41 0.8c-0.21,0.17 -0.38,0.32 -0.57,0.47 -0.11,0.15 -0.23,0.24 -0.36,0.38 -0.48,0.48 -1,1.26 -1.37,1.85l-1.09 1.63c-0.01,0.02 -0.06,0.11 -0.06,0.11l-0.74 1.09c-0.37,0.55 -0.48,0.75 -0.89,1.26 -0.11,0.13 -0.22,0.32 -0.32,0.45l-4.16 6.27c-0.16,0.25 -0.11,0.22 -0.24,0.29 -0.01,0 -0.03,0.01 -0.04,0.01l-0.12 0.05c-0.1,0.05 -0.17,0.08 -0.28,0.1 -0.11,-0.18 -0.09,-0.19 -0.28,-0.26 -0.24,0.31 -0.05,0.33 0,0.71 0.28,0.07 0.23,0.26 0.67,0.29 0.4,0.02 0.53,-0.07 0.77,-0.21 0.7,-0.39 0.62,-0.95 0.78,-1.13l0.05 -0.09c0.25,-0.33 0.16,-0.25 0.27,-0.48 0.04,-0.08 0.09,-0.13 0.14,-0.22 0.58,-0.95 1.95,-2.95 2.64,-3.97 0.9,-1.33 1.8,-2.66 2.69,-4.01 2.68,-4.07 3.02,-4.54 7.44,-5.98 1.95,-0.64 3,-1.39 4.2,-2.5 2.13,-1.97 2.84,-4.17 2.89,-7.12 0.02,-1.19 -0.19,-1.91 -0.39,-2.98 -0.05,-0.24 -0.09,-0.43 -0.17,-0.66 -0.14,-0.43 -0.01,-0.36 0.03,-0.73 0.05,-0.42 -0.18,-1.05 -0.47,-1.2 -0.13,-0.07 -1.3,-0.13 -1.53,-0.12 -0.46,0.02 -0.82,0.4 -0.98,0.67z"/>
    <path class="fil2" d="M44.34 27.78l0.02 0.17c0.08,-1.08 1.18,-2.94 1.91,-3.48 1.27,-0.94 2.07,-0.94 3.64,-1.68 3.02,-1.42 5.55,-1.55 8.4,0.13 0.4,0.24 0.71,0.47 1.07,0.7 1,0.65 1.28,0.41 2.04,1.52 0.2,0.28 0.57,0.8 0.7,1.11 -0.38,-1.81 -1.92,-3.75 -3.32,-4.82 -4.44,-3.38 -10.83,-1.96 -13.5,3.19 -0.38,0.74 -0.95,2.19 -0.96,3.16z"/>
    <path class="fil26" d="M46.2 37.05c0.19,0.55 1.53,1.71 2.07,2.11 1.03,0.77 1.76,0.95 2.87,1.38 -0.29,0.09 -2.38,0.35 -2.65,0.33 0.01,0.01 0.03,0.01 0.04,0.02 0.01,0.02 0.03,0.02 0.04,0.02 0.31,0.09 3.89,-0.22 4.19,-0.24 1.5,-0.1 2.23,-0.2 3.62,-0.35 0.39,-0.04 0.24,-0.05 0.51,-0.15 1.13,-0.55 1.88,-0.97 2.65,-1.7 0.38,-0.37 0.69,-0.66 1.05,-1.11 0.18,-0.23 0.78,-1.06 0.85,-1.35 -0.14,-0.11 -0.28,-0.06 -0.43,-0.02 -0.29,0.08 -0.13,0.06 -0.34,0.17 -0.43,0.25 -0.41,0.11 -0.89,0.5l-1.07 0.81c-0.01,0 -0.03,0.01 -0.04,0.02l-0.06 0.04c-0.01,0.01 -0.03,0.02 -0.04,0.02l-0.19 0.09c-0.43,0.19 -0.32,0.09 -0.86,0.35 -0.23,0.11 -0.19,0.01 -0.48,0.14 -0.74,0.33 -0.8,0.19 -1.29,0.36 -0.01,0.01 -0.03,0.01 -0.04,0.02l-0.08 0.03c-0.27,0.1 -0.26,0.03 -0.48,0.08 -0.22,0.05 -0.01,0.08 -0.28,0.09l-2.5 0c-1.6,-0.01 -2.94,-0.43 -3.55,-0.45 -0.03,-0.06 0.05,-0.02 -0.07,-0.08l-1.25 -0.51c-0.2,-0.09 -0.52,-0.14 -0.62,-0.22 -0.18,-0.14 0.08,-0.05 -0.42,-0.31 -0.01,0 -0.02,-0.01 -0.04,-0.02l-0.12 -0.08c-0.04,-0.02 -0.05,-0.13 -0.1,0.01z"/>
    <path class="fil2" d="M51.7 70.41c-0.3,0.11 -0.69,0.38 -0.86,0.58 -0.13,-0.15 -0.05,-0.22 -0.24,-0.21 -0.09,0.42 0.1,0.31 -0.21,0.6 -0.11,0.11 -0.26,0.25 -0.36,0.41 -0.21,0.33 -0.4,0.64 -0.6,1 0.34,0.06 0.22,0.05 0.56,-0.05 -0.21,0.39 -0.67,0.25 -0.73,1.45l0.12 0.04c0.01,0 0.02,0 0.03,0 0.15,0.03 -0.08,-0.09 0.12,0.01l0.02 1.5c0.11,-0.18 0.11,-0.36 0.18,-0.6 0.05,-0.19 0.13,-0.42 0.2,-0.62 0.06,-0.2 0.19,-0.71 0.3,-0.83l0.09 -0.07c0.06,-0.05 0.05,-0.04 0.11,-0.09 -0.03,0.29 -0.13,0.19 -0.2,0.51 -0.1,0.49 -0.78,4.22 -0.72,4.51 0.05,0.23 0.13,0.22 0.15,0.23l0.28 0.28c0.01,0 0.02,0.02 0.03,0.02 0.01,0.01 0.02,0.02 0.03,0.03l0.09 0.07c-0.08,0.23 -0.06,0.15 -0.02,0.33l0.42 0.18c-0.07,-0.09 -0.19,-0.15 -0.24,-0.27 -0.13,-0.31 0.42,-2.76 0.5,-3.25 0.29,-1.66 0.01,-1.03 1.52,-1.7 0.25,-0.11 0.41,-0.43 0.82,-0.23 0.42,0.1 0.65,0.19 0.97,0.37 0.33,0.19 0.55,0.48 0.82,0.59 0.09,-0.06 0.17,0.07 -0.06,-0.18 -0.14,-0.14 -0.46,-0.37 -0.46,-0.54 0.01,-0.32 0.44,-0.66 -0.01,-0.99 -0.92,-0.67 -1.38,-0.55 -2.24,-0.59 0.08,-0.1 0.08,-0.13 0.29,-0.19l1.68 -0.33c0.17,-0.02 -0.12,-0.15 0.08,0.04l0.04 0.06c0.29,0 0.73,0.02 0.83,-0.24 0.25,-0.66 -0.54,-1.79 -0.64,-1.88 0.13,-0.07 0.49,-0.17 0.67,-0.29l0.16 -0.17c-0.83,0.18 -0.12,0.32 -1.74,0.44 -0.67,0.05 -1.41,0.33 -1.95,0.34 0.11,-0.26 0,-0.15 0.17,-0.27z"/>
    <path class="fil17" d="M50.17 66.53c-0.07,0.14 0,0.03 -0.07,0.12 -0.02,0.04 -0.08,0.1 -0.1,0.12 0,0 0.11,0.12 0.11,0.12 0.45,-0.04 0.29,0.09 0.72,0.69 0.51,0.71 1.57,1.9 1.87,2.44l2.02 -0.3c0.27,-0.11 0.54,-0.25 0.75,-0.41 0.2,-0.14 0.54,-0.52 0.61,-0.56 0.15,-0.38 0.19,-0.16 0.13,-0.71 -0.03,-0.28 -0.06,-0.55 -0.09,-0.82 -0.07,-0.58 -0.17,-0.99 -0.32,-1.52 -0.2,-0.56 -0.49,-0.8 -1.22,-0.87 -0.76,-0.06 -1.11,0.06 -1.76,0.27 -1.01,0.34 -2.13,0.77 -2.65,1.43z"/>
    <path class="fil27" d="M37.42 59.96c0.14,0.12 0.05,0.01 0.1,0.18l-0.36 0.24c0.19,0.1 0.37,0.01 0.57,0.19 0.15,0.14 0.15,0.32 0.35,0.38 1.18,0.14 0.63,0.36 0.88,1.05 0.51,0.18 0.37,-0.16 0.39,-0.58l0.01 -0.34c0.98,0.26 1.09,0.03 1.49,-0.63 0.3,-0.48 0.48,-1.07 0.75,-1.58 0.45,-0.85 2.27,-4.67 2.85,-5.29 0.92,-0.99 1.38,-2.81 1.6,-4.2 0.02,-0.41 -0.04,-0.91 -0.1,-1.32 -0.06,-0.41 -0.2,-0.8 -0.24,-1.15l0.04 -0.03c-0.09,-0.07 -0.05,0.03 -0.14,-0.13 -0.12,0.23 -0.12,0.15 -0.18,0.44 -0.04,0.18 -0.06,0.25 -0.12,0.43l-1.03 2.28c-0.21,0.24 -0.06,0.18 -0.19,0.44l-0.22 0.38c-0.18,0.29 -0.14,0.39 -0.37,0.85l-0.21 0.62c-0.12,0.94 -0.19,0.5 -0.28,0.73 0,0.16 0.02,0.36 -0.03,0.52 -0.07,0.2 -0.17,0.2 -0.26,0.29l-0.27 0.56c-0.09,0.17 -0.03,-0.03 -0.09,0.19 -0.08,0.28 -0.19,0.66 -0.36,0.91l-0.14 0.14c-0.13,0.17 -0.03,0.25 -0.16,0.51 -0.06,0.11 -0.04,0.06 -0.11,0.17 -0.09,0.14 -0.01,-0.08 -0.1,0.17 -0.06,0.19 0,0.19 -0.15,0.63 -0.19,0.55 -0.17,0.17 -0.3,0.59l-0.24 0.58c-0.19,0.38 -0.08,0.29 -0.21,0.52l-0.19 0.31c0,0.2 0,0.44 -0.04,0.57 -0.06,0.18 -0.02,0.1 -0.14,0.18l-0.5 0.39c-0.27,0.23 -0.58,0.22 -1.04,0.19l-0.92 -0.3c-0.36,-0.24 -0.28,-0.22 -0.34,-0.08z"/>
    <path class="fil28" d="M58.36 84.44l-0.62 0c-0.37,0.03 -0.08,0.02 -0.37,0.12 -0.29,0.09 -1.39,0.03 -1.78,0.03l-0.59 0.05c-0.14,0.04 -0.08,0.03 -0.14,0.08 0.08,0.05 -0.02,0.01 0.13,0.04 0.07,0.02 0.09,0.01 0.15,0.02 0.25,0.03 0.13,0 0.28,0.1 0.2,0.13 0.09,0.04 0.52,0.16 0.28,0.07 0.27,0.01 0.5,0.09 0.29,0.1 0.26,0.15 0.64,0.15 0.08,0.16 -0.08,0.03 0.16,0.16l0.63 0.26c0.59,0.22 1.24,0.38 1.68,0.6 0.91,0.46 1.55,0.46 2.49,0.58l1.3 0.06c0.59,0 1.84,-0.01 2.37,-0.13 -0.02,-0.01 -0.06,-0.02 -0.11,-0.03 -0.13,-0.05 -0.04,0.01 -0.15,-0.06 0.48,-0.05 1.47,-0.14 1.67,-0.44 0.35,-0.51 -0.34,-0.96 -0.73,-1.18 -1.38,-0.74 -3.34,-0.67 -4.93,-0.67 -0.61,0 -1.5,-0.16 -2.34,-0.09l-0.5 0.04c-0.09,0.02 -0.01,0.06 -0.26,0.06z"/>
    <path class="fil29" d="M45.98 57.48c0.07,0.29 -0.03,0.14 0.18,0.27 0.11,0.07 0.24,0.11 0.36,0.15 0.25,0.07 0.53,0.08 0.81,0.14 0.94,-0.6 1,-0.65 2.44,-0.73 0.39,-0.03 1.23,-0.06 1.6,-0.01 0.17,0.03 0.17,0.07 0.3,0.08 0.23,0.04 0.13,-0.02 0.31,-0.02 0.36,0 1.05,0.03 1.45,-0.05 0.25,-0.06 0.41,-0.08 0.72,-0.07l3.07 0.15c0.12,0.02 0.43,0.15 0.54,0.22 0.21,0.17 0.27,0.33 0.35,0.42l0.25 0 0.09 0.03c0,-0.5 -0.03,-0.4 -0.18,-0.74 -0.64,-0.02 -0.68,-0.2 -1.3,-0.21l-4.36 -0.07c0.28,0.02 0.54,-0.02 0.81,-0.06 0.46,-0.06 3.53,-0.06 4.38,-0.14 0.37,-0.03 1.15,-0.11 1.26,-0.51 0.08,-0.3 -0.01,-1.44 -0.05,-1.74l-0.31 -1.47c-0.28,-1.84 0.11,-2.01 0.18,-3.2 0.08,-0.05 0.01,0.01 0.14,-0.05 0.02,-0.56 0.2,-0.67 0.32,-1.02l0.52 -2.15c0.08,-0.38 0.23,-0.6 0.29,-0.98l0.48 0.01c0.14,0.15 0.23,0.21 0.37,0.38 0.07,0.09 0.1,0.13 0.16,0.22 0.09,0.12 0.09,0.11 0.18,0.21 0.11,0.11 0.08,0.09 0.17,0.22 0.01,0.02 0.07,0.1 0.09,0.13 0.06,0.07 0.04,0.03 0.08,0.09 0.05,0.07 0.08,0.15 0.14,0.24 0.04,0.07 0.13,0.17 0.17,0.23 0.06,0.07 0.1,0.13 0.17,0.21 0.14,0.18 0.02,-0.01 0.15,0.23 0.23,0.41 0.19,0.09 0.35,0.42l0.26 0.52c0.24,0.43 0.38,1.01 0.61,1.35 0.18,0.26 0.46,0.73 0.65,0.89 0.76,0.6 0.21,0.2 0.54,0.63 0.03,0.03 0.17,0.16 0.2,0.19 0.12,0.1 0.08,0.08 0.19,0.2l0.84 0.66 0.39 -0.55c0.15,-0.2 0.17,-0.16 0.24,-0.33 -0.45,0.02 -0.9,0.09 -1.26,-0.22 -0.62,-0.55 -0.23,-0.38 -0.81,-1.08 -0.27,-0.33 -0.45,-0.65 -0.69,-0.97 -0.17,-0.24 -0.15,-0.13 -0.35,-0.47l-0.54 -0.92c-0.12,-0.2 -0.25,-0.48 -0.41,-0.63 -0.5,-0.49 -0.12,-0.2 -0.61,-0.83 -0.22,-0.29 -0.69,-1.18 -0.92,-1.35l-0.24 -0.15c-0.71,-0.45 -0.52,-0.47 -0.92,-0.07 0,0.01 -0.15,0.18 -0.15,0.18 -0.12,0.19 -0.15,0.34 -0.46,0.82 -0.01,0.01 -0.02,0.02 -0.02,0.03l-0.06 0.32c-0.01,0.57 -0.24,1.54 -0.55,2.02 -0.12,0.19 -0.31,0.2 -0.45,1.03 -0.07,0.44 -0.1,0 -0.16,0.5 -0.04,0.29 -0.12,0.36 -0.15,0.57 -0.09,0.63 -0.02,2.06 0,2.76 0.04,-0.01 -0.09,0.16 0.01,-0.04 0.08,-0.17 -0.01,-0.04 0.08,-0.14l0.48 2.25c0.05,0.29 0.03,0.62 0.02,0.92 -0.75,0.6 -2.01,0.35 -2.91,0.43 -1.2,0.11 -3.62,0.09 -4.91,0.11 -0.82,0.01 -2.03,0.22 -2.99,0.24 -0.28,0.01 -0.56,0 -0.84,0 -0.29,0.01 -0.49,0.07 -0.79,0.08l0 0.22z"/>
    <path class="fil30" d="M79.31 23.23c0.34,-0.23 1.08,-0.02 1.59,-0.07l-1.7 6.7c-0.19,0.81 -0.25,0.89 0.05,1.66 0.2,0.53 0.48,0.95 0.79,1.32 0.39,0.47 1.64,1.43 2.6,1.56 -0.06,-0.04 0,-0.01 -0.11,-0.06l0.34 -0.06c0.25,-0.01 0.1,0.04 0.2,-0.07 -0.74,-0.11 -1.91,-1.48 -2.31,-2.49 -0.31,-0.79 -0.07,-1.14 0.12,-1.95 0.2,-0.88 1.38,-5.4 1.41,-5.85 0.02,-0.34 -0.15,-0.65 -0.32,-0.88 -0.25,-0.34 -0.37,-0.31 -0.89,-0.33 -0.35,-0.02 -0.81,-0.11 -1.12,-0.01 -0.29,0.11 -0.54,0.31 -0.65,0.53z"/>
    <path class="fil31" d="M90.22 30.41c-0.02,0.34 -0.58,2.29 -0.75,3.1 -0.03,0.12 -0.05,0.13 -0.04,0.23 0.01,0.16 -0.04,0.08 0.08,0.16 -0.17,0.06 -0.18,0.07 -0.17,0.27 0.01,0.24 0.09,-0.08 0.02,0.17l-0.11 0.24c-0.1,0.24 -0.23,0.23 -0.32,0.37 -0.18,0.3 0.1,0.28 0.37,0.26 -0.3,0.51 -0.37,0.11 -0.34,0.46l0.04 0.1c0,0.01 0.01,0.02 0.01,0.03l0.04 0.07c0.07,0.11 0.1,0.09 0.28,0.12l0.06 -0.22 0.57 -0.02c0.28,-0.39 0.64,-0.56 1.19,-1.37 0.11,-0.16 0.13,-0.2 0.27,-0.33 0.25,-0.24 0.5,-0.95 0.64,-1.3 0.23,-0.57 0.34,-1.52 0.4,-2.13 0.1,-0.92 -0.08,-1.61 -0.15,-2.45l-0.45 -1.82c-0.04,-0.17 -0.18,-0.39 -0.2,-0.48 -0.17,0.32 -0.19,0.07 -0.44,1 -0.15,0.54 -0.97,3.26 -1,3.54z"/>
    <path class="fil2" d="M47.93 71.49c-0.3,1.11 -0.98,2.19 -0.75,3.52 0.21,1.18 0.37,2.8 0.36,4.06 1.26,0.09 1.38,0.03 1.82,-0.83 0.03,0.28 -0.13,0.63 0.03,0.87 0.09,0.14 0.47,0.33 0.68,0.4 -0.04,-0.18 -0.06,-0.1 0.02,-0.33l-0.09 -0.07c-0.01,-0.01 -0.02,-0.02 -0.03,-0.03 -0.01,0 -0.02,-0.02 -0.03,-0.02l-0.28 -0.28c-0.02,-0.01 -0.1,0 -0.15,-0.23 -0.06,-0.29 0.62,-4.02 0.72,-4.51 0.07,-0.32 0.17,-0.22 0.2,-0.51 -0.06,0.05 -0.05,0.04 -0.11,0.09l-0.09 0.07c-0.11,0.12 -0.24,0.63 -0.3,0.83 -0.07,0.2 -0.15,0.43 -0.2,0.62 -0.07,0.24 -0.07,0.42 -0.18,0.6l-0.02 -1.5c-0.2,-0.1 0.03,0.02 -0.12,-0.01 -0.01,0 -0.02,0 -0.03,0l-0.12 -0.04c0.06,-1.2 0.52,-1.06 0.73,-1.45 -0.34,0.1 -0.22,0.11 -0.56,0.05 -0.1,0.17 -0.14,0.15 -0.4,0.12 0,0 0.12,0.15 -0.02,-0.23l-0.31 -0.7c-0.15,-0.28 -0.35,-0.61 -0.54,-0.82 -0.03,0.06 -0.04,0.11 -0.08,0.17 -0.08,0.13 -0.01,0.09 -0.15,0.16z"/>
    <path class="fil32" d="M46.49 82.76c0.38,0.08 1.01,-0.06 1.16,-0.38 0.14,-0.27 -0.02,-1.12 0.02,-1.5 -0.14,-0.23 -0.11,-1.44 -0.13,-1.81 0.01,-1.26 -0.15,-2.88 -0.36,-4.06 -0.23,-1.33 0.45,-2.41 0.75,-3.52 0.11,-0.5 1.24,-3.24 1.46,-3.67 0.15,-0.29 0.39,-0.88 0.72,-0.93 0,0 -0.11,-0.12 -0.11,-0.12 0.02,-0.02 0.08,-0.08 0.1,-0.12 0.07,-0.09 0,0.02 0.07,-0.12l-0.24 0.01c-0.09,-0.14 -0.34,-0.25 -0.19,-0.63l0.75 -0.7c0.71,-0.49 0.77,-0.32 1.15,-0.56 0.58,-0.37 0.81,-0.43 1.49,-0.62 0.67,-0.18 1.82,-0.19 2.32,0.15 0.09,0.06 0.02,-0.01 0.09,0.08 0.23,0.26 0.31,1.28 0.3,1.32 -0.02,0.17 0.03,0.02 -0.04,0.12 0.15,0.53 0.25,0.94 0.32,1.52 0.03,0.27 0.06,0.54 0.09,0.82 0.06,0.55 0.02,0.33 -0.13,0.71 0.1,-0.08 0.11,-0.07 0.17,-0.12 0.06,1.02 0.12,1.99 0.15,3.03 0.06,1.83 -0.02,1.37 -0.43,2.7 0.04,-0.09 0.06,0.01 -0.02,-0.1 -0.16,-0.26 -0.63,-0.58 -0.92,-0.63 0.1,0.3 0,0.03 0.1,0.23 0.05,0.09 0,-0.01 0.07,0.1 0.01,0 0.16,-0.05 0.01,-0.04l-0.05 0.03c-0.01,-0.02 -0.03,0.01 -0.04,0.02 0.16,0.15 0.68,0.64 0.71,0.84 0.02,0.09 -0.26,1.1 -0.3,1.16 0.01,0.5 -0.48,2.3 -0.62,2.91 -0.1,0.44 -0.67,2.62 -0.56,2.89 0.09,0.18 0.22,0.21 0.5,0.31 0.24,0.08 0.4,0.13 0.64,0.12l0.09 -0.03c-0.68,-0.25 -0.58,-0.53 -0.59,-1.05 -0.03,-2.14 0.08,-1.07 0.29,-2.95 0.03,-0.3 0.03,-0.42 0.09,-0.69l0.38 -1.63c0.11,-0.26 0.08,-0.03 0.15,-0.26 0.04,-0.11 0.07,-0.56 0.09,-0.7 0.06,-0.31 0.13,-0.41 0.19,-0.63 0.03,-0.11 0.03,-0.21 0.05,-0.34 0.29,-1.37 0.29,-0.6 0.3,-2.56 0.01,-1.09 -0.05,-2.07 -0.06,-3.16 -0.01,-0.56 -0.03,-1.01 -0.08,-1.55 -0.03,-0.41 -0.16,-0.94 -0.2,-1.39 -0.05,-0.6 0.41,-1.45 -1.6,-1.6 -0.69,-0.05 -1.51,0.05 -2.16,0.23 -0.2,0.05 -0.42,0.15 -0.63,0.2 -0.32,0.07 -0.36,0.04 -0.56,0.21 -0.35,0.28 -0.88,0.31 -1.54,0.9 -0.16,0.14 -0.67,0.72 -0.71,0.88 -0.1,0.33 0.04,1.4 -0.42,2.81 -0.14,0.43 -0.27,0.77 -0.41,1.2 -0.05,0.18 -0.1,0.41 -0.16,0.61 -0.25,0.8 -0.38,0.99 -0.59,1.89 -0.35,1.45 -0.45,0.5 -0.44,2.76l0.1 4.73c0.09,0.9 -0.15,1.18 -0.24,1.7 -0.18,0.94 -0.65,0.96 -1.87,0.96 0.17,0.19 -0.05,0.03 0.15,0.11 0.53,0.22 0.87,-0.23 1.38,-0.09z"/>
    <path class="fil33" d="M58.36 58.03c0.18,-0.01 0.29,0.03 0.43,-0.04 -0.2,-0.82 -0.03,-0.82 0.63,-1.02 1.48,-0.43 -0.34,-1.67 -0.15,-4.19 0.07,-1.06 0.34,-2.09 0.55,-3.12 0.09,-0.46 0.59,-2.05 0.9,-2.47 0.13,-0.18 0.01,-0.07 0.18,-0.16 -0.32,-0.44 -0.63,0.11 -0.58,-0.63 0.37,-0.01 0.15,-0.01 0.27,0.12l0.74 0.76c0.17,0.18 0.1,0.19 0.39,0.49 0.29,0.31 0.07,0.17 0.3,0.26 0.03,0.25 0,0.26 0.11,0.44 0.16,0.27 0.12,0.43 0.35,0.87 0.14,0.26 0.11,0.03 0.21,0.34 0.12,0.4 0.51,1.11 0.83,1.39l0.72 0.56c0.67,0.63 0.7,1.09 1.17,1.48l0.21 0.19c0.12,-0.08 0.18,-0.14 0.25,-0.28 -0.21,0.3 -0.5,0.72 -0.56,1.01 0.34,-0.13 0.65,-0.96 0.84,-1.26 0.2,-0.33 0.68,-1.06 0.78,-1.39 -0.14,0.1 -0.02,-0.01 -0.12,0.11l-0.23 0.38c-0.07,0.17 -0.09,0.13 -0.24,0.33l-0.39 0.55 -0.84 -0.66c-0.11,-0.12 -0.07,-0.1 -0.19,-0.2 -0.03,-0.03 -0.17,-0.16 -0.2,-0.19 -0.33,-0.43 0.22,-0.03 -0.54,-0.63 -0.19,-0.16 -0.47,-0.63 -0.65,-0.89 -0.23,-0.34 -0.37,-0.92 -0.61,-1.35l-0.26 -0.52c-0.16,-0.33 -0.12,-0.01 -0.35,-0.42 -0.13,-0.24 -0.01,-0.05 -0.15,-0.23 -0.07,-0.08 -0.11,-0.14 -0.17,-0.21 -0.04,-0.06 -0.13,-0.16 -0.17,-0.23 -0.06,-0.09 -0.09,-0.17 -0.14,-0.24 -0.04,-0.06 -0.02,-0.02 -0.08,-0.09 -0.02,-0.03 -0.08,-0.11 -0.09,-0.13 -0.09,-0.13 -0.06,-0.11 -0.17,-0.22 -0.09,-0.1 -0.09,-0.09 -0.18,-0.21 -0.06,-0.09 -0.09,-0.13 -0.16,-0.22 -0.14,-0.17 -0.23,-0.23 -0.37,-0.38l-0.48 -0.01c-0.06,0.38 -0.21,0.6 -0.29,0.98l-0.52 2.15c-0.12,0.35 -0.3,0.46 -0.32,1.02 -0.13,0.06 -0.06,0 -0.14,0.05 -0.07,1.19 -0.46,1.36 -0.18,3.2l0.31 1.47c0.04,0.3 0.13,1.44 0.05,1.74 -0.11,0.4 -0.89,0.48 -1.26,0.51 -0.85,0.08 -3.92,0.08 -4.38,0.14 -0.27,0.04 -0.53,0.08 -0.81,0.06l4.36 0.07c0.62,0.01 0.66,0.19 1.3,0.21 0.15,0.34 0.18,0.24 0.18,0.74l-0.09 -0.03z"/>
    <path class="fil10" d="M47.93 71.49c0.14,-0.07 0.07,-0.03 0.15,-0.16 0.04,-0.06 0.05,-0.11 0.08,-0.17 0.19,0.21 0.39,0.54 0.54,0.82l0.31 0.7c0.14,0.38 0.02,0.23 0.02,0.23 0.26,0.03 0.3,0.05 0.4,-0.12 0.2,-0.36 0.39,-0.67 0.6,-1 0.1,-0.16 0.25,-0.3 0.36,-0.41 0.31,-0.29 0.12,-0.18 0.21,-0.6 0.19,-0.01 0.11,0.06 0.24,0.21 0.17,-0.2 0.56,-0.47 0.86,-0.58 0.31,-0.13 0.66,-0.4 1,-0.39 -0.3,-0.54 -1.36,-1.73 -1.87,-2.44 -0.43,-0.6 -0.27,-0.73 -0.72,-0.69 -0.33,0.05 -0.57,0.64 -0.72,0.93 -0.22,0.43 -1.35,3.17 -1.46,3.67z"/>
    <path class="fil34" d="M43.63 89.64c-1.76,0.02 -6.01,-0.12 -7.93,-0.34 -0.62,-0.07 -0.85,-0.18 -0.85,0.24 0,0.01 0.11,0.19 0.14,0.25 0.19,0.36 0.17,0.15 0.64,0.53 0.06,0.05 0.17,0.13 0.21,0.17 0.07,0.07 0.07,0.08 0.11,0.12l0.44 0.3c0.01,0 0.02,0.01 0.02,0.01 0.01,0 0.02,0.01 0.03,0.01l0.51 0.29c0.26,0.13 0.3,0.08 0.65,0.13l1.47 0.09c1.04,0 2.19,0.03 3.07,-0.54l0.32 -0.24c0.32,-0.27 -0.06,-0.08 0.66,-0.61 0.01,-0.01 0.08,-0.06 0.1,-0.08 0.1,-0.08 0.1,-0.09 0.21,-0.17 0.19,-0.12 0.07,0.05 0.2,-0.16z"/>
    <path class="fil35" d="M30.91 82.87l-0.27 -0.01c0.11,-0.05 0.01,-0.03 0.08,-0.1l-0.18 0c0.15,-0.26 0.05,-0.06 -0.1,-0.15l0.04 -1.16 -0.26 0.35c-0.11,0.13 -0.07,0.12 -0.29,0.12 -0.03,-0.08 -0.02,-0.14 -0.12,-0.24 -0.09,-0.08 -0.02,-0.01 -0.11,-0.07 -0.4,-0.29 0.1,-0.22 -0.36,-0.24 0.21,-0.15 0,-0.22 -0.17,-0.28 -0.54,-0.19 -0.02,0.12 -0.54,-0.23l-0.07 -0.04c-0.01,-0.01 -0.03,-0.02 -0.04,-0.02 -0.01,-0.01 -0.02,-0.02 -0.04,-0.02 -0.01,-0.01 -0.02,-0.01 -0.04,-0.02l-0.08 -0.03c-0.21,-0.07 -0.5,-0.18 -0.57,-0.41 -1.69,-0.01 -2.69,-0.21 -4.12,-0.23 -0.74,-0.01 -1.92,-0.35 -2.75,-0.5 -0.42,-0.08 -0.66,-0.15 -0.85,0.02 -0.01,-0.26 0.07,-0.4 0.02,-0.63 -0.14,0.16 -0.13,0.64 -0.1,0.88 0.32,0.26 4.67,1.42 5.4,1.63 0.92,0.26 1.84,0.53 2.75,0.8 0.47,0.14 2.43,0.84 2.77,0.58z"/>
    <path class="fil11" d="M56.08 68.75c-0.07,0.04 -0.41,0.42 -0.61,0.56 -0.21,0.16 -0.48,0.3 -0.75,0.41l-2.02 0.3c-0.34,-0.01 -0.69,0.26 -1,0.39 -0.17,0.12 -0.06,0.01 -0.17,0.27 0.54,-0.01 1.28,-0.29 1.95,-0.34 1.62,-0.12 0.91,-0.26 1.74,-0.44l-0.16 0.17c-0.18,0.12 -0.54,0.22 -0.67,0.29 0.1,0.09 0.89,1.22 0.64,1.88 -0.1,0.26 -0.54,0.24 -0.83,0.24l-0.04 -0.06c-0.2,-0.19 0.09,-0.06 -0.08,-0.04l-1.68 0.33c-0.21,0.06 -0.21,0.09 -0.29,0.19 0.86,0.04 1.32,-0.08 2.24,0.59 0.45,0.33 0.02,0.67 0.01,0.99 0,0.17 0.32,0.4 0.46,0.54 0.23,0.25 0.15,0.12 0.06,0.18 0.08,0.17 0.19,0.28 0.32,0.43 0.07,0.08 0.07,0.08 0.16,0.17 0.1,0.11 0.04,0.11 0.17,0.17 0.04,-0.06 0.32,-1.07 0.3,-1.16 -0.03,-0.2 -0.55,-0.69 -0.71,-0.84 0.01,-0.01 0.03,-0.04 0.04,-0.02l0.05 -0.03c0.15,-0.01 0,0.04 -0.01,0.04 -0.07,-0.11 -0.02,-0.01 -0.07,-0.1 -0.1,-0.2 0,0.07 -0.1,-0.23 0.29,0.05 0.76,0.37 0.92,0.63 0.08,0.11 0.06,0.01 0.02,0.1 0.41,-1.33 0.49,-0.87 0.43,-2.7 -0.03,-1.04 -0.09,-2.01 -0.15,-3.03 -0.06,0.05 -0.07,0.04 -0.17,0.12z"/>
    <path class="fil12" d="M31.7 73.3l1.04 -0.11c0.35,-0.56 -0.14,-0.86 0.5,-1.5 0.07,-0.06 0.06,-0.05 0.11,-0.12 0.09,-0.12 0.12,-0.13 0.21,-0.23 0.34,-0.37 -0.11,-0.66 0.47,-0.7 0.16,-0.01 0.28,-0.03 0.36,-0.04l0.69 -0.07c-0.11,-0.14 -0.06,-0.2 -0.49,-0.21 -0.18,0 -0.35,0 -0.53,-0.01 0.02,0.01 -0.1,0.06 0.3,0.05 0.12,0 0.26,0 0.39,-0.01 0.6,-0.01 1.53,-0.02 2.06,0.18l-0.75 0.09c-0.39,0.1 -0.13,-0.03 -0.31,0.19 0.3,0.02 0.37,0.07 0.45,0.29 0.02,0.06 0.21,0.55 0.21,0.58 0,0.3 -0.4,0.76 -0.4,1.26 0.77,-0.06 -0.11,-0.13 1.26,-0.17l0.64 -1.35c0,-0.01 0.01,-0.02 0.01,-0.03l0.19 -0.49c0.07,-0.08 0.08,-0.1 0.2,-0.12 0.17,-0.04 0.66,0 0.88,-0.09 0.24,-0.1 -0.02,0.02 0.17,-0.12 0.1,-0.08 -0.01,0 0.17,-0.07 0.08,-0.04 0.05,-0.02 0.11,-0.06 0.11,-0.07 0.03,-0.01 0.12,-0.1l-0.52 -0.13c-0.01,0 -0.02,0 -0.03,-0.01 -0.01,0 -0.03,0 -0.04,0 -0.65,-0.11 -0.45,0.02 -1.09,-0.17 -0.44,-0.13 -4.47,-0.07 -5.03,-0.08l0.88 -0.14c-0.24,-0.14 -1.34,-0.06 -1.94,-0.36 -0.07,0.04 0.01,0.05 -0.13,0.02 -0.27,-0.06 -0.33,-0.59 -0.36,-0.66l-1.18 -2.26c-0.1,-0.15 -0.13,-0.26 -0.34,-0.29 0.24,-0.12 -0.02,-0.08 0.23,-0.11 0.38,-0.06 2.44,0.08 3.1,-0.02 -0.26,-0.22 -0.58,0.06 -0.78,-0.21 -0.25,-0.07 -2.37,-0.16 -2.58,-0.09l-0.35 0.04 0.03 0.19c0,0 0.13,0.29 0.14,0.32l1.04 1.78c0.13,0.22 0.21,0.35 0.35,0.59 0.12,0.2 0.22,0.38 0.35,0.59 0.08,0.12 0.1,0.16 0.17,0.28 0.23,0.4 0.34,0.17 0.54,0.44 0.1,0.13 0.05,0.06 0.06,0.13 0.04,0.31 -0.07,-0.1 -0.02,0.12l1.31 0.09c-0.2,0.22 -0.39,0.25 -0.71,0.3 -0.29,2.19 0.14,2.42 -1.16,2.6z"/>
    <path class="fil23" d="M44.34 27.78l-0.05 0.18c0.2,0.3 0.05,0.29 0.05,0.29 0.14,-0.4 0.12,-0.67 0.41,-1.31 0.17,-0.37 0.39,-0.78 0.59,-1.08 0.6,-0.9 0.73,-1.02 1.79,-1.57 0.85,-0.43 1.47,-0.46 2.48,-0.9 3.15,-1.37 4.9,-1.74 8.03,-0.35 0.81,0.36 1.4,0.86 2.12,1.27 0.64,0.37 1.34,0.63 1.81,1.53 -0.31,-0.05 -0.06,-0.08 -0.38,-0.05 -0.01,0 -0.03,0 -0.04,0 0,0 -0.1,-0.01 -0.11,-0.01 0,0.2 0,0.14 -0.05,0.28 -0.24,-0.16 -0.23,-0.01 -0.27,-0.16 -0.02,0.25 -0.03,0.2 0.06,0.51 -0.3,0 -0.62,-0.08 -0.86,-0.21 -0.69,-0.36 -0.16,-0.07 -0.71,-0.28l-0.3 -0.06c0.16,-0.11 0.02,-0.05 0.18,0.02l0.62 0.34c0.68,0.37 1.37,0.64 1.68,0.81 0.36,0.2 0.57,0.38 0.62,0.73l-0.33 -0.03c0.33,0.26 0.81,0.97 0.8,1.62l0.01 -0.25c0.04,-0.5 -0.02,-1.05 -0.07,-1.54 -0.07,-0.8 -0.03,-0.68 -0.3,-1.31 -0.13,-0.31 -0.5,-0.83 -0.7,-1.11 -0.76,-1.11 -1.04,-0.87 -2.04,-1.52 -0.36,-0.23 -0.67,-0.46 -1.07,-0.7 -2.85,-1.68 -5.38,-1.55 -8.4,-0.13 -1.57,0.74 -2.37,0.74 -3.64,1.68 -0.73,0.54 -1.83,2.4 -1.91,3.48l-0.02 -0.17z"/>
    <path class="fil12" d="M27.79 80.32c0.07,0.23 0.36,0.34 0.57,0.41l0.08 0.03c0.02,0.01 0.03,0.01 0.04,0.02 0.02,0 0.03,0.01 0.04,0.02 0.01,0 0.03,0.01 0.04,0.02l0.07 0.04c0.52,0.35 0,0.04 0.54,0.23 0.17,0.06 0.38,0.13 0.17,0.28 0.46,0.02 -0.04,-0.05 0.36,0.24 0.09,0.06 0.02,-0.01 0.11,0.07 0.1,0.1 0.09,0.16 0.12,0.24 0.22,0 0.18,0.01 0.29,-0.12l0.26 -0.35 -0.04 1.16c0.15,0.09 0.25,-0.11 0.1,0.15l0.18 0 0.17 -0.12c0.01,-0.79 0.28,-2.44 0.36,-3.3 0.1,-1.11 0.11,-0.79 0.24,-1.59 0.03,-0.21 0.02,-0.56 0.07,-0.83 0.03,-0.25 0.11,-0.48 0.16,-0.75l0.36 0.11c0.09,-0.39 0.12,-0.81 0.21,-1.23 0.08,-0.37 0.28,-1 0.19,-1.15 0.22,-0.12 0.13,0.04 0.2,-0.13l-1.7 -0.14 -0.54 -0.04c0.33,0.13 0.21,0.12 0.28,0.18l0.3 0.08c0,-0.01 0.02,0 0.03,0.01 0.26,0.26 -0.32,4.75 -0.5,5.61 -0.05,0.25 -0.38,0.51 -0.61,0.61 -0.25,0.13 -1.78,0.25 -2.15,0.24z"/>
    <path class="fil36" d="M35.83 63.04c-0.01,0.24 -0.49,1.54 -0.58,2l-0.32 -0.02c0.1,0.06 0.6,-0.02 0.6,0.53l-0.1 0.24 0.61 0.05c-0.06,-0.24 0.06,-0.14 -0.3,-0.24 0.16,-0.28 0.33,-0.86 0.34,-1.18 -0.07,-0.15 0.24,-1.03 0.31,-1.12 0.13,-0.16 0.54,-0.25 -0.07,-0.56 0.28,-0.09 1.79,0.02 1.96,0.15 -0.39,0.17 -0.04,-0.4 -0.9,0.46 -0.44,0.45 -0.87,0.31 -1.1,0.29 -0.08,0.25 -0.14,0.36 -0.17,0.67l0.07 -0.04c0.52,-0.18 0.2,0.17 0.65,0.12 0.94,-0.12 1,-0.88 1.5,-0.94 -0.05,0.36 -0.21,0.55 -0.43,0.71 -0.43,0.33 -0.49,0.09 -0.57,0.44 0.15,0.1 0.26,0.07 0.46,0 0.22,-0.08 0.41,-0.23 0.61,-0.39l0.31 -0.24c-0.02,0.45 -0.22,0.47 -0.22,0.77 0.34,0.11 0.42,-0.18 0.59,-0.41 0.1,-0.14 0.12,-0.2 0.21,-0.34 0.11,-0.17 0.18,-0.15 0.25,-0.25 -0.23,-0.25 -0.08,-0.08 -0.08,-0.8l0.38 0c-0.07,0.01 -0.11,0 -0.22,-0.01 -0.29,-0.06 -0.12,0.03 -0.22,-0.1 0,-0.42 0.09,-1.07 -0.05,-1.41 -0.02,0.42 0.12,0.76 -0.39,0.58 -0.25,-0.69 0.3,-0.91 -0.88,-1.05 0.09,0.38 0.21,0.68 0.22,1.1 -0.1,0.07 -0.03,-0.04 -0.4,0.16 -0.16,0.08 -0.3,0.12 -0.52,0.11l-0.1 -0.93c-0.35,0 -0.4,0.01 -0.65,0.11 -0.12,0.33 0.05,0.19 -0.21,0.39 -0.09,0.07 -0.2,0.15 -0.29,0.27 -0.19,0.29 -0.03,0.47 -0.17,0.73l-0.13 0.15z"/>
    <path class="fil20" d="M31.99 69.45l-0.12 -0.17c0.29,-0.02 0.67,-0.1 0.94,-0.19 0.11,-0.03 0.31,-0.11 0.4,-0.15 0.24,-0.14 0.1,-0.11 0.29,-0.32 0.33,-0.39 0.24,-0.02 0.86,-0.86 0.35,-0.49 0.05,-0.84 -0.46,-0.98 -0.32,-0.08 -0.59,-0.2 -0.89,-0.28 -0.61,-0.17 -1.47,-0.14 -2.14,-0.2 0.57,-0.24 2.7,-0.13 3.49,-0.2l-1.05 0.03c-0.66,0.1 -2.72,-0.04 -3.1,0.02 -0.25,0.03 0.01,-0.01 -0.23,0.11 0.21,0.03 0.24,0.14 0.34,0.29l1.18 2.26c0.03,0.07 0.09,0.6 0.36,0.66 0.14,0.03 0.06,0.02 0.13,-0.02z"/>
    <path class="fil37" d="M50.49 79.69c0.54,-0.01 0.65,-0.03 1.21,-0.63 0.15,-0.16 0.6,-1.04 0.45,-1.3l0.03 0.13c0.13,-0.18 0.11,-0.74 0.14,-0.98l0.43 -2.34c0.06,-0.36 0.02,-0.33 0.34,-0.33 -0.41,-0.2 -0.57,0.12 -0.82,0.23 -1.51,0.67 -1.23,0.04 -1.52,1.7 -0.08,0.49 -0.63,2.94 -0.5,3.25 0.05,0.12 0.17,0.18 0.24,0.27z"/>
    <path class="fil38" d="M50.49 79.69l-0.42 -0.18c-0.21,-0.07 -0.59,-0.26 -0.68,-0.4 -0.16,-0.24 0,-0.59 -0.03,-0.87 -0.44,0.86 -0.56,0.92 -1.82,0.83 0.02,0.37 -0.01,1.58 0.13,1.81 0.39,0.03 3.95,-0.42 4.26,-0.54 0.11,-0.21 0.3,-2.15 0.25,-2.45l-0.03 -0.13c0.15,0.26 -0.3,1.14 -0.45,1.3 -0.56,0.6 -0.67,0.62 -1.21,0.63z"/>
    <path class="fil2" d="M60.26 69.35l-0.01 1.42c0.08,0.08 0.09,0.35 0.18,0.46 0.05,-0.1 0.17,-0.34 0.3,-0.42 -0.05,0.15 -0.12,0.22 -0.21,0.34 -0.27,0.43 -0.07,0.39 -0.06,0.4 0.21,0.16 0.35,-0.45 0.37,-0.52 0.03,-0.16 0.22,-0.33 0.35,-1.07 0.02,-0.16 0.01,-0.29 0.05,-0.45 0.13,-0.43 0.84,-1.46 1.12,-1.92 0.17,-0.28 0.69,-1.04 0.77,-1.32 -0.24,0.11 -0.05,-0.03 -0.23,0.16l-1.11 1.54c-0.13,0.14 -0.42,0.66 -0.6,-0.04 0,-0.01 -0.01,-0.1 -0.02,-0.11l-0.03 -0.17c-0.04,-0.52 -0.01,-0.13 -0.07,-0.36l-0.08 -0.93c-0.1,0.1 -0.09,0.25 -0.11,0.32 0,-0.12 -0.01,-0.29 0.01,-0.41 0.01,-0.16 0.02,-0.12 0.03,-0.17 0.03,-0.12 0.01,0.04 0.03,-0.1 0.01,-0.19 -0.02,-0.57 -0.02,-0.79 0.01,-0.54 0.12,-0.95 0,-1.51 -0.22,0.09 -0.16,-0.01 -0.25,0.23l-0.38 2.32c-0.15,0.89 0.12,2.55 -0.03,3.1z"/>
    <path class="fil9" d="M62.72 67.99c0.27,-0.2 0.57,-0.77 0.77,-1.07l1.57 -2.21c0.39,-0.54 1.55,-2.41 1.86,-2.79l1.49 -2.54c-0.19,-0.08 -0.34,-0.19 -0.52,-0.26l-2.76 4.27c-0.25,0.37 -0.43,0.74 -0.65,1.13 -0.34,0.57 -1.14,1.69 -1.27,2.23 -0.17,0.66 -0.42,0.92 -0.49,1.24z"/>
    <path class="fil39" d="M50.17 66.53c0.52,-0.66 1.64,-1.09 2.65,-1.43 0.65,-0.21 1,-0.33 1.76,-0.27 0.73,0.07 1.02,0.31 1.22,0.87 0.07,-0.1 0.02,0.05 0.04,-0.12 0.01,-0.04 -0.07,-1.06 -0.3,-1.32 -0.07,-0.09 0,-0.02 -0.09,-0.08 -0.5,-0.34 -1.65,-0.33 -2.32,-0.15 -0.68,0.19 -0.91,0.25 -1.49,0.62 -0.38,0.24 -0.44,0.07 -1.15,0.56l-0.75 0.7c-0.15,0.38 0.1,0.49 0.19,0.63l0.24 -0.01z"/>
    <path class="fil40" d="M36.08 64.42c-0.01,0.32 -0.18,0.9 -0.34,1.18 0.36,0.1 0.24,0 0.3,0.24l0.37 0.26 3.4 0.19c-0.3,-0.4 -0.49,0.08 -0.49,-0.36 0.16,-0.14 0.17,-0.03 0.4,-0.07 0.18,-0.03 0.17,-0.07 0.44,-0.08l-0.01 -0.21c-0.24,-0.21 -0.15,-0.81 -0.21,-1.13 -0.46,0.37 -0.12,0.49 -0.91,0.38 -0.26,-0.03 -0.12,0.1 -0.47,0.16 -0.29,0.04 -0.3,-0.04 -0.53,-0.1 -0.21,-0.06 -0.64,0.34 -1.02,-0.04 -0.3,-0.3 0.03,-0.13 -0.45,-0.27 -0.23,-0.06 -0.31,-0.15 -0.38,-0.3l-0.07 0.04 -0.03 0.11z"/>
    <path class="fil5" d="M73.04 54.5c-0.16,0.18 -0.08,0.74 -0.78,1.13 -0.24,0.14 -0.37,0.23 -0.77,0.21 -0.44,-0.03 -0.39,-0.22 -0.67,-0.29 -0.21,-0.05 -0.86,-0.51 -0.97,-0.6 -0.27,-0.23 -0.7,-0.74 -0.97,-0.21 0.07,0.23 0.58,0.64 0.77,0.79 0.6,0.48 1.33,0.89 2.12,0.98 0.37,0.05 0.97,0.15 1.33,0.1l0.16 -0.03c0.19,-0.05 0.17,-0.1 0.2,-0.57 0.03,-0.4 0.21,-0.67 0.06,-1.21 -0.06,-0.22 -0.04,-0.01 -0.08,-0.29 -0.02,-0.11 0,-0.18 -0.01,-0.27 -0.2,0.05 0.03,0.2 -0.39,0.26z"/>
    <path class="fil41" d="M36.18 64.27c0.07,0.15 0.15,0.24 0.38,0.3 0.48,0.14 0.15,-0.03 0.45,0.27 0.38,0.38 0.81,-0.02 1.02,0.04 0.23,0.06 0.24,0.14 0.53,0.1 0.35,-0.06 0.21,-0.19 0.47,-0.16 0.79,0.11 0.45,-0.01 0.91,-0.38 0.06,0.32 -0.03,0.92 0.21,1.13 0.19,-0.06 -0.04,-0.01 0.36,0.28l0.31 -0.09c-0.08,-0.18 -0.09,0.03 -0.13,-0.27l0.1 -0.06c-0.16,-0.1 -0.17,-0.02 -0.21,-0.56l-0.14 -1.43c-0.07,-0.36 -0.18,-0.16 -0.32,-0.47l-0.28 -0.03 -0.38 0c0,0.72 -0.15,0.55 0.08,0.8 -0.07,0.1 -0.14,0.08 -0.25,0.25 -0.09,0.14 -0.11,0.2 -0.21,0.34 -0.17,0.23 -0.25,0.52 -0.59,0.41 0,-0.3 0.2,-0.32 0.22,-0.77l-0.31 0.24c-0.2,0.16 -0.39,0.31 -0.61,0.39 -0.2,0.07 -0.31,0.1 -0.46,0 0.08,-0.35 0.14,-0.11 0.57,-0.44 0.22,-0.16 0.38,-0.35 0.43,-0.71 -0.5,0.06 -0.56,0.82 -1.5,0.94 -0.45,0.05 -0.13,-0.3 -0.65,-0.12z"/>
    <path class="fil42" d="M33.23 74.7c-0.09,0.05 -0.22,0.05 -0.04,0.37 0.04,0.08 0.14,0.27 0.17,0.32 0.08,-0.02 0.21,-0.02 0.31,0 0.17,0.04 0.35,-0.03 0.14,0.19 0.06,-0.28 0.2,-0.17 0.43,-0.29 0.17,-0.08 0.26,-0.21 0.28,-0.43 -0.7,0.01 -0.85,0.23 -0.77,-0.56 0.31,-0.06 0.52,-0.08 0.82,-0.01l0.01 0.43c-0.02,0.01 -0.06,0.24 0.2,-0.03l-0.25 -0.06 0.23 -2.22c0.04,-0.14 0.07,-0.18 0.15,-0.35 -0.2,0.05 -0.41,0.11 -0.66,0.08 -0.19,-0.02 -0.18,0.07 -0.28,-0.35l-0.02 -0.07 0 0.2c-0.28,0.19 -0.29,0.04 -0.35,0.42l-0.2 2.1c0.15,0.09 0.27,0.09 0.26,0.32 -0.18,0.02 -0.31,0.01 -0.43,-0.06z"/>
    <path class="fil34" d="M35.83 63.04l0.13 -0.15c0.14,-0.26 -0.02,-0.44 0.17,-0.73 0.09,-0.12 0.2,-0.2 0.29,-0.27 0.26,-0.2 0.09,-0.06 0.21,-0.39 0.25,-0.1 0.3,-0.11 0.65,-0.11l0.1 0.93c0.22,0.01 0.36,-0.03 0.52,-0.11 0.37,-0.2 0.3,-0.09 0.4,-0.16 -0.01,-0.42 -0.13,-0.72 -0.22,-1.1 -0.2,-0.06 -0.2,-0.24 -0.35,-0.38 -0.2,-0.18 -0.38,-0.09 -0.57,-0.19 -0.57,0.05 -0.78,0.54 -0.96,1.02 -0.14,0.36 -0.35,1.2 -0.37,1.64z"/>
    <path class="fil43" d="M69.63 56.19l-0.81 -0.37c0.01,0.03 0.02,0.03 0.03,0.05 0.03,0.14 1.33,0.91 1.44,0.96 0.29,0.14 0.52,0.28 0.82,0.39 0.14,0.04 0.34,0.08 0.51,0.03 0.02,-0.01 0.06,-0.03 0.08,-0.03l0.33 -0.15 0 -0.27c-0.89,-0.29 -0.91,-0.03 -1.93,-0.67l-0.69 -0.43c-0.14,-0.12 -0.13,-0.16 -0.31,-0.25 0.2,0.4 0.56,0.51 0.53,0.74z"/>
    <path class="fil39" d="M68.17 58.16c-0.2,-0.1 -0.33,-0.2 -0.57,-0.21 0.24,0.29 1.07,0.8 1.51,1.01 0.26,0.13 0.56,0.31 0.94,0.32 0.44,0.02 0.9,0.08 0.94,-0.33 -0.18,-0.11 -1.57,-0.34 -1.97,-0.52 -0.5,-0.22 -1.26,-0.67 -1.5,-1.01l0.65 0.74z"/>
    <path class="fil44" d="M33.23 74.7c0.12,0.07 0.25,0.08 0.43,0.06 0.01,-0.23 -0.11,-0.23 -0.26,-0.32l0.2 -2.1c0.06,-0.38 0.07,-0.23 0.35,-0.42l0 -0.2c-0.84,-0.03 -0.7,0.48 -0.78,1.24 -0.03,0.31 -0.05,0.63 -0.1,0.95 -0.06,0.43 -0.09,0.53 0.16,0.79z"/>
    <path class="fil45" d="M36.08 64.42l0.03 -0.11c0.03,-0.31 0.09,-0.42 0.17,-0.67 0.23,0.02 0.66,0.16 1.1,-0.29 0.86,-0.86 0.51,-0.29 0.9,-0.46 -0.17,-0.13 -1.68,-0.24 -1.96,-0.15 0.61,0.31 0.2,0.4 0.07,0.56 -0.07,0.09 -0.38,0.97 -0.31,1.12z"/>
   </g>
  </g>
 </g>
</svg>
