<?xml version="1.0" encoding="UTF-8"?>
<!DOCTYPE svg PUBLIC "-//W3C//DTD SVG 1.1//EN" "http://www.w3.org/Graphics/SVG/1.1/DTD/svg11.dtd">
<!-- Creator: CorelDRAW 2020 (64 Bit) -->
<svg xmlns="http://www.w3.org/2000/svg" xml:space="preserve" width="280px" height="280px" version="1.1" style="shape-rendering:geometricPrecision; text-rendering:geometricPrecision; image-rendering:optimizeQuality; fill-rule:evenodd; clip-rule:evenodd"
viewBox="0 0 62.07 62.01"
 xmlns:xlink="http://www.w3.org/1999/xlink"
 xmlns:xodm="http://www.corel.com/coreldraw/odm/2003">
 <defs>
  <style type="text/css">
   <![CDATA[
    .str0 {stroke:#2D4C7D;stroke-width:0.52;stroke-miterlimit:22.9256}
    .fil0 {fill:#00AFEF}
    .fil2 {fill:#2D4C7D}
    .fil3 {fill:#2D4C7D}
    .fil1 {fill:#567FBC}
   ]]>
  </style>
 </defs>
 <g id="Camada_x0020_1">
  <metadata id="CorelCorpID_0Corel-Layer"/>
  <path class="fil0" d="M27.05 33.28l8.19 0c2.19,0 3.61,0.93 4.51,2.1 1.18,1.54 1.06,3.16 1.06,5.55 0,4.42 0,8.83 0,13.25 -2.44,0.28 -2.98,0.45 -5.37,0.41 -4.5,-0.07 -8.82,-1.46 -12.53,-3.62 -0.46,-0.27 -1.04,-0.72 -1.47,-0.9 0.06,-3.73 -0.04,-7.48 0,-11.21 0.02,-1.93 0.54,-3.02 1.57,-4.04 0.92,-0.91 2.19,-1.54 4.04,-1.54zm10.41 -1.72c0.5,-0.26 4.2,-0.09 5.13,-0.09 2.01,-0.01 2.95,0.23 4.03,1.18 1.91,1.69 1.49,4.2 1.49,6.03 0,1.29 -0.13,10.11 0.02,10.59 -0.81,0.03 -1.69,0.24 -2.43,0.29 -0.97,0.07 -1.98,0.02 -2.95,0.02 0.12,-0.3 0.11,-10.54 0.04,-11.64 -0.06,-0.87 -0.29,-1.65 -0.57,-2.32 -0.35,-0.85 -0.62,-1.16 -1.14,-1.77 -0.51,-0.61 -0.87,-0.97 -1.6,-1.42 -0.55,-0.34 -1.29,-0.75 -2.02,-0.87zm-18.07 15.17l-1.57 -0.59c-0.02,0 -0.04,-0.01 -0.05,-0.02 -0.02,0 -0.04,-0.02 -0.06,-0.02l-2.36 -1.23c-0.44,-0.24 -1,-0.73 -1.45,-0.83 0.31,-0.66 0.1,-8 0.1,-9.43 0,-1.65 0.23,-2.34 1.32,-3.44 0.83,-0.83 1.83,-1.32 3.44,-1.32l4.77 0c0.24,0 1.7,1.46 1.76,1.55l-1.23 0.33c-1.59,0.41 -3.6,2.33 -4.09,3.93l-0.08 0.21c-0.01,0.02 -0.02,0.04 -0.03,0.06 -0.01,0.01 -0.02,0.04 -0.03,0.06 -0.01,0.02 -0.03,0.04 -0.04,0.06 -0.2,0.45 -0.11,0.53 -0.23,0.92 -0.36,1.13 -0.17,8.42 -0.17,9.76zm4.16 -22.16c-0.43,-4.04 2.34,-7.48 6.46,-8.02 4.13,-0.54 7.7,2.95 7.9,6.57 0.24,4.44 -2.75,7.37 -6.68,7.8 -3.87,0.42 -7.3,-2.79 -7.68,-6.35zm-20.53 -7.17l-1.16 2.61c-0.07,0.91 -1.86,4.51 -1.86,10.15 0,2.18 0.01,3.82 0.33,5.69l0.79 3.66c0.11,0.46 0.29,0.78 0.34,1.22l1.34 3.32c0.16,0.34 0.42,0.75 0.51,1.13l1.47 2.5 1.76 2.47c1,1.33 1.93,2.22 3.07,3.36 0.19,0.19 0.31,0.33 0.51,0.52l3.04 2.44 2.7 1.67c6.94,3.87 17.3,5.46 26.3,1.84 5.2,-2.09 9.5,-5.14 13.05,-9.54l1.36 -1.84c2.84,-3.81 4.59,-9.14 5.26,-14.03 0.93,-6.82 -0.88,-13.98 -4.24,-19.62 -0.21,-0.36 -0.49,-0.67 -0.59,-1.06 -0.29,-0.2 -0.65,-0.83 -0.91,-1.17l-2.72 -3.29 -0.2 -0.2 -1.46 -1.46 -1.32 -1.05c-5.17,-4.11 -11.82,-6.72 -18.68,-6.72 -6.02,0 -9.78,0.81 -15.03,3.42 -3.55,1.77 -7.65,5.09 -10.1,8.35 -1.6,2.12 -1.43,1.96 -2.77,4.17 -0.29,0.47 -0.46,1.05 -0.79,1.46z"/>
  <path class="fil1" d="M42.59 31.47c-0.93,0 -4.63,-0.17 -5.13,0.09 0.73,0.12 1.47,0.53 2.02,0.87 0.73,0.45 1.09,0.81 1.6,1.42 0.52,0.61 0.79,0.92 1.14,1.77 0.28,0.67 0.51,1.45 0.57,2.32 0.07,1.1 0.08,11.34 -0.04,11.64 0.97,0 1.98,0.05 2.95,-0.02 0.74,-0.05 1.62,-0.26 2.43,-0.29 -0.15,-0.48 -0.02,-9.3 -0.02,-10.59 0,-1.83 0.42,-4.34 -1.49,-6.03 -1.08,-0.95 -2.02,-1.19 -4.03,-1.18z"/>
  <path class="fil2" d="M19.39 46.73c0,-1.34 -0.19,-8.63 0.17,-9.76 0.12,-0.39 0.03,-0.47 0.23,-0.92 0.01,-0.02 0.03,-0.04 0.04,-0.06 0.01,-0.02 0.02,-0.05 0.03,-0.06 0.01,-0.02 0.02,-0.04 0.03,-0.06l0.08 -0.21c0.49,-1.6 2.5,-3.52 4.09,-3.93l1.23 -0.33c-0.06,-0.09 -1.52,-1.55 -1.76,-1.55l-4.77 0c-1.61,0 -2.61,0.49 -3.44,1.32 -1.09,1.1 -1.32,1.79 -1.32,3.44 0,1.43 0.21,8.77 -0.1,9.43 0.45,0.1 1.01,0.59 1.45,0.83l2.36 1.23c0.02,0 0.04,0.02 0.06,0.02 0.01,0.01 0.03,0.02 0.05,0.02l1.57 0.59z"/>
  <path class="fil3 str0" d="M22.91 27.97c0.14,0.27 0.21,0.3 0.3,0.56 -0.85,0.27 -2.38,-0.05 -3.15,-0.36 -2.52,-1 -4.29,-3.55 -3.82,-6.5 0.28,-1.79 1.61,-3.29 3.09,-4.14 2.14,-1.23 3.72,-0.9 5.8,-0.31 -0.25,0.05 -0.59,0.48 -0.78,0.69 -2.41,2.59 -3.1,6.19 -1.76,9.39 0.1,0.24 0.18,0.41 0.32,0.67z"/>
  <path class="fil1" d="M37.77 29.32c-0.2,0.23 -0.28,0.25 -0.42,0.48 0.76,0.46 2.33,0.48 3.15,0.35 2.68,-0.41 4.97,-2.5 5.18,-5.48 0.13,-1.8 -0.83,-3.56 -2.09,-4.72 -1.81,-1.68 -3.42,-1.72 -5.58,-1.6 0.23,0.1 0.47,0.6 0.61,0.84 1.77,3.07 1.63,6.73 -0.39,9.55 -0.15,0.21 -0.26,0.36 -0.46,0.58z"/>
 </g>
</svg>
