<?xml version="1.0" encoding="UTF-8"?>
<!DOCTYPE svg PUBLIC "-//W3C//DTD SVG 1.1//EN" "http://www.w3.org/Graphics/SVG/1.1/DTD/svg11.dtd">
<!-- Creator: CorelDRAW 2020 (64 Bit) -->
<svg xmlns="http://www.w3.org/2000/svg" xml:space="preserve" width="554px" height="444px" version="1.1" style="shape-rendering:geometricPrecision; text-rendering:geometricPrecision; image-rendering:optimizeQuality; fill-rule:evenodd; clip-rule:evenodd"
viewBox="0 0 134.54 107.76"
 xmlns:xlink="http://www.w3.org/1999/xlink"
 xmlns:xodm="http://www.corel.com/coreldraw/odm/2003">
 <defs>
  <style type="text/css">
   <![CDATA[
    .fil0 {fill:#FEFEFE}
   ]]>
  </style>
    <clipPath id="id0">
     <path d="M0 0l134.54 0 0 107.76 -134.54 0 0 -107.76z"/>
    </clipPath>
 </defs>
 <g id="Camada_x0020_1">
  <metadata id="CorelCorpID_0Corel-Layer"/>
  <g id="_2383429210832">
   <g style="clip-path:url(#id0)">
    <image x="0" y="0" width="134.54" height="107.76" xlink:href="experiencia_Images\experiencia_ImgID1.png"/>
   </g>
  </g>
  <g id="_2383429207424">
   <path class="fil0" d="M38.17 37.36c-0.17,-1.69 -0.35,-2.87 0.29,-4.41l16.29 0.07 0 4.33 -16.58 0.01zm-29.24 3.12l0 11.25c2.35,1.29 4.5,2.8 6.92,4.27 2.29,1.39 4.8,2.48 7.32,3.76 3.56,1.8 12.34,5.26 16.62,5.57 -0.06,-6.29 0.01,-7.3 6.54,-7.3 7.08,0.01 6.79,0.79 6.79,7.52 8.89,-1.4 25.94,-9.27 30.88,-13.8 -0.12,-6.45 1.95,-14.11 -4.9,-14.35 -4.81,-0.16 -15.41,0.67 -19.36,-0.19 -0.12,-9.76 1.05,-8.31 -13.41,-8.31 -14.46,0 -13.04,-1.43 -13.2,8.51l-20.34 0.07c-2.49,0.31 -2.85,1.39 -3.86,3z"/>
   <path class="fil0" d="M8.93 86.85c2.23,3.14 0.18,1.25 3.66,3.29l67.87 0c4.73,-2.53 3.52,-3.24 3.52,-14.02 0,-5.91 -0.08,-11.87 0.02,-17.77l-14.26 7.17c-4.28,1.89 -11.4,4.35 -16.54,5.15 -0.51,6.58 1.05,7.86 -6.43,7.85 -7.05,-0.02 -6.99,-0.82 -6.98,-7.76 -6.85,-2.32 -7.32,-1.65 -16.35,-5.32 -5.52,-2.25 -9.7,-5.12 -14.51,-7.56l0 28.97z"/>
   <path class="fil0" d="M118.6 42.4l0 -5.08c-2.59,-3.98 -1.21,-2.45 -8.56,-3.36l-2 -5.81c0.72,-0.47 4.12,-3.52 4.49,-4.5 1.06,-2.8 -1.22,-4.64 -2.28,-5.94 -4.82,-5.89 -6.44,-1.73 -10.35,0.98 -0.98,-0.39 -4.6,-2.28 -5.68,-2.94 -0.13,-2.36 0.59,-5.05 -0.7,-6.79 -1.51,-2.03 -3.64,-0.91 -5.89,-1.71l-2.64 0c-3.37,2.23 -2.85,1.24 -3.23,7.37 -2.23,0.86 -4.46,1.26 -6.52,2.24 -3.58,-3.08 -4.37,-5.88 -9.48,-1.66 -4.19,3.44 -4.93,5.54 -0.21,9.37 -0.53,2.21 -1.98,3.58 -2.79,6.51 3.02,0 6.05,-0.01 9.08,0 5.96,0.02 3.82,0.53 7.26,-2.14 3.99,-3.11 9.57,-3.43 14.02,-0.88 9.23,5.29 7.87,19.11 -1.33,22.52l0 11.99c2.65,-0.55 3.93,-1.5 6.01,-2.13 4.06,5.54 5.96,6.19 10.18,2.1 4.18,-4.05 4.59,-4.34 -1.15,-10.65 0.79,-1.83 1.67,-3.27 2.43,-5.48 8.77,0.38 7.48,0.39 9.34,-4.01z"/>
   <polygon class="fil0" points="43.36,74.35 49.47,74.43 49.49,62.16 43.53,62.21 "/>
   <path class="fil0" d="M8.93 90.14l3.66 0c-3.48,-2.04 -1.43,-0.15 -3.66,-3.29l0 3.29z"/>
  </g>
 </g>
</svg>
