<?xml version="1.0" encoding="UTF-8"?>
<!DOCTYPE svg PUBLIC "-//W3C//DTD SVG 1.1//EN" "http://www.w3.org/Graphics/SVG/1.1/DTD/svg11.dtd">
<!-- Creator: CorelDRAW 2020 (64 Bit) -->
<svg xmlns="http://www.w3.org/2000/svg" xml:space="preserve" width="3359px" height="3314px" version="1.1" style="shape-rendering:geometricPrecision; text-rendering:geometricPrecision; image-rendering:optimizeQuality; fill-rule:evenodd; clip-rule:evenodd"
viewBox="0 0 4721.77 4657.63"
 xmlns:xlink="http://www.w3.org/1999/xlink"
 xmlns:xodm="http://www.corel.com/coreldraw/odm/2003">
 <defs>
  <style type="text/css">
   <![CDATA[
    .str0 {stroke:#FEFEFE;stroke-width:3.32;stroke-miterlimit:22.9256}
    .fil30 {fill:#FEFEFE}
    .fil28 {fill:#FEFEFE;fill-rule:nonzero}
    .fil1 {fill:#91B3FA;fill-rule:nonzero}
    .fil2 {fill:#BDD0FB;fill-rule:nonzero}
    .fil19 {fill:url(#id0)}
    .fil17 {fill:url(#id1)}
    .fil31 {fill:url(#id2)}
    .fil0 {fill:url(#id3)}
    .fil18 {fill:url(#id4)}
    .fil5 {fill:url(#id5)}
    .fil16 {fill:url(#id6)}
    .fil27 {fill:url(#id7)}
    .fil12 {fill:url(#id8)}
    .fil6 {fill:url(#id9)}
    .fil3 {fill:url(#id10)}
    .fil23 {fill:url(#id11)}
    .fil11 {fill:url(#id12)}
    .fil14 {fill:url(#id13)}
    .fil8 {fill:url(#id14)}
    .fil9 {fill:url(#id15)}
    .fil20 {fill:url(#id16)}
    .fil21 {fill:url(#id17)}
    .fil22 {fill:url(#id18)}
    .fil7 {fill:url(#id19)}
    .fil13 {fill:url(#id20)}
    .fil25 {fill:url(#id21)}
    .fil15 {fill:url(#id22)}
    .fil4 {fill:url(#id23)}
    .fil10 {fill:url(#id24)}
    .fil32 {fill:url(#id25)}
    .fil29 {fill:url(#id26)}
    .fil26 {fill:url(#id27)}
    .fil24 {fill:url(#id28)}
   ]]>
  </style>
  <linearGradient id="id0" gradientUnits="userSpaceOnUse" x1="2364.8" y1="5118.02" x2="2429.82" y2="3686.35">
   <stop offset="0" style="stop-opacity:1; stop-color:#09005D"/>
   <stop offset="1" style="stop-opacity:1; stop-color:#1A0F91"/>
  </linearGradient>
  <linearGradient id="id1" gradientUnits="userSpaceOnUse" x1="1728.33" y1="1462.93" x2="1470.29" y2="1875.99">
   <stop offset="0" style="stop-opacity:1; stop-color:#4F52FF"/>
   <stop offset="1" style="stop-opacity:1; stop-color:#4042E2"/>
  </linearGradient>
  <linearGradient id="id2" gradientUnits="userSpaceOnUse" x1="4517.84" y1="882.64" x2="551.6" y2="8263.73">
   <stop offset="0" style="stop-opacity:1; stop-color:#FF928E"/>
   <stop offset="1" style="stop-opacity:1; stop-color:#FE7062"/>
  </linearGradient>
  <linearGradient id="id3" gradientUnits="userSpaceOnUse" x1="4987.71" y1="4582.84" x2="1769.01" y2="1652.54">
   <stop offset="0" style="stop-opacity:1; stop-color:#DAE3FE"/>
   <stop offset="1" style="stop-opacity:1; stop-color:#E9EFFD"/>
  </linearGradient>
  <linearGradient id="id4" gradientUnits="userSpaceOnUse" xlink:href="#id1" x1="1492.79" y1="1861.85" x2="1131.68" y2="871.83">
  </linearGradient>
  <linearGradient id="id5" gradientUnits="userSpaceOnUse" xlink:href="#id1" x1="1829.31" y1="2657.83" x2="450.42" y2="4356.67">
  </linearGradient>
  <linearGradient id="id6" gradientUnits="userSpaceOnUse" xlink:href="#id1" x1="2472.85" y1="1225.29" x2="47.47" y2="1954.53">
  </linearGradient>
  <linearGradient id="id7" gradientUnits="userSpaceOnUse" xlink:href="#id2" x1="3647.46" y1="414.98" x2="-318.79" y2="7796.33">
  </linearGradient>
  <linearGradient id="id8" gradientUnits="userSpaceOnUse" x1="1826.87" y1="1713.4" x2="1248.5" y2="2125.84">
   <stop offset="0" style="stop-opacity:1; stop-color:#FEBBBA"/>
   <stop offset="1" style="stop-opacity:1; stop-color:#FF928E"/>
  </linearGradient>
  <linearGradient id="id9" gradientUnits="userSpaceOnUse" xlink:href="#id8" x1="998.54" y1="3052.09" x2="1708.78" y2="2159.54">
  </linearGradient>
  <linearGradient id="id10" gradientUnits="userSpaceOnUse" xlink:href="#id1" x1="2187.82" y1="5416.57" x2="1874.02" y2="4290.76">
  </linearGradient>
  <linearGradient id="id11" gradientUnits="userSpaceOnUse" xlink:href="#id0" x1="3107.4" y1="4180.53" x2="3928.92" y2="4717.8">
  </linearGradient>
  <linearGradient id="id12" gradientUnits="userSpaceOnUse" xlink:href="#id0" x1="1530.13" y1="1298.03" x2="2060.57" y2="2218.57">
  </linearGradient>
  <linearGradient id="id13" gradientUnits="userSpaceOnUse" xlink:href="#id1" x1="1871.03" y1="1723.86" x2="1297.25" y2="2434.06">
  </linearGradient>
  <linearGradient id="id14" gradientUnits="userSpaceOnUse" xlink:href="#id0" x1="1414.7" y1="2868.77" x2="794.7" y2="3332.18">
  </linearGradient>
  <linearGradient id="id15" gradientUnits="userSpaceOnUse" xlink:href="#id8" x1="1369.87" y1="3982.39" x2="-633.9" y2="6914.39">
  </linearGradient>
  <linearGradient id="id16" gradientUnits="userSpaceOnUse" xlink:href="#id0" x1="3288.42" y1="2681.77" x2="3775.99" y2="3931.77">
  </linearGradient>
  <linearGradient id="id17" gradientUnits="userSpaceOnUse" xlink:href="#id0" x1="3228.93" y1="3181.15" x2="3507.86" y2="4897.76">
  </linearGradient>
  <linearGradient id="id18" gradientUnits="userSpaceOnUse" xlink:href="#id0" x1="3229.36" y1="3179.53" x2="3508.79" y2="4898.64">
  </linearGradient>
  <linearGradient id="id19" gradientUnits="userSpaceOnUse" xlink:href="#id1" x1="1278.36" y1="2188.57" x2="190.29" y2="4166.08">
  </linearGradient>
  <linearGradient id="id20" gradientUnits="userSpaceOnUse" xlink:href="#id0" x1="1038.38" y1="3983.3" x2="2255.89" y2="4340.21">
  </linearGradient>
  <linearGradient id="id21" gradientUnits="userSpaceOnUse" xlink:href="#id0" x1="3103.78" y1="4179.37" x2="3929.43" y2="4720.48">
  </linearGradient>
  <linearGradient id="id22" gradientUnits="userSpaceOnUse" xlink:href="#id1" x1="2095.36" y1="1913.52" x2="1754.09" y2="2359.8">
  </linearGradient>
  <linearGradient id="id23" gradientUnits="userSpaceOnUse" xlink:href="#id8" x1="1918.71" y1="3789.98" x2="2776.34" y2="4008.93">
  </linearGradient>
  <linearGradient id="id24" gradientUnits="userSpaceOnUse" xlink:href="#id8" x1="1982.18" y1="1791.15" x2="1241.22" y2="2261.48">
  </linearGradient>
  <linearGradient id="id25" gradientUnits="userSpaceOnUse" xlink:href="#id2" x1="1776.01" y1="-583.87" x2="-2190.24" y2="6797.69">
  </linearGradient>
  <linearGradient id="id26" gradientUnits="userSpaceOnUse" xlink:href="#id2" x1="2581.65" y1="-155.28" x2="-1384.6" y2="7226.19">
  </linearGradient>
  <linearGradient id="id27" gradientUnits="userSpaceOnUse" xlink:href="#id0" x1="3103.79" y1="4179.37" x2="3929.46" y2="4720.47">
  </linearGradient>
  <linearGradient id="id28" gradientUnits="userSpaceOnUse" xlink:href="#id0" x1="3105.09" y1="4179.97" x2="3929.26" y2="4719.16">
  </linearGradient>
 </defs>
 <g id="Camada_x0020_1">
  <metadata id="CorelCorpID_0Corel-Layer"/>
  <path class="fil0" d="M4518.66 3142.14c-447.01,1052.59 -1637.82,1642.25 -2670.48,1483.19 -168.03,-25.89 -628.69,-102.99 -1036.56,-466.71 -785.15,-700.2 -953.06,-2086.69 -319.7,-3063.78 460.97,-711.14 1287.33,-1114.26 2072.51,-1094.12 169.13,4.33 817.32,31.1 1386.94,500.83 83.7,69 268.22,232.92 434.56,493.02 390.49,610.72 424.06,1461.59 132.73,2147.57z"/>
  <path class="fil1" d="M1736.23 1534.87c-3.1,-0.24 -6.02,-1.95 -7.66,-4.86 -6.24,-10.98 -12.8,-21.95 -19.53,-32.59 -2.84,-4.49 -1.49,-10.43 2.99,-13.26 4.49,-2.83 10.44,-1.49 13.27,2.98 6.89,10.9 13.63,22.13 20.01,33.4 2.61,4.62 0.99,10.48 -3.62,13.1 -1.73,0.97 -3.62,1.36 -5.46,1.23z"/>
  <path class="fil1" d="M1812.18 1718.53c-3.93,-0.29 -7.44,-3 -8.55,-7.03 -6.66,-24.09 -14.48,-48.06 -23.29,-71.28 -1.88,-4.96 0.62,-10.5 5.58,-12.4 4.96,-1.86 10.53,0.6 12.42,5.6 9,23.73 17.01,48.3 23.83,72.96 1.42,5.12 -1.59,10.41 -6.72,11.83 -1.09,0.3 -2.19,0.4 -3.27,0.32zm29.2 196.64c-4.88,-0.36 -8.77,-4.37 -8.89,-9.34 -0.62,-24.88 -2.44,-50.05 -5.39,-74.79 -0.62,-5.28 3.14,-10.07 8.41,-10.71 5.3,-0.64 10.07,3.15 10.69,8.42 3.02,25.33 4.89,51.11 5.53,76.59 0.11,5.31 -4.07,9.73 -9.4,9.86 -0.32,0 -0.64,0 -0.95,-0.03zm-19.64 197.85c-0.47,-0.03 -0.94,-0.11 -1.42,-0.22 -5.19,-1.17 -8.42,-6.31 -7.25,-11.5 5.51,-24.33 9.91,-49.18 13.1,-73.84 0.69,-5.26 5.53,-9.14 10.79,-8.3 5.26,0.67 8.98,5.5 8.3,10.77 -3.28,25.25 -7.78,50.7 -13.43,75.62 -1.07,4.7 -5.42,7.81 -10.09,7.47zm-67.47 186.94c-1.23,-0.11 -2.46,-0.42 -3.63,-1.03 -4.74,-2.38 -6.63,-8.18 -4.23,-12.92 11.27,-22.23 21.62,-45.24 30.74,-68.39 1.95,-4.94 7.54,-7.34 12.47,-5.41 4.95,1.95 7.37,7.54 5.42,12.48 -9.34,23.69 -19.92,47.26 -31.47,70.02 -1.81,3.56 -5.54,5.53 -9.3,5.25zm-110.81 164.97c-2,-0.13 -3.97,-0.91 -5.58,-2.32 -4.02,-3.47 -4.45,-9.54 -0.98,-13.55 16.28,-18.81 31.89,-38.63 46.39,-58.9 3.09,-4.32 9.09,-5.33 13.42,-2.24 4.32,3.11 5.33,9.11 2.24,13.42 -14.84,20.77 -30.83,41.05 -47.51,60.3 -2.07,2.4 -5.06,3.51 -7.98,3.29zm-147.53 133.11c-2.78,-0.22 -5.44,-1.61 -7.17,-4.08 -3.04,-4.35 -1.98,-10.35 2.37,-13.39 20.38,-14.28 40.32,-29.69 59.3,-45.84 4.04,-3.42 10.1,-2.91 13.56,1.11 3.45,4.06 2.94,10.12 -1.1,13.56 -19.43,16.53 -39.86,32.31 -60.74,46.93 -1.88,1.31 -4.08,1.86 -6.22,1.71zm-175.62 92.9c-3.6,-0.27 -6.91,-2.57 -8.27,-6.16 -1.9,-4.98 0.61,-10.54 5.57,-12.42 23.34,-8.87 46.48,-18.93 68.76,-29.88 4.75,-2.32 10.53,-0.39 12.86,4.38 2.36,4.77 0.39,10.53 -4.38,12.89 -22.82,11.22 -46.5,21.52 -70.41,30.59 -1.36,0.52 -2.75,0.7 -4.13,0.6zm-193.02 47.38c-4.5,-0.34 -8.26,-3.81 -8.82,-8.45 -0.63,-5.28 3.13,-10.06 8.4,-10.71 23.97,-2.85 48.17,-6.87 71.92,-11.9l2.07 -0.44c5.19,-1.09 10.32,2.22 11.41,7.41 1.11,5.19 -2.22,10.31 -7.41,11.41l-2.07 0.43c-24.33,5.17 -49.09,9.27 -73.64,12.21 -0.62,0.07 -1.25,0.09 -1.86,0.04zm-155.26 3.57c-14.55,-0.9 -29.49,-2.58 -44,-4.44 -5.28,-0.7 -8.99,-5.51 -8.31,-10.79 0.68,-5.26 5.54,-8.86 10.76,-8.3 14.18,1.83 28.88,3.24 42.97,4.35 10.44,0.78 21.12,1.34 31.77,1.72 5.43,-0.22 9.46,4.61 9.28,9.92 -0.17,5.31 -4.62,9.48 -9.93,9.3 -10.91,-0.37 -21.86,-0.97 -32.54,-1.76z"/>
  <path class="fil1" d="M807.46 2712.29c-0.66,-0.04 -1.32,-0.16 -1.98,-0.35 -12.36,-3.59 -24.84,-7.52 -37.08,-11.71 -5.04,-1.71 -7.72,-7.17 -6,-12.21 1.71,-5.04 7.19,-7.78 12.2,-6 11.97,4.1 24.17,7.95 36.25,11.44 5.1,1.48 8.03,6.82 6.55,11.91 -1.28,4.46 -5.5,7.26 -9.94,6.92z"/>
  <path class="fil1" d="M313.5 2307.63c-3.22,-0.25 -6.23,-2.08 -7.83,-5.17 -5.9,-11.37 -11.65,-23.13 -17.09,-34.96 -2.22,-4.83 -0.11,-10.53 4.72,-12.77 4.84,-2.22 10.54,-0.08 12.76,4.72 5.31,11.56 10.92,23.05 16.69,34.16 2.44,4.72 0.6,10.51 -4.11,12.97 -1.64,0.85 -3.42,1.17 -5.14,1.05z"/>
  <path class="fil1" d="M1174.57 1137.41c-0.34,0 -0.68,-0.04 -0.99,-0.08 -24.16,-4.34 -48.77,-7.61 -73.15,-9.65 -5.29,-0.47 -9.21,-5.1 -8.77,-10.41 0.46,-5.22 5.06,-9.18 10.3,-8.75 0.03,0 0.06,0 0.1,0 24.96,2.08 50.16,5.44 74.91,9.86 5.22,0.93 8.7,5.94 7.76,11.17 -0.87,4.89 -5.31,8.24 -10.16,7.86zm-269.48 -2.42c-4.34,-0.34 -8.05,-3.61 -8.77,-8.07 -0.84,-5.27 2.74,-10.2 7.98,-11.01 24.79,-3.99 50.04,-6.84 75.07,-8.5 5.26,-0.34 9.88,3.66 10.25,8.97 0.35,5.27 -3.67,9.86 -8.97,10.2 -24.43,1.65 -49.11,4.41 -73.32,8.28 -0.75,0.13 -1.5,0.17 -2.24,0.13zm-188.02 53.62c-3.5,-0.26 -6.72,-2.43 -8.16,-5.87 -2.06,-4.88 0.23,-10.53 5.13,-12.57 23.11,-9.73 46.96,-18.53 70.88,-26.09 5.08,-1.61 10.47,1.23 12.07,6.29 1.61,5.05 -1.2,10.49 -6.27,12.06 -23.36,7.4 -46.65,15.94 -69.22,25.45 -1.45,0.64 -2.96,0.85 -4.43,0.73zm-169.62 97.2c-2.68,-0.21 -5.25,-1.51 -6.99,-3.83 -3.18,-4.25 -2.31,-10.28 1.95,-13.46 20.05,-15 41.07,-29.27 62.48,-42.37 4.53,-2.77 10.45,-1.36 13.23,3.18 2.77,4.52 1.35,10.45 -3.18,13.22 -20.91,12.8 -41.43,26.73 -61.02,41.37 -1.93,1.45 -4.24,2.05 -6.47,1.89zm-141.25 135.19c-1.91,-0.15 -3.78,-0.86 -5.37,-2.15 -4.11,-3.38 -4.72,-9.43 -1.35,-13.54 15.88,-19.39 32.87,-38.28 50.5,-56.17 3.72,-3.76 9.81,-3.81 13.59,-0.08 3.79,3.73 3.83,9.81 0.1,13.61 -17.21,17.45 -33.8,35.9 -49.31,54.83 -2.06,2.52 -5.14,3.72 -8.16,3.5zm-104.86 165.04c-1.17,-0.09 -2.33,-0.37 -3.44,-0.91 -4.79,-2.28 -6.82,-8.03 -4.53,-12.82 10.82,-22.64 22.81,-45.04 35.65,-66.59 2.71,-4.57 8.61,-6.08 13.19,-3.35 4.56,2.73 6.06,8.63 3.33,13.19 -12.53,21.04 -24.25,42.93 -34.81,65.04 -1.76,3.68 -5.56,5.72 -9.39,5.44zm-62.39 185.35c-0.41,-0.03 -0.82,-0.08 -1.24,-0.16 -5.2,-1.08 -8.54,-6.17 -7.48,-11.38 5.07,-24.58 11.35,-49.2 18.67,-73.19 1.55,-5.1 6.96,-7.93 12.01,-6.41 5.08,1.57 7.94,6.94 6.39,12.01 -7.14,23.45 -13.28,47.48 -18.22,71.49 -0.99,4.79 -5.38,8 -10.13,7.64zm-15.91 194.97c-4.8,-0.37 -8.68,-4.28 -8.88,-9.21 -1.02,-25.06 -0.87,-50.5 0.44,-75.55 0.27,-5.31 4.8,-9.39 10.1,-9.1 5.11,0.33 9.39,4.79 9.1,10.09 -1.27,24.48 -1.42,49.31 -0.42,73.77 0.21,5.31 -3.91,9.8 -9.22,10.02 -0.38,0.01 -0.75,0 -1.12,-0.02zm31.37 193.03c-3.89,-0.28 -7.38,-2.94 -8.52,-6.92 -5.45,-18.9 -10.29,-38.27 -14.39,-57.56 -1.12,-5.31 -2.19,-10.6 -3.21,-15.89 -1.01,-5.22 2.41,-10.26 7.63,-11.27 5.24,-1.03 10.25,2.42 11.26,7.62 1,5.18 2.04,10.37 3.14,15.56 4,18.82 8.73,37.73 14.05,56.22 1.47,5.08 -1.48,10.43 -6.58,11.89 -1.13,0.33 -2.27,0.44 -3.38,0.35z"/>
  <path class="fil1" d="M1328.46 1181.13c-0.94,-0.09 -1.89,-0.3 -2.83,-0.64 -11.67,-4.63 -23.67,-9.05 -35.65,-13.13 -5.02,-1.7 -7.71,-7.14 -6,-12.19 1.72,-5.01 7.2,-7.78 12.2,-5.99 12.27,4.16 24.56,8.67 36.52,13.42 4.95,1.96 7.36,7.52 5.41,12.5 -1.57,3.99 -5.55,6.33 -9.65,6.03z"/>
  <path class="fil1" d="M1331.57 1379.52c-3.4,-2.37 -7.94,-2.32 -11.28,0.13l-95.51 69.72c-51.32,-20.39 -106.26,-32.74 -163.01,-35.73l-57.6 -103.17c-2.04,-3.63 -6.12,-5.56 -10.2,-4.82l-139.62 25c-4.08,0.74 -7.25,3.98 -7.88,8.06l-18.22 116.76c-52.18,22.51 -99.42,53.15 -140.47,90.1l-113.77 -32.24c-3.99,-1.13 -8.26,0.4 -10.62,3.8l-81.04 116.4c-2.37,3.41 -2.32,7.93 0.13,11.28l69.72 95.5c-20.39,51.33 -32.73,106.26 -35.73,163.02l-103.17 57.62c-3.62,2.01 -5.56,6.1 -4.83,10.18l25.01 139.62c0.73,4.09 3.97,7.25 8.07,7.88l116.75 18.23c22.51,52.16 53.16,99.41 90.1,140.47l-32.24 113.76c-1.13,3.99 0.4,8.26 3.8,10.62l116.4 81.03c3.4,2.39 7.93,2.32 11.28,-0.12l95.5 -69.72c51.32,20.38 106.26,32.73 163.01,35.74l57.62 103.16c2.02,3.62 6.12,5.57 10.2,4.83l139.61 -25c4.08,-0.74 7.24,-3.98 7.88,-8.07l18.22 -116.75c52.19,-22.52 99.43,-53.18 140.47,-90.11l113.77 32.24c3.98,1.13 8.25,-0.4 10.62,-3.79l81.04 -116.41c2.37,-3.41 2.32,-7.93 -0.14,-11.27l-69.72 -95.51c20.4,-51.33 32.75,-106.26 35.74,-163.01l103.18 -57.62c3.62,-2.02 5.55,-6.12 4.83,-10.2l-25.02 -139.61c-0.72,-4.08 -3.96,-7.24 -8.07,-7.88l-116.75 -18.23c-22.52,-52.18 -53.16,-99.4 -90.1,-140.46l32.23 -113.77c1.13,-3.98 -0.38,-8.25 -3.79,-10.62l-116.4 -81.04z"/>
  <path class="fil2" d="M1042.12 1819.86c-18.35,-1.36 -36.84,1.87 -54.08,9.66 -56.03,25.32 -81.01,91.51 -55.7,147.54 12.29,27.15 34.38,47.88 62.25,58.41 27.87,10.52 58.16,9.56 85.31,-2.72 27.13,-12.26 47.88,-34.37 58.4,-62.24 10.51,-27.87 9.56,-58.16 -2.73,-85.31 -12.26,-27.13 -34.37,-47.88 -62.24,-58.4 -10.17,-3.83 -20.66,-6.15 -31.21,-6.94zm-18.42 251.33c-13.29,-0.99 -26.49,-3.9 -39.31,-8.72 -35.06,-13.25 -62.89,-39.36 -78.33,-73.51 -15.45,-34.17 -16.66,-72.31 -3.42,-107.39 13.24,-35.08 39.35,-62.9 73.5,-78.34 34.18,-15.44 72.31,-16.65 107.39,-3.43 35.08,13.24 62.9,39.35 78.34,73.52 15.45,34.17 16.66,72.31 3.42,107.39 -13.23,35.07 -39.34,62.88 -73.51,78.34 -21.69,9.8 -44.99,13.87 -68.08,12.14z"/>
  <path class="fil2" d="M1005.28 2289.52c-62.84,-4.68 -123.53,-26.1 -176.61,-63.07 -78.19,-54.42 -130.5,-136.04 -147.29,-229.82 -5.41,-30.12 -6.92,-60.34 -4.7,-90.1 4.69,-62.83 26.11,-123.49 63.05,-176.56 54.43,-78.19 136.06,-130.5 229.83,-147.31 2.45,-0.43 4.9,-0.85 7.36,-1.22 20.17,-3.19 40.57,-4.66 60.81,-4.39 2.52,0.03 5.04,0.1 7.56,0.19l-1.01 28.84c-23.15,-0.82 -46.58,0.86 -69.63,4.99l0 0c-81.6,14.62 -153.19,58.5 -203.04,124.1 -2.8,3.7 -5.54,7.46 -8.2,11.28 -33.95,48.78 -53.63,104.55 -57.95,162.29 -2.04,27.34 -0.64,55.12 4.32,82.8 15.43,86.19 63.51,161.21 135.38,211.25 71.86,50.02 158.9,69.07 245.09,53.62 150.22,-26.9 258.3,-152.75 269.15,-298.35 2,-26.86 0.69,-54.4 -4.27,-82.12 -10.48,-58.48 -36.55,-112.95 -75.41,-157.48l21.76 -18.97c42.28,48.47 70.66,107.72 82.05,171.36 5.41,30.16 6.83,60.11 4.65,89.35 -11.81,158.43 -129.41,295.34 -292.84,324.62 -30.11,5.39 -60.33,6.92 -90.06,4.7z"/>
  <path class="fil1" d="M2781.82 1161.71c-4.31,-0.34 -8.36,-2.84 -10.46,-6.97 -7.56,-14.82 -15.88,-29.48 -24.75,-43.5 -3.78,-5.95 -2,-13.9 3.98,-17.68 5.98,-3.74 13.9,-1.95 17.68,4 9.28,14.7 18.01,30.04 25.92,45.59 3.21,6.28 0.69,13.97 -5.61,17.2 -2.17,1.11 -4.49,1.53 -6.76,1.36z"/>
  <path class="fil1" d="M2842 1425.25c-6.74,-0.51 -12,-6.2 -11.84,-13.04 0.7,-33.7 -1.78,-67.75 -7.41,-101.19 -1.18,-6.99 3.53,-13.59 10.5,-14.75 6.97,-1.24 13.59,3.52 14.76,10.49 5.9,35.02 8.51,70.69 7.77,105.97 -0.16,7.09 -6.01,12.68 -13.07,12.55 -0.26,0 -0.47,-0.02 -0.71,-0.03zm-71.77 260.53c-1.83,-0.13 -3.65,-0.65 -5.36,-1.63 -6.15,-3.47 -8.31,-11.29 -4.82,-17.45 16.67,-29.45 30.65,-60.6 41.51,-92.57 2.29,-6.7 9.53,-10.31 16.27,-8 6.7,2.29 10.28,9.54 7.99,16.25 -11.39,33.48 -26.02,66.11 -43.49,96.95 -2.52,4.45 -7.31,6.8 -12.1,6.45zm-186.29 195.7c-3.9,-0.28 -7.63,-2.34 -9.88,-5.93 -3.78,-5.98 -2,-13.89 3.98,-17.67 28.54,-18.01 55.54,-38.87 80.25,-61.97 5.16,-4.84 13.26,-4.57 18.11,0.62 4.82,5.16 4.56,13.27 -0.62,18.09 -25.87,24.21 -54.16,46.03 -84.07,64.93 -2.4,1.53 -5.14,2.14 -7.77,1.93zm-256.86 84.07c-6.23,-0.47 -11.36,-5.44 -11.81,-11.86 -0.5,-7.05 4.8,-13.19 11.86,-13.69 24.8,-1.76 49.83,-5.31 74.41,-10.53 8.67,-1.84 17.23,-3.88 25.7,-6.1 6.86,-1.82 13.86,2.28 15.66,9.14 1.8,6.84 -2.3,13.84 -9.14,15.64 -8.87,2.33 -17.82,4.45 -26.91,6.38 -25.72,5.46 -51.93,9.17 -77.89,11.02 -0.63,0.05 -1.26,0.05 -1.88,0z"/>
  <path class="fil1" d="M2158.74 1951.61c-0.68,-0.05 -1.37,-0.16 -2.06,-0.32 -16.95,-4.08 -33.89,-9.01 -50.32,-14.65 -6.69,-2.29 -10.26,-9.56 -7.96,-16.26 2.29,-6.69 9.56,-10.25 16.26,-7.98 15.69,5.37 31.84,10.08 48.02,13.98 6.89,1.66 11.12,8.58 9.46,15.45 -1.5,6.18 -7.24,10.23 -13.4,9.78z"/>
  <path class="fil1" d="M1796.74 1668.39c-4.28,-0.32 -8.3,-2.77 -10.43,-6.87 -7.98,-15.4 -15.38,-31.43 -21.95,-47.63 -2.65,-6.53 0.51,-14.02 7.06,-16.68 6.55,-2.65 14.03,0.5 16.68,7.07 6.27,15.44 13.33,30.73 20.95,45.45 3.26,6.26 0.81,13.99 -5.47,17.25 -2.19,1.14 -4.55,1.58 -6.84,1.41z"/>
  <path class="fil1" d="M2176.57 870.72c-5.56,-0.38 -10.4,-4.42 -11.59,-10.15 -1.43,-6.93 3.04,-13.73 9.98,-15.17 34.22,-7.05 69.14,-10.96 103.8,-11.64 7.23,-0.43 12.93,5.48 13.06,12.57 0.13,7.06 -5.48,12.92 -12.55,13.05 -33.1,0.64 -66.45,4.37 -99.15,11.13 -1.2,0.25 -2.39,0.3 -3.55,0.21zm-239.87 114.42c-3.36,-0.26 -6.62,-1.83 -8.94,-4.63 -4.5,-5.48 -3.71,-13.56 1.75,-18.02 26.86,-22.13 55.96,-41.85 86.49,-58.67 6.2,-3.4 13.97,-1.11 17.4,5.05 3.39,6.21 1.14,13.98 -5.06,17.42 -29.13,16.02 -56.9,34.84 -82.55,55.96 -2.64,2.17 -5.92,3.14 -9.09,2.89zm-158.84 213.11c-1.35,-0.08 -2.71,-0.42 -4.04,-0.98 -6.51,-2.76 -9.56,-10.28 -6.82,-16.78 13.53,-32.08 30.11,-63.01 49.28,-92.11 3.9,-5.9 11.84,-7.52 17.75,-3.61 5.9,3.87 7.53,11.81 3.63,17.72 -18.29,27.78 -34.13,57.35 -47.06,87.94 -2.18,5.23 -7.4,8.2 -12.74,7.82zm-41.35 262.58c-6.15,-0.47 -11.24,-5.33 -11.79,-11.66 -2.65,-30.27 -2.86,-60.98 -0.61,-91.28 0.34,-4.43 0.73,-8.85 1.16,-13.27 0.71,-7.02 7.14,-11.74 14.01,-11.47 7.04,0.69 12.18,6.97 11.48,14.01 -0.42,4.2 -0.78,8.4 -1.1,12.63 -2.16,28.92 -1.96,58.23 0.57,87.15 0.63,7.03 -4.58,13.25 -11.64,13.87 -0.7,0.07 -1.41,0.07 -2.08,0.02z"/>
  <path class="fil1" d="M2491.07 897.74c-1.26,-0.08 -2.52,-0.34 -3.77,-0.85 -15.45,-6.11 -31.36,-11.55 -47.31,-16.19 -6.78,-1.95 -10.69,-9.09 -8.71,-15.89 1.96,-6.75 9.05,-10.7 15.87,-8.7 16.7,4.88 33.38,10.58 49.58,16.95 6.58,2.63 9.81,10.07 7.21,16.61 -2.12,5.35 -7.43,8.5 -12.87,8.07z"/>
  <path class="fil1" d="M2493.65 1027.28c-2.33,-1.65 -5.42,-1.61 -7.71,0.09l-65.33 47.67c-35.12,-13.94 -72.7,-22.39 -111.52,-24.43l-39.41 -70.57c-1.38,-2.51 -4.19,-3.83 -6.98,-3.32l-95.51 17.09c-2.78,0.5 -4.95,2.71 -5.39,5.56l-12.46 79.83c-35.7,15.43 -68.03,36.37 -96.1,61.65l-77.83 -22.05c-2.72,-0.76 -5.65,0.26 -7.26,2.59l-55.44 79.67c-1.63,2.29 -1.6,5.39 0.08,7.69l47.7 65.33c-13.95,35.11 -22.4,72.7 -24.44,111.52l-70.58 39.41c-2.49,1.38 -3.8,4.19 -3.31,6.97l17.12 95.51c0.48,2.79 2.7,4.96 5.51,5.4l79.87 12.46c15.4,35.7 36.37,68.01 61.63,96.1l-22.04 77.83c-0.77,2.72 0.27,5.64 2.59,7.26l79.63 55.44c2.34,1.63 5.43,1.58 7.71,-0.08l65.34 -47.7c35.11,13.94 72.69,22.39 111.52,24.44l39.41 70.58c1.39,2.47 4.18,3.8 6.97,3.31l95.53 -17.12c2.79,-0.49 4.95,-2.7 5.37,-5.51l12.47 -79.87c35.7,-15.4 68.02,-36.37 96.09,-61.64l77.84 22.04c2.72,0.78 5.65,-0.26 7.26,-2.58l55.44 -79.64c1.63,-2.33 1.59,-5.42 -0.09,-7.72l-47.69 -65.32c13.94,-35.11 22.39,-72.69 24.44,-111.52l70.58 -39.41c2.48,-1.4 3.81,-4.18 3.31,-6.99l-17.12 -95.49c-0.49,-2.81 -2.71,-4.97 -5.51,-5.41l-79.87 -12.47c-15.4,-35.68 -36.37,-68.01 -61.64,-96.09l22.06 -77.84c0.77,-2.72 -0.27,-5.61 -2.6,-7.26l-79.64 -55.41z"/>
  <path class="fil2" d="M2262.5 1343.63c-33.65,15.19 -48.63,54.94 -33.43,88.57 15.2,33.62 54.92,48.64 88.57,33.42 33.63,-15.21 48.62,-54.94 33.43,-88.57 -15.2,-33.62 -54.93,-48.64 -88.57,-33.42l0 0zm19.89 166.05c-37.24,-2.77 -71.9,-25.3 -88.33,-61.65 -23.94,-52.94 -0.34,-115.49 52.6,-139.42l0 0c52.95,-23.93 115.5,-0.32 139.42,52.61 23.93,52.94 0.32,115.48 -52.61,139.43 -16.57,7.47 -34.09,10.31 -51.08,9.03z"/>
  <path class="fil2" d="M2269.73 1659.1c-44.64,-3.3 -87.75,-18.53 -125.45,-44.78 -55.54,-38.66 -92.68,-96.64 -104.63,-163.23 -3.83,-21.41 -4.9,-42.88 -3.33,-64.01 3.33,-44.62 18.55,-87.71 44.79,-125.41 38.66,-55.56 96.64,-92.69 163.25,-104.63 17.79,-3.19 35.88,-4.5 53.79,-3.87l-1.36 38.41c-15.17,-0.51 -30.54,0.55 -45.65,3.27 -54.04,9.69 -101.38,38.96 -134.11,82.69 -0.48,0.66 -0.97,1.31 -1.46,1.98 -0.99,1.36 -1.97,2.71 -2.92,4.1 -22.26,31.97 -35.17,68.53 -37.99,106.4 -1.34,17.91 -0.42,36.13 2.82,54.28 10.13,56.52 41.65,105.69 88.76,138.48 47.12,32.83 104.19,45.34 160.69,35.16 56.5,-10.11 105.69,-41.63 138.48,-88.74 22.26,-31.98 35.17,-68.54 37.99,-106.41 1.34,-17.9 0.42,-36.11 -2.82,-54.26 -6.88,-38.37 -23.96,-74.07 -49.43,-103.25l28.96 -25.27c30.04,34.42 50.18,76.52 58.28,121.73 3.85,21.39 4.92,42.86 3.35,63.99 -3.33,44.63 -18.55,87.72 -44.79,125.42 -38.66,55.54 -96.64,92.7 -163.25,104.63 -21.39,3.83 -42.86,4.9 -63.97,3.32z"/>
  <path class="fil3" d="M1942.46 3732.83c-333.01,-73.43 -82.15,-567.44 -70.32,-586.56l-596.77 209.57c0,0 -53.29,287.18 318.07,551.47 93.95,66.87 189.02,95.7 278.63,101.58 -6.11,-115.29 28.02,-207.45 70.39,-276.06z"/>
  <path class="fil4" d="M2620.29 3755.56c-97.86,-119.58 -260.21,-74.05 -260.21,-74.05 -193.49,60.25 -327.08,71.29 -417.62,51.32 -42.37,68.61 -76.5,160.77 -70.39,276.06 193.92,12.71 362.29,-82.33 438.41,-134.02 27.42,-18.61 64.83,-12.55 84.22,14.32 19.71,27.28 36.56,61.77 23.86,89.4 -25.05,54.51 35.95,91.45 46.82,72.19 10.87,-19.25 18.14,-149.68 18.14,-149.68 0,0 94.44,170.7 131.55,236.53 37.09,65.82 116.59,33.17 116.59,33.17 0,0 -13.52,-295.66 -111.37,-415.24z"/>
  <path class="fil5" d="M614.15 2477.95c0,0 419.01,-330.08 1518,139.42 0,0 118.86,131.11 78.37,290.88 -40.5,159.77 -612.83,1048.71 -610.07,1447.39 0,0 -413.52,283.24 -990.19,70.17 0,0 -259.57,-1035.4 3.89,-1947.86z"/>
  <path class="fil6" d="M1503.24 2031.66l-150.36 352.36c-14.92,34.98 -8.51,75.64 17.2,103.68 51.95,56.64 157.35,130.36 324.23,66.73 49.64,-18.92 85.61,-62.84 94.3,-115.25l63.96 -386.17 -349.33 -21.35z"/>
  <path class="fil7" d="M603.93 3800.4c-121.28,-208.35 289.84,-873.55 289.84,-873.55l-279.62 -448.9c0,0 -969.68,1158.15 -472.15,1713.33 71.32,79.59 148.94,127.19 229.56,150.57 20.13,-290.02 139.6,-455.5 232.37,-541.45z"/>
  <path class="fil8" d="M593.91 3800.13c-5.93,1.75 -12.51,-0.67 -15.76,-6.27 -124.02,-213.02 273.07,-860.24 290.03,-887.69 3.98,-6.44 12.44,-8.47 18.94,-4.47 6.46,4 8.46,12.48 4.47,18.93 -4.07,6.59 -405.43,660.53 -289.66,859.39 3.82,6.57 1.6,14.99 -4.97,18.82 -0.98,0.55 -2.01,0.99 -3.05,1.29z"/>
  <path class="fil9" d="M1578.84 3777.45c-74.4,20.63 -143.62,57.62 -218.38,76.66 -82.99,21.11 -165.06,45.94 -248.66,64.76 -130.03,29.29 -301.13,62.85 -415.33,-26.52 -9.64,-7.55 -87.08,-95.11 -92.54,-91.95 -207.37,119.8 -247.69,399.75 -247.69,535.58 378.07,206.74 972.65,-195.82 1132.82,-313.47 26.36,-19.35 58.97,-27.74 91.36,-23.28 65.51,8.97 178.4,21.05 237.93,7.66 87.08,-19.57 234.73,282.27 370.84,176.75 0,0 -159.03,-531.32 -610.35,-406.19z"/>
  <path class="fil10" d="M1990.53 1533.64c0,0 94.95,307.51 86.35,462.39 -8.59,154.88 13.44,258.47 -168,269.61 -181.44,11.13 -321.48,-94.24 -385.59,-256.62 0,0 -100.92,-250.46 -61.58,-344.04 39.33,-93.57 528.82,-131.34 528.82,-131.34z"/>
  <path class="fil11" d="M1596.4 1905.56l22.49 2.5c0,0 -71.5,-200.49 13.68,-224.81 85.19,-24.33 415.19,-54.13 497.58,-160.86 79.42,-102.89 35.47,-252.14 -49.62,-302.02 -5.4,-3.16 -12.37,-1.24 -15.88,3.93l-8.99 13.21c-6.15,9.04 -20.18,5.99 -22.04,-4.77l0 0c-1.77,-10.23 -14.87,-13.88 -21.3,-5.75 -25.14,31.87 -89.04,81.11 -247,92.42 -224.11,16.03 -379.21,88.7 -399.71,240.07 -1.29,9.59 -12.15,13.74 -19.82,7.83 -15.1,-11.69 -40.54,-19.22 -78.45,6.06 -65.96,43.99 -55.95,178.25 64.16,301.19 5.71,5.85 4.57,15.65 -2.73,19.33 -25.7,12.91 -65.56,46.04 21.48,105.85 89.04,61.17 145.7,61.91 167.44,58.85 5.86,-0.82 10.27,-5.58 10.55,-11.47l6.69 -135.43c0.35,-7 6.53,-12.26 13.51,-11.49l47.96 5.36z"/>
  <path class="fil12" d="M1598.79 1934.3c0,0 -27.81,-192.76 -117.67,-149.6 -89.85,43.16 20.17,214.76 86.92,229.3l30.75 -79.7z"/>
  <path class="fil13" d="M1303.88 4361.54c1.16,0.05 2.33,0.05 3.51,0.03l1525.72 -23.62c37.72,-0.57 67.69,-30.06 66.95,-65.87 -0.74,-35.82 -32.04,-64.97 -69.64,-63.78l-1525.72 23.6c-37.71,0.58 -67.69,30.08 -66.95,65.88 0.72,34.69 30.01,62.58 66.13,63.76z"/>
  <path class="fil14" d="M1897.76 2127.82c-271.84,23.06 -494.24,-189.8 -495.8,-192.99l0 -47.99c1.49,3.06 235.83,239.62 494.23,217.72l1.57 23.26z"/>
  <path class="fil15" d="M2008.57 2116.03c0,18.09 -13.05,32.74 -29.16,32.74l-77.79 0c-16.11,0 -29.18,-14.65 -29.18,-32.74l0 0c0,-18.09 13.07,-32.76 29.18,-32.76l77.79 0c16.11,0 29.16,14.67 29.16,32.76l0 0z"/>
  <path class="fil16" d="M1540.84 1645.46c0,0 -62.09,-331.25 320.84,-333.09 5.3,-0.03 6.19,-7.63 1.02,-8.82 -104.9,-24.18 -409.38,-59.98 -413.97,337.53 58.34,21 92.11,4.38 92.11,4.38z"/>
  <path class="fil17" d="M1470.67 1605.06c-149.44,30.32 -131.08,219.3 -131.08,219.3 -10.76,137.14 29.27,205.13 80.56,237.52 35.04,22.13 79.14,24.18 116.16,5.51 36.99,-18.66 61.48,-55.37 64.54,-96.7 2.75,-37.33 5.92,-72.81 8.68,-85.41 6.73,-30.53 10.58,-310.56 -138.86,-280.22z"/>
  <path class="fil18" d="M1484.4 1652.84c-31.04,-5.39 -61.63,11.09 -74.11,40 -89.31,206.89 20.34,341.47 74.18,344.3 56.74,2.95 55.6,-270.03 43.55,-340 -5.06,-29.33 -23.69,-40.84 -43.62,-44.3z"/>
  <path class="fil19" d="M79.83 4413.7c-2.54,-18.83 0.93,-38.32 9.45,-53.14 8.54,-14.8 21.24,-23.37 34.64,-23.37l4540.55 0c17.59,0 34.03,12.85 43.51,34.12 9.47,21.27 10.75,48 3.39,70.92l-49.24 152.49c-11.26,34.93 -35.69,57.29 -62.54,57.29l-4444.51 0c-24.99,0 -46.47,-25.39 -51.22,-60.52l-24.03 -177.79z"/>
  <path class="fil1" d="M85.41 4412.94l24.02 177.8c4.36,32.24 23.56,55.64 45.64,55.64l4444.52 0c24.31,0 46.74,-20.95 57.19,-53.38l49.2 -152.51c7.05,-21.73 5.86,-46.73 -3.14,-66.88 -8.63,-19.28 -22.99,-30.81 -38.41,-30.81l-4540.51 0c-11.38,0 -22.23,7.52 -29.76,20.58 -7.96,13.79 -11.14,31.87 -8.75,49.56l0 0zm4514.18 244.69l-4444.52 0c-27.78,0 -51.66,-27.5 -56.79,-65.38l-24.02 -177.8c-2.72,-20.12 0.98,-40.78 10.16,-56.7 9.58,-16.65 23.98,-26.18 39.5,-26.18l4540.51 0c20.01,0 38.19,13.99 48.69,37.44 10.11,22.61 11.43,50.63 3.61,74.95l-49.24 152.49c-11.98,37.16 -38.62,61.18 -67.9,61.18z"/>
  <path class="fil20" d="M2480.82 2604.44c-25.64,209.56 -141.02,1061.02 -174.05,1304.3 -4.64,34.22 22.53,64.31 57.05,63.32l1957.23 -56.01c25.62,-0.72 47.46,-18.77 53.02,-43.78l304.46 -1371.15c8.03,-36.26 -20.82,-70.14 -57.91,-67.97l-2087.55 122.28c-26.98,1.58 -48.96,22.18 -52.25,49.01z"/>
  <path class="fil21" d="M3267.56 3464.3l-289.28 821.03 672.63 14.25 55.99 -830.36c2.64,-38.96 -29.65,-71.32 -68.65,-68.73l-314.1 20.87c-25.76,1.71 -48.02,18.59 -56.59,42.94z"/>
  <path class="fil22" d="M2986.18 4279.87l659.5 13.98 55.62 -825c1.14,-16.95 -5.1,-33.58 -17.08,-45.6 -12.03,-12.02 -28.64,-18.24 -45.59,-17.13l-314.12 20.85c-23.53,1.56 -43.81,16.95 -51.65,39.19l-286.68 813.71zm670 25.45l-5.4 -0.12 -680.37 -14.41 291.85 -828.36c9.32,-26.49 33.47,-44.82 61.52,-46.69l314.13 -20.86c20.22,-1.29 39.93,6.1 54.25,20.41 14.32,14.33 21.71,34.12 20.35,54.32l-56.33 835.71z"/>
  <path class="fil23" d="M2705.6 4297.02l0 0c-7.41,22.6 9.41,45.83 33.2,45.83l1053.37 0c19.29,0 34.93,-15.64 34.93,-34.94l0 -45.18c0,-19.87 -16.57,-35.75 -36.45,-34.89l-1053.35 45.17c-14.55,0.63 -27.16,10.19 -31.7,24.01z"/>
  <path class="fil24" d="M3792.17 4233.42c-0.42,0 -0.84,0.01 -1.27,0.03l-1053.36 45.18c-12.13,0.52 -22.81,8.61 -26.6,20.14l0 0c-2.95,9.04 -1.46,18.63 4.12,26.34 5.58,7.7 14.23,12.12 23.74,12.12l1053.37 0c16.15,0 29.28,-13.16 29.28,-29.32l0 -45.18c0,-8.06 -3.19,-15.59 -9.05,-21.16 -5.48,-5.28 -12.62,-8.15 -20.23,-8.15zm0 115.06l-1053.37 0c-13.17,0 -25.13,-6.12 -32.86,-16.78 -7.71,-10.65 -9.78,-23.93 -5.68,-36.42 5.22,-15.96 20.01,-27.17 36.79,-27.89l1053.34 -45.18c11.17,-0.49 21.75,3.51 29.83,11.24 8.07,7.71 12.49,18.13 12.49,29.28l0 45.18c0,22.38 -18.19,40.57 -40.54,40.57z"/>
  <path class="fil25" d="M2451.25 3470.65l-13.87 -1.77 96.16 -758.38c5.96,-47.04 44.63,-83.25 91.96,-86.1l1803.98 -108.95 0.85 13.96 -1803.99 108.95c-40.6,2.45 -73.8,33.53 -78.91,73.9l-96.18 758.39z"/>
  <polygon class="fil26" points="2403.05,3850.85 2389.16,3849.1 2409.99,3684.91 2423.86,3686.66 "/>
  <path class="fil27" d="M3075.91 590.18l0 422.23c0,50.18 39.41,91.52 89.53,93.86l528.04 24.81c53.53,2.51 98.31,-40.24 98.31,-93.85l0 -447.05c0,-51.88 -42.06,-93.94 -93.94,-93.94l-528.01 0c-51.88,0 -93.93,42.06 -93.93,93.94z"/>
  <path class="fil28 str0" d="M3646.83 765.99c0,20.06 -6.29,39.56 -17.21,56.38l-10.37 17.42c-10.7,16.61 -29.18,28.34 -48.94,28.34l-248.85 0 -13.63 -50.26 -25.82 -95.09 364.82 0 0 43.21zm-369.41 -62.16l-20.61 -76.22 -60.15 -32.75 -8.01 14.65 53.83 29.06 64.14 235.21 1.98 6.97 261.71 0c25.49,0 48.94,-12.49 62.79,-33.91l11.73 -15.5c12.66,-19.55 20.99,-42.07 20.99,-65.35l0 -62.16 -388.4 0z"/>
  <path class="fil28 str0" d="M3630.51 966.1c0,4.63 -3.78,9.48 -8.41,9.48l-307.08 0c-4.65,0 -9.42,-7.31 -9.42,-11.94l0 -144.8c0,-1.57 0.94,-1.23 1.73,-2.5l14.13 51.79 3.11 0 0 88.46 297.53 0c4.63,0 8.41,4.84 8.41,9.51z"/>
  <polygon class="fil28 str0" points="3460.04,869.87 3471.26,869.87 3471.26,712.25 3460.04,712.25 "/>
  <polygon class="fil28 str0" points="3361.04,869.87 3372.24,869.87 3372.24,712.25 3361.04,712.25 "/>
  <polygon class="fil28 str0" points="3556.71,869.87 3567.92,869.87 3567.92,712.25 3556.71,712.25 "/>
  <polygon class="fil28 str0" points="3286.28,768.63 3650.85,768.63 3650.85,758.6 3286.28,758.6 "/>
  <polygon class="fil28 str0" points="3302.19,823.52 3641.72,823.52 3641.72,813.49 3302.19,813.49 "/>
  <path class="fil28 str0" d="M3354.35 1044.41c-12.06,0 -21.84,-9.78 -21.84,-21.84 0,-12.07 9.78,-21.84 21.84,-21.84 12.08,0 21.86,9.77 21.86,21.84 0,12.06 -9.78,21.84 -21.86,21.84zm0 -58.04c-19.99,0 -36.2,16.19 -36.2,36.2 0,20.01 16.21,36.24 36.2,36.24 20.01,0 36.22,-16.23 36.22,-36.24 0,-20.01 -16.21,-36.2 -36.22,-36.2z"/>
  <path class="fil28 str0" d="M3579.36 1044.41c-12.07,0 -21.88,-9.78 -21.88,-21.84 0,-12.07 9.81,-21.84 21.88,-21.84 12.07,0 21.84,9.77 21.84,21.84 0,12.06 -9.77,21.84 -21.84,21.84zm0 -58.04c-20.01,0 -36.2,16.19 -36.2,36.2 0,20.01 16.19,36.24 36.2,36.24 19.97,0 36.2,-16.23 36.2,-36.24 0,-20.01 -16.23,-36.2 -36.2,-36.2z"/>
  <path class="fil28 str0" d="M3233.98 609.47c0,9.39 -7.63,17 -17.02,17l-56.6 0c-9.39,0 -17.02,-7.61 -17.02,-17l0 0c0,-9.39 7.63,-16.99 17.02,-16.99l56.6 0c9.39,0 17.02,7.6 17.02,16.99l0 0z"/>
  <path class="fil29" d="M1931.27 102.05l0 452.91c0,53.83 42.29,98.14 96.05,100.65l566.39 26.64c57.44,2.68 105.49,-43.17 105.49,-100.65l0 -479.55c0,-55.66 -45.11,-100.78 -100.77,-100.78l-566.39 0c-55.64,0 -100.77,45.12 -100.77,100.78z"/>
  <path class="fil30" d="M2120.98 190.17c-9.97,0 -18.08,8.11 -18.08,18.1l0 285.42c0,9.99 8.11,18.1 18.08,18.1l390.33 0c9.98,0 18.09,-8.11 18.09,-18.1l0 -285.42c0,-9.99 -8.11,-18.1 -18.09,-18.1l-390.33 0zm390.33 356.59l-390.33 0c-29.25,0 -53.04,-23.79 -53.04,-53.07l0 -285.42c0,-29.27 23.79,-53.07 53.04,-53.07l390.33 0c29.25,0 53.05,23.8 53.05,53.07l0 285.42c0,29.28 -23.8,53.07 -53.05,53.07z"/>
  <path class="fil30" d="M2316.5 357.27c-3.55,0 -7.09,-1.06 -10.11,-3.23l-218.73 -155.08c-7.87,-5.6 -9.74,-16.52 -4.15,-24.38 5.58,-7.86 16.5,-9.73 24.36,-4.17l208.61 147.94 205.88 -146.24c7.88,-5.56 18.79,-3.74 24.38,4.17 5.6,7.86 3.75,18.78 -4.13,24.34l-216 153.42c-3.02,2.17 -6.57,3.23 -10.11,3.23z"/>
  <path class="fil30" d="M2100.46 534.52l-5.05 -34.58 2.35 17.33 -14.63 -9.51c4.05,-6.5 82.92,-144.5 134.97,-235.63 4.77,-8.37 15.44,-11.35 23.84,-6.55 8.38,4.8 11.31,15.47 6.52,23.88 0,0 -33.75,59.1 -67.56,118.2 -16.91,29.57 -33.83,59.14 -46.57,81.32 -25.38,44.23 -25.38,44.23 -33.87,45.54z"/>
  <path class="fil30" d="M2531.19 534.52c-8.45,-1.31 -8.45,-1.31 -33.84,-45.54 -12.73,-22.18 -29.65,-51.75 -46.57,-81.32 -33.8,-59.1 -67.55,-118.2 -67.55,-118.2 -4.77,-8.41 -1.87,-19.08 6.51,-23.88 8.39,-4.76 19.07,-1.82 23.86,6.55 52.03,91.13 130.91,229.08 134.96,235.63l-14.64 9.51 -2.73 17.25z"/>
  <path class="fil31" d="M3731.55 1507.67l0 398.38c0,47.34 37.17,86.32 84.46,88.53l498.16 23.41c50.56,2.38 92.83,-37.96 92.83,-88.54l0 -421.78c0,-48.96 -39.68,-88.64 -88.63,-88.64l-498.2 0c-48.94,0 -88.62,39.68 -88.62,88.64z"/>
  <path class="fil30 str0" d="M4091.83 1720.52l-32.88 28.7c-3.74,3.27 -4.21,8.87 -1.06,12.73l166.71 204.16c5.1,6.2 12.28,9.99 20.27,10.66 7.99,0.66 15.72,-1.86 21.75,-7.12l15.47 -13.5c6.03,-5.26 9.6,-12.57 9.98,-20.57 0.43,-8.01 -2.33,-15.64 -7.81,-21.5l-179.64 -192.88c-3.4,-3.65 -9,-3.95 -12.79,-0.68l0 0zm155.59 268.15c-1.19,0 -2.34,-0.05 -3.53,-0.14 -11.21,-0.95 -21.28,-6.26 -28.42,-14.96l-166.72 -204.16c-7.22,-8.82 -6.12,-21.58 2.47,-29.08l32.88 -28.69c8.58,-7.5 21.37,-6.82 29.15,1.51l179.63 192.88c7.65,8.21 11.56,18.93 11,30.16 -0.59,11.22 -5.6,21.47 -14.06,28.86l-15.46 13.49c-7.57,6.6 -17.04,10.13 -26.94,10.13z"/>
  <path class="fil30 str0" d="M3918.11 1565.29l142.45 166.61 14.79 -11.14 -146.58 -164.66 1.53 -2.74c0.51,-0.95 0.64,-1.94 0.3,-2.52l-28.09 -46.57c-0.08,-0.13 -0.21,-0.25 -0.29,-0.33l-35.18 -24.26c-0.81,-0.55 -2.55,-0.37 -3.95,0.89l-10.88 9.46c-1.4,1.24 -1.83,2.94 -1.4,3.8l19.24 38.06c0.05,0.15 0.17,0.27 0.3,0.37l43.42 33.3c0.39,0.3 1.06,0.39 1.79,0.24l2.55 -0.51zm141.14 178.69l-144.71 -169.26c-2.3,-0.07 -4.42,-0.79 -6.16,-2.14l-43.43 -33.29c-1.18,-0.91 -2.12,-2.07 -2.8,-3.4l-19.25 -38.07c-2.37,-4.67 -0.93,-10.61 3.49,-14.46l10.83 -9.46c4.42,-3.87 10.54,-4.49 14.83,-1.51l35.14 24.26c1.19,0.81 2.16,1.83 2.89,3.04l28.08 46.59c1.49,2.45 1.87,5.4 1.1,8.29l149.09 167.48 -29.1 21.93z"/>
  <path class="fil32" d="M714.63 389.05l0 476.36c0,56.59 44.47,103.2 101.01,105.88l595.71 28c60.43,2.8 110.96,-45.42 110.96,-105.88l0 -504.36c0,-58.55 -47.46,-106.01 -105.99,-106.01l-595.71 0c-58.53,0 -105.98,47.46 -105.98,106.01z"/>
  <path class="fil30 str0" d="M1137.4 683.1c0.04,-21.07 -0.75,-42.19 -2.5,-63.22 -1.73,-20.99 -4.33,-41.98 -8.21,-62.71 -1.95,-10.33 -4.2,-20.65 -6.89,-30.85 -2.71,-10.15 -5.81,-20.26 -9.61,-30.08 -3.81,-9.77 -8.25,-19.41 -14.13,-28.08 -2.94,-4.33 -6.28,-8.41 -10.28,-11.77 -2,-1.66 -4.17,-3.1 -6.52,-4.16 -2.35,-1.07 -4.87,-1.79 -7.44,-1.83 -2.57,-0.08 -5.12,0.42 -7.51,1.4 -2.39,0.98 -4.57,2.42 -6.57,4.08 -3.98,3.31 -7.22,7.48 -10.03,11.9 -2.81,4.42 -5.19,9.13 -7.32,13.93 -2.14,4.8 -4,9.73 -5.7,14.7 -3.39,9.94 -6.11,20.14 -8.43,30.42 -2.31,10.28 -4.22,20.65 -5.83,31.1 -3.23,20.82 -5.33,41.85 -6.66,62.93 -1.32,21.03 -1.79,42.14 -1.76,63.22 -0.05,21.11 0.65,42.19 2.22,63.26 1.58,21.03 3.98,41.98 7.59,62.75 1.81,10.41 3.92,20.74 6.45,30.93 2.54,10.24 5.48,20.35 9.09,30.25 3.65,9.82 7.9,19.51 13.64,28.26 2.91,4.29 6.2,8.41 10.18,11.64 2.01,1.61 4.17,3.06 6.52,3.99 2.34,0.94 4.86,1.49 7.36,1.4 2.52,-0.08 5.01,-0.72 7.29,-1.78 2.32,-1.06 4.44,-2.55 6.39,-4.21 3.91,-3.35 7.12,-7.52 9.98,-11.89 5.64,-8.8 9.84,-18.48 13.44,-28.34 3.56,-9.9 6.48,-20.05 8.98,-30.25 2.51,-10.24 4.59,-20.57 6.39,-30.97 3.57,-20.78 5.96,-41.77 7.54,-62.8 1.6,-21.03 2.33,-42.1 2.33,-63.22zm3.13 0c-0.07,42.32 -2.95,84.76 -10.38,126.48 -1.88,10.41 -4.07,20.82 -6.67,31.1 -2.61,10.24 -5.61,20.44 -9.29,30.38 -3.73,9.94 -8.03,19.72 -13.88,28.68 -2.96,4.42 -6.3,8.71 -10.41,12.19 -2.07,1.74 -4.34,3.27 -6.83,4.42 -2.48,1.11 -5.2,1.83 -7.96,1.87 -2.75,0.09 -5.51,-0.47 -8.05,-1.49 -2.53,-1.01 -4.85,-2.5 -6.97,-4.16 -4.22,-3.4 -7.64,-7.6 -10.63,-12.02 -5.97,-8.88 -10.34,-18.61 -14.08,-28.55 -3.73,-9.95 -6.77,-20.1 -9.41,-30.38 -2.62,-10.28 -4.82,-20.65 -6.72,-31.06 -3.78,-20.86 -6.37,-41.89 -8.11,-63.01 -1.73,-21.11 -2.59,-42.27 -2.71,-63.47 -0.05,-10.58 0.24,-21.16 0.62,-31.74 0.39,-10.58 0.98,-21.16 1.75,-31.7 1.56,-21.11 3.9,-42.19 7.36,-63.09 1.73,-10.45 3.76,-20.86 6.2,-31.14 2.44,-10.33 5.27,-20.52 8.8,-30.55 1.78,-4.97 3.71,-9.94 5.91,-14.74 2.22,-4.85 4.68,-9.56 7.58,-14.02 2.91,-4.46 6.25,-8.67 10.4,-12.07 2.09,-1.7 4.37,-3.14 6.89,-4.16 2.5,-0.98 5.21,-1.49 7.91,-1.4 2.71,0.08 5.36,0.76 7.82,1.82 2.46,1.11 4.72,2.59 6.8,4.29 4.15,3.36 7.57,7.52 10.63,11.86 6.05,8.75 10.62,18.39 14.57,28.21 3.93,9.85 7.17,19.97 9.99,30.16 2.83,10.24 5.21,20.57 7.26,30.93 8.17,41.6 11.48,84.04 11.61,126.36z"/>
  <path class="fil30 str0" d="M1071.31 456.56c-1.54,0 -3.14,0.34 -4.65,0.94 -1.64,0.67 -3.33,1.74 -5,3.14 -3.03,2.51 -5.82,5.82 -8.78,10.45 -2.4,3.83 -4.65,8.12 -6.88,13.13 -1.9,4.25 -3.7,8.88 -5.52,14.19 -3.02,8.92 -5.72,18.65 -8.22,29.78 -2.17,9.65 -4.05,19.67 -5.77,30.68 -3,19.5 -5.15,39.89 -6.56,62.37 -1.23,19.16 -1.81,39.72 -1.77,62.84 -0.05,21.33 0.69,42.44 2.2,62.79 1.67,22.31 4.12,42.66 7.51,62.16 1.92,10.92 3.98,20.9 6.37,30.51 2.73,11.04 5.64,20.73 8.88,29.57 4.19,11.3 8.32,19.88 13.03,26.98 3.02,4.54 5.86,7.81 8.91,10.32 1.69,1.36 3.35,2.38 4.94,3.02 1.7,0.68 3.28,0.93 4.86,0.97 1.59,-0.04 3.24,-0.46 4.94,-1.23 1.61,-0.76 3.27,-1.87 4.94,-3.31 3.01,-2.59 5.81,-5.95 8.84,-10.54 4.6,-7.18 8.68,-15.81 12.81,-27.11 3.19,-8.88 6.09,-18.56 8.79,-29.61 2.33,-9.56 4.4,-19.54 6.28,-30.55 3.35,-19.33 5.78,-39.68 7.48,-62.2 1.55,-20.26 2.33,-41.38 2.32,-62.75l0 0c0.03,-21.29 -0.79,-42.36 -2.49,-62.71 -1.83,-22.35 -4.48,-42.66 -8.13,-62.07 -2.01,-10.8 -4.24,-20.74 -6.79,-30.42 -2.89,-10.92 -5.96,-20.57 -9.39,-29.41 -4.35,-11.17 -8.64,-19.71 -13.47,-26.89 -3.13,-4.55 -6.03,-7.86 -9.14,-10.45 -1.73,-1.44 -3.46,-2.55 -5.13,-3.32 -1.76,-0.8 -3.47,-1.23 -5.05,-1.27 -0.12,0 -0.24,0 -0.36,0zm3.2 467.86c-3.21,0 -6.59,-0.67 -9.73,-1.95 -2.91,-1.19 -5.68,-2.8 -8.5,-5.06 -4.23,-3.39 -8,-7.64 -11.89,-13.38 -5.41,-8.07 -10.1,-17.55 -14.76,-29.83 -3.51,-9.39 -6.65,-19.54 -9.61,-31.05 -2.53,-9.9 -4.75,-20.18 -6.82,-31.49 -3.62,-19.96 -6.3,-40.78 -8.18,-63.6 -1.69,-20.73 -2.62,-42.23 -2.72,-63.94 -0.07,-11.34 0.27,-22.52 0.61,-31.99 0.4,-10.75 0.99,-21.5 1.76,-31.95 1.7,-22.95 4.13,-43.77 7.42,-63.65 1.89,-11.3 3.95,-21.62 6.29,-31.57 2.75,-11.59 5.69,-21.75 8.98,-31.14 2.02,-5.65 4.02,-10.66 6.14,-15.29 2.57,-5.61 5.19,-10.46 8,-14.79 3.81,-5.82 7.52,-10.11 11.69,-13.51 2.77,-2.25 5.63,-3.95 8.5,-5.1 3.29,-1.32 6.9,-1.95 10.4,-1.82 3.32,0.08 6.73,0.89 10.06,2.33 2.79,1.23 5.46,2.93 8.17,5.14 4.14,3.36 7.89,7.52 11.8,13.09 5.53,7.99 10.37,17.33 15.24,29.48 3.73,9.35 7.07,19.42 10.24,30.81 2.73,9.94 5.14,20.22 7.35,31.4 7.75,39.51 11.59,81.19 11.71,127.54l0 0c-0.06,46.61 -3.49,88.33 -10.47,127.59 -2.04,11.26 -4.24,21.54 -6.75,31.48 -2.92,11.51 -6.03,21.67 -9.5,31.06 -4.61,12.32 -9.23,21.83 -14.51,29.91 -3.82,5.78 -7.49,10.03 -11.57,13.51 -2.74,2.29 -5.43,4.04 -8.25,5.31 -3.46,1.57 -6.94,2.38 -10.38,2.42 -0.25,0 -0.49,0.04 -0.72,0.04z"/>
  <path class="fil30 str0" d="M1243.33 683.1c-0.03,-26.94 -3.39,-53.92 -10.47,-79.96 -7.12,-25.96 -17.86,-51.03 -32.6,-73.59 -7.4,-11.26 -15.76,-21.88 -25.16,-31.52 -9.39,-9.65 -19.75,-18.36 -31.11,-25.62 -11.36,-7.18 -23.62,-13 -36.47,-16.91 -12.85,-3.95 -26.28,-5.99 -39.72,-6.03 -13.45,0.04 -26.86,2.12 -39.71,6.03 -12.85,3.95 -25.1,9.77 -36.46,16.99 -11.32,7.23 -21.67,15.98 -31.06,25.62 -9.36,9.65 -17.72,20.27 -25.08,31.53 -14.74,22.56 -25.44,47.62 -32.53,73.59 -3.53,13 -6.09,26.25 -7.82,39.59 -1.74,13.34 -2.6,26.81 -2.63,40.28 0.04,13.47 0.91,26.94 2.65,40.28 1.75,13.34 4.31,26.59 7.85,39.59 7.11,25.96 17.83,50.99 32.58,73.55 7.35,11.26 15.72,21.84 25.1,31.48 9.37,9.65 19.72,18.36 31.04,25.58 11.35,7.18 23.59,12.96 36.43,16.91 12.81,3.95 26.22,6.03 39.64,6.07 13.43,-0.04 26.82,-2.12 39.65,-6.03 12.84,-3.95 25.1,-9.69 36.46,-16.87 11.34,-7.22 21.7,-15.93 31.09,-25.57 9.38,-9.65 17.76,-20.23 25.15,-31.49 14.77,-22.56 25.52,-47.58 32.66,-73.58 7.09,-26 10.45,-52.98 10.52,-79.92zm3.58 0c-0.15,27.28 -3.65,54.55 -10.91,80.81 -7.41,26.26 -18.54,51.49 -33.68,74.14 -7.57,11.3 -16.14,21.97 -25.74,31.61 -9.57,9.69 -20.16,18.35 -31.67,25.62 -11.5,7.22 -23.93,13 -36.94,16.95 -13,3.91 -26.57,5.99 -40.17,5.99 -13.59,0 -27.16,-2.04 -40.18,-5.95 -13.02,-3.91 -25.45,-9.73 -36.98,-16.95 -11.51,-7.26 -22.12,-15.93 -31.72,-25.58 -9.59,-9.64 -18.19,-20.3 -25.77,-31.61 -15.17,-22.64 -26.34,-47.88 -33.77,-74.14 -3.66,-13.17 -6.38,-26.55 -8.18,-40.06 -1.79,-13.55 -2.69,-27.19 -2.75,-40.83 0.06,-13.64 0.97,-27.28 2.78,-40.79 1.8,-13.55 4.53,-26.93 8.2,-40.06 7.45,-26.26 18.64,-51.45 33.82,-74.1 7.58,-11.3 16.18,-21.96 25.78,-31.61 9.58,-9.64 20.18,-18.27 31.69,-25.53 11.53,-7.18 23.96,-12.92 36.96,-16.87 12.99,-3.91 26.55,-5.95 40.12,-5.99 13.56,0.04 27.12,2.08 40.1,6.03 12.99,3.95 25.42,9.69 36.93,16.91 11.5,7.22 22.08,15.89 31.65,25.54 9.59,9.64 18.16,20.3 25.74,31.6 15.14,22.65 26.31,47.85 33.73,74.06 7.28,26.3 10.79,53.53 10.96,80.81z"/>
  <path class="fil30 str0" d="M1067.79 455.63c-12.75,0.04 -25.5,1.99 -37.91,5.77 -11.97,3.7 -23.73,9.14 -34.95,16.28 -10.39,6.67 -20.49,14.99 -29.96,24.72 -8.82,9.1 -17.02,19.42 -24.36,30.64 -13.81,21.16 -24.49,45.29 -31.73,71.8 -3.32,12.28 -5.9,25.32 -7.65,38.79 -1.68,12.87 -2.54,26.17 -2.57,39.47 0.04,13.3 0.91,26.6 2.6,39.47 1.75,13.47 4.33,26.51 7.68,38.79 7.25,26.47 17.94,50.6 31.77,71.76 7.35,11.22 15.52,21.5 24.36,30.59 9.49,9.73 19.57,18.06 29.95,24.69 11.14,7.05 22.9,12.49 34.92,16.18 12.38,3.78 25.11,5.78 37.88,5.82 12.73,-0.04 25.47,-1.99 37.84,-5.77 12.06,-3.7 23.82,-9.14 34.97,-16.19 10.37,-6.63 20.47,-14.91 29.97,-24.69 8.85,-9.05 17.07,-19.37 24.41,-30.55 13.86,-21.11 24.58,-45.29 31.87,-71.8 6.78,-24.81 10.25,-51.15 10.3,-78.3 -0.05,-27.15 -3.49,-53.49 -10.25,-78.3 -7.27,-26.56 -17.97,-50.73 -31.81,-71.85 -7.35,-11.21 -15.56,-21.54 -24.42,-30.63 -9.47,-9.73 -19.57,-18.02 -30,-24.69 -11.21,-7.13 -22.98,-12.57 -34.96,-16.23 -12.42,-3.82 -25.19,-5.73 -37.95,-5.77zm0.01 468.79c-14.13,0 -28.24,-2.12 -41.95,-6.24 -13.25,-4 -26.2,-9.94 -38.47,-17.63 -11.59,-7.31 -22.63,-16.19 -32.81,-26.43 -9.59,-9.69 -18.51,-20.61 -26.53,-32.55 -15.05,-22.51 -26.68,-48.05 -34.58,-75.88 -3.7,-13.3 -6.5,-27.06 -8.35,-40.95 -1.8,-13.6 -2.74,-27.58 -2.81,-41.6 0.08,-14.1 1.03,-28.08 2.83,-41.68 1.86,-13.89 4.68,-27.61 8.38,-40.87 7.92,-27.91 19.57,-53.41 34.64,-75.88 7.99,-11.9 16.91,-22.86 26.52,-32.5 10.2,-10.24 21.24,-19.12 32.8,-26.43 12.19,-7.61 25.13,-13.51 38.45,-17.55 13.66,-4.12 27.75,-6.24 41.87,-6.24 14.14,0.04 28.24,2.16 41.9,6.29 13.3,4.03 26.22,9.94 38.4,17.58 11.56,7.27 22.58,16.19 32.75,26.43 9.6,9.65 18.51,20.61 26.47,32.5 15.05,22.48 26.68,47.97 34.54,75.8 7.26,26.17 11.02,53.92 11.21,82.47l0 0.08c-0.15,28.55 -3.9,56.3 -11.14,82.43 -7.86,27.87 -19.46,53.4 -34.51,75.92 -7.96,11.9 -16.88,22.86 -26.47,32.54 -10.15,10.24 -21.17,19.12 -32.75,26.47 -12.26,7.69 -25.2,13.64 -38.45,17.64 -13.68,4.12 -27.79,6.24 -41.94,6.28z"/>
  <path class="fil30 str0" d="M858.79 590.05l53.79 -0.42 53.78 -0.26 107.59 -0.21 107.57 0.26 53.8 0.25 53.77 0.47c0.1,0 0.17,0.08 0.17,0.17 0,0 -0.08,0.17 -0.17,0.17l-53.77 0.47 -53.8 0.25 -107.57 0.21 -107.59 -0.21 -53.78 -0.21 -53.79 -0.47c-0.12,0 -0.23,-0.08 -0.23,-0.08 0,-0.26 0.11,-0.39 0.23,-0.39z"/>
  <polygon class="fil30 str0" points="1073.97,597.57 912.55,597.15 856.19,596.68 852.42,592.9 852.42,590.14 852.56,584.15 858.74,583.89 966.33,583.21 1073.93,583 1235.35,583.51 1295.24,584.02 1295.41,596.47 1289.09,596.64 1181.56,597.36 "/>
  <path class="fil30 str0" d="M921.2 499.64c12.72,-0.21 25.46,-0.29 38.17,-0.47l38.19 -0.25c12.74,-0.09 25.47,-0.09 38.2,-0.13l38.19 -0.04 76.38 0.21 38.18 0.26c12.74,0.17 25.45,0.25 38.19,0.46 0.08,0 0.15,0.09 0.15,0.09 0,0.17 -0.07,0.25 -0.15,0.25 -12.74,0.22 -25.45,0.3 -38.19,0.47l-38.18 0.26 -76.38 0.21 -38.19 -0.04c-12.73,-0.05 -25.46,-0.05 -38.2,-0.13l-38.19 -0.26c-12.71,-0.17 -25.45,-0.25 -38.17,-0.42 -0.13,0 -0.24,-0.13 -0.24,-0.26 0.01,-0.12 0.11,-0.21 0.24,-0.21z"/>
  <path class="fil30 str0" d="M1073.97 507.16l-48.12 -0.12c-9.44,0 -18.88,0 -28.32,-0.09l-50.94 -0.38c-8.5,-0.09 -17,-0.17 -25.49,-0.3l-6.05 -0.08 -0.23 -12.5 6.28 -0.25c8.22,-0.13 16.45,-0.17 24.67,-0.3l51.76 -0.38c8.97,-0.04 17.94,-0.09 26.9,-0.09l49.5 -0.08 128.53 0.64c8.11,0.08 16.22,0.17 24.34,0.29l6.26 0.13 -0.28 12.37 -6.08 0.17c-8.4,0.12 -16.91,0.25 -25.4,0.34l-50.94 0.38 -76.39 0.25z"/>
  <path class="fil30 str0" d="M840.1 680.51l58.46 -0.43 58.46 -0.25 116.93 -0.21 116.91 0.21 58.47 0.3 58.46 0.46c0.09,0 0.15,0.04 0.15,0.13 0,0 -0.06,0.17 -0.15,0.17l-58.46 0.47 -58.47 0.29 -116.91 0.22 -116.93 -0.22 -58.46 -0.25 -58.46 -0.42c-0.13,0 -0.23,-0.13 -0.23,-0.26 0,-0.13 0.1,-0.21 0.23,-0.21z"/>
  <polygon class="fil30 str0" points="1073.97,688.03 898.54,687.56 833.96,687.09 833.73,674.56 840.06,674.35 956.99,673.67 1073.93,673.45 1249.36,673.92 1310.41,674.43 1314.13,678.21 1313.89,686.92 1307.79,687.05 1190.9,687.82 "/>
  <path class="fil30 str0" d="M858.79 770.92l53.79 -0.42 53.78 -0.26 107.59 -0.17 107.57 0.21 53.8 0.26 53.77 0.46c0.1,0 0.17,0.09 0.17,0.09 0,0.17 -0.08,0.26 -0.17,0.26l-53.77 0.46 -53.8 0.26 -107.57 0.21 -107.59 -0.17 -53.78 -0.26 -53.79 -0.42c-0.12,0 -0.23,-0.13 -0.23,-0.26 0,-0.12 0.11,-0.21 0.23,-0.25z"/>
  <polygon class="fil30 str0" points="1073.97,778.48 912.55,778.02 856.19,777.55 852.43,773.81 852.42,771.05 852.55,765.01 858.74,764.76 966.35,764.08 1073.93,763.91 1235.35,764.38 1295.24,764.89 1295.41,777.33 1289.09,777.51 1181.56,778.23 "/>
  <path class="fil30 str0" d="M1234.39 862.44l-305.51 0c-0.45,0 -0.82,-0.39 -0.82,-0.81 0,-0.47 0.37,-0.85 0.82,-0.85l305.51 0c0.46,0 0.82,0.38 0.82,0.85 0,0.42 -0.36,0.81 -0.82,0.81z"/>
  <path class="fil30 str0" d="M1234.39 868.6l-305.49 0c-3.85,0 -6.98,-3.15 -6.98,-6.97 0,-3.87 3.13,-7.01 6.98,-7.01l305.49 0c3.85,0 6.98,3.14 6.98,7.01 0,3.82 -3.13,6.97 -6.98,6.97z"/>
  <path class="fil30 str0" d="M1073.93 454.35c-126.38,0 -229.18,101.54 -229.18,226.41 0,124.87 102.8,226.46 229.18,226.46 126.36,0 229.17,-101.59 229.17,-226.46 0,-124.87 -102.81,-226.41 -229.17,-226.41zm0 474.88c-138.53,0 -251.23,-111.45 -251.23,-248.47 0,-137.02 112.7,-248.46 251.23,-248.46 138.52,0 251.23,111.44 251.23,248.46 0,137.02 -112.71,248.47 -251.23,248.47z"/>
  <path class="fil30 str0" d="M1315.45 479.72l-72.14 0 0 -18.7 23.93 -33.86c6.55,-9.3 11.07,-16.23 13.52,-20.73 2.46,-4.51 4.27,-8.84 5.43,-12.96 1.16,-4.17 1.75,-8.46 1.75,-12.88 0,-5.14 -1.15,-9 -3.45,-11.59 -2.3,-2.55 -5.29,-3.83 -8.97,-3.83 -3.26,0 -6.3,0.85 -9.12,2.55 -2.81,1.74 -6.25,4.84 -10.3,9.3l-13.98 -14.74c6.43,-7.26 12.42,-12.28 17.94,-15 5.52,-2.67 11.49,-4.03 17.95,-4.03 10.85,0 19.33,3.19 25.43,9.56 6.1,6.41 9.16,15.25 9.16,26.59 0,5.19 -0.56,10.03 -1.67,14.66 -1.09,4.59 -2.77,9.18 -5.01,13.85 -2.23,4.63 -5.05,9.44 -8.41,14.45 -3.38,4.97 -12.09,16.44 -26.14,34.33l0 0.76 44.08 0 0 22.27z"/>
  <path class="fil30 str0" d="M1371.03 430.77l0 -28.34 0.45 -12.53 0.66 -11.94 -0.74 0c-2.15,6.67 -4.49,12.7 -6.99,18.1l-16.2 34.71 22.82 0zm37.17 20.69l-13.62 0 0 28.26 -23.55 0 0 -28.26 -43.9 0 0 -20.35 40.67 -85.91 26.78 0 0 85.57 13.62 0 0 20.69z"/>
  <path class="fil30 str0" d="M4112.74 1710.33c-1.02,0 -2,-0.34 -2.85,-1.04 -1.87,-1.57 -2.12,-4.37 -0.55,-6.24l51.75 -61.57 3.27 1.99c40.32,24.54 88.67,17.84 120.32,-16.69 20.52,-22.34 30.46,-52.08 27.32,-81.56 -0.38,-3.99 -2.93,-7.11 -6.76,-8.37 -3.05,-1.01 -7.47,-0.81 -10.74,2.77l-55.79 60.82c-4.89,5.3 -12.07,8.1 -19.25,7.47l-29.99 -2.56c-10.54,-0.93 -19.21,-8.84 -20.99,-19.28l-5.18 -29.68c-1.24,-7.09 0.93,-14.49 5.82,-19.79l55.74 -60.82c3.27,-3.58 3.14,-7.99 1.87,-10.94 -1.62,-3.71 -4.93,-5.98 -8.92,-6.06 -29.62,-0.54 -58.42,11.93 -78.94,34.27 -31.66,34.53 -34.16,83.28 -6.21,121.32l2.26 3.07 -67.09 67.05c-1.74,1.73 -4.55,1.73 -6.25,0 -1.74,-1.72 -1.74,-4.52 0,-6.25l61.74 -61.74c-28.17,-41.08 -24.69,-92.64 9.05,-129.43 22.22,-24.21 53.36,-37.8 85.61,-37.13 7.43,0.14 13.93,4.52 16.86,11.41 3.02,7.01 1.66,14.84 -3.44,20.41l-55.78 60.82c-3.02,3.29 -4.38,7.89 -3.61,12.3l5.18 29.66c1.1,6.49 6.5,11.41 13.04,11.98l30 2.59c4.46,0.39 8.92,-1.36 11.94,-4.65l55.78 -60.82c5.14,-5.58 12.83,-7.57 20.06,-5.19 7.13,2.35 12.02,8.42 12.83,15.83 3.4,32.02 -7.44,64.27 -29.62,88.48 -33.77,36.79 -84.84,44.69 -128.18,20.19l-46.9 55.8c-0.9,1.04 -2.13,1.58 -3.4,1.58zm-223.74 192.01c-2.25,0 -4.46,0.48 -5.99,0.95 -6.24,1.88 -12.7,6.22 -18.18,12.18 -10.37,11.33 -14.19,26.11 -8.16,31.62 5.35,4.92 19.29,1.65 30.76,-10.87l0 -0.02c5.48,-5.96 9.26,-12.76 10.58,-19.15 0.68,-3.23 1.27,-9.14 -2.38,-12.47 -1.87,-1.71 -4.29,-2.24 -6.63,-2.24zm-25.66 55.85c-4.88,0 -9.3,-1.47 -12.66,-4.57 -9.98,-9.17 -6.63,-28.55 7.65,-44.13 6.54,-7.12 14.4,-12.33 22.13,-14.67 8.58,-2.58 16.06,-1.42 21.16,3.25 5.1,4.67 6.88,12.04 5.06,20.79 -1.66,7.92 -6.16,16.2 -12.71,23.34 -9.47,10.3 -20.99,15.99 -30.63,15.99zm-4.33 28.19c-7.23,0 -13.85,-2.2 -18.87,-6.8l-14.44 -13.22c-6.97,-6.4 -9.86,-16.25 -8.12,-27.71 1.57,-10.8 7.22,-21.9 15.76,-31.24l9.61 -10.49c0.72,-0.74 1.4,-1.46 2.08,-2.16l179.72 -179.7c1.74,-1.73 4.5,-1.73 6.24,0 1.75,1.73 1.75,4.54 0,6.27l-179.67 179.68c-0.64,0.62 -1.24,1.24 -1.83,1.89l-9.6 10.49c-7.39,8.04 -12.2,17.49 -13.6,26.59 -1.27,8.46 0.68,15.49 5.4,19.86l14.44 13.22c10.12,9.29 30.98,3.73 45.55,-12.16l9.6 -10.49c0.64,-0.63 1.19,-1.29 1.74,-1.96l143.52 -170.67c1.53,-1.88 4.34,-2.12 6.21,-0.54 1.87,1.56 2.12,4.35 0.55,6.23l-143.48 170.67c-0.68,0.76 -1.32,1.53 -2,2.27l-9.6 10.47c-11.6,12.62 -26.38,19.5 -39.21,19.5z"/>
 </g>
</svg>
